<svg xmlns="http://www.w3.org/2000/svg" xmlns:xlink="http://www.w3.org/1999/xlink" viewBox="0 0 513.58 130.11"><defs><style>.cls-1,.cls-4{fill:none;}.cls-2{fill:#231f20;}.cls-3{clip-path:url(#clip-path);}.cls-4{stroke:#231f20;stroke-width:2px;}</style><clipPath id="clip-path" transform="translate(-32.96)"><rect class="cls-1" width="733.24" height="138.78"/></clipPath></defs><title>almanac-header</title><g id="Layer_2" data-name="Layer 2"><g id="Layer_1-2" data-name="Layer 1"><path class="cls-2" d="M97.4,91.8c1.31,3.33,2.22,3.53,5.76,4.54v3H70.84v-3c4-.5,6.46-1.41,4.54-6.56L71.24,78.16H50L46.8,88.87c-1.82,6.06.81,6.46,10.4,7.47v3H33v-3c5.56-1,7.17-1.41,8.38-5.55L60.53,28.17H73.36Zm-27.78-18L59.83,46.65h-.2L51.34,73.82Z" transform="translate(-32.96)"/><path class="cls-2" d="M115.78,35.24c0-2.52-.51-3-5-3.54v-3h30.8v3c-4.54.51-5.05,1-5.05,3.54v60.4h9.6c8.08,0,13.13-4.35,16.66-13.94h3l-1,17.67h-54v-3c4.54-.5,5-1,5-3.53Z" transform="translate(-32.96)"/><path class="cls-2" d="M215.26,99.88h-9.09l-20.5-56.36V92.81c0,2.52,1,3,9.9,3.53v3H172.84v-3c7.58-.5,8.08-1,8.08-3.53V35.24c0-2.52-.5-3-8.08-3.54v-3h28.79L218,72.51l12.52-43.83h26.67v3c-4.55.51-5.05,1-5.05,3.54V92.81c0,2.52.5,3,5.05,3.53v3H226.37v-3c4.55-.5,5-1,5-3.53v-49Z" transform="translate(-32.96)"/><path class="cls-2" d="M328.69,91.8c1.31,3.33,2.22,3.53,5.75,4.54v3H302.12v-3c4-.5,6.47-1.41,4.55-6.56l-4.14-11.62H281.32l-3.23,10.71c-1.82,6.06.8,6.46,10.4,7.47v3H264.25v-3c5.55-1,7.17-1.41,8.38-5.55l19.19-62.62h12.83Zm-27.78-18-9.8-27.17h-.2l-8.28,27.17Z" transform="translate(-32.96)"/><path class="cls-2" d="M354.14,43V92.81c0,2.52,1,3,9.59,3.53v3H341v-3c7.57-.5,8.38-1,8.38-3.53V37.26c0-2.53-.5-5-8.38-5.56v-3h28.48l28.58,39.18V35.24c0-2.52-1-3-9.59-3.54v-3H411.2v3c-7.57.51-8.38,1-8.38,3.54V99.88H395Z" transform="translate(-32.96)"/><path class="cls-2" d="M478.06,91.8c1.32,3.33,2.22,3.53,5.76,4.54v3H451.5v-3c4-.5,6.46-1.41,4.55-6.56L451.9,78.16H430.69l-3.23,10.71c-1.81,6.06.81,6.46,10.41,7.47v3H413.63v-3c5.55-1,7.17-1.41,8.38-5.55L441.2,28.17H454Zm-27.77-18-9.8-27.17h-.2L432,73.82Z" transform="translate(-32.96)"/><path class="cls-2" d="M543.51,49.38c-2-8.08-7.07-17.37-19.19-17.37-9.7,0-17.17,8.48-17.17,32,0,23.94,7.47,32,17.17,32,12.12,0,17.17-9.29,19.19-17.37h3l-1,15.65a39.19,39.19,0,0,1-21.21,6.06c-22.32,0-38.88-15.15-38.88-36.36S502,27.66,524.32,27.66a39.28,39.28,0,0,1,21.21,6.06l1,15.66Z" transform="translate(-32.96)"/><g class="cls-3"><path class="cls-2" d="M388.41,17c-.23-1.61-1.61-2.43-2.88-3.36a.38.38,0,0,0-.12-.23c-.66-.11-1.11-.82-1.83-.6-.15.07-.33,0-.45.37a2.37,2.37,0,0,1-.6.9c-.1.12-.22.12-.33.23s-.23.37-.37.6a8.79,8.79,0,0,0-.6,3.22c0,.1-.12.22-.12.33.22.83.22,1.76.94,2.32.08,1.05,1.23,1.5,2.16,1.76a4.31,4.31,0,0,0,3.11-.45,4.4,4.4,0,0,0,.82-1.39l.23-.1a6.35,6.35,0,0,1,.37-1.39,7,7,0,0,0-.33-2.21m-.82-12.79a10.89,10.89,0,0,0-.94-1.42,2,2,0,0,0-.56-.34L386,2.18h-.33c-.93-.71-1.87-.48-2.77-.48a5.53,5.53,0,0,0-2.24,2.65,4.26,4.26,0,0,0,0,2.4,7.32,7.32,0,0,0,1.61,2.69h.22a4.77,4.77,0,0,0,1.16.94c.45.22,1,.34,1.5.56h.44c1,0,1.28-1.34,1.88-2.17a5.82,5.82,0,0,0,.45-1.27c.11-.34,0-.56.14-.9a6.22,6.22,0,0,0-.44-2.43m4.15,13.54v.9c-.11.37-.34.71-.45,1.05s.11.44,0,.56c-.49.59-.83,1.16-1.31,1.72a5.11,5.11,0,0,0-.67.71.51.51,0,0,0-.38.11,1.1,1.1,0,0,1-.56.45,4.32,4.32,0,0,0-1.05.45H387c-.37.11-.71.34-1,.45A11.8,11.8,0,0,1,382,24a.58.58,0,0,1-.11-.27.42.42,0,0,0-.34-.11,5.22,5.22,0,0,0-2-1.16.38.38,0,0,1-.11-.22.42.42,0,0,0-.34-.11,7.91,7.91,0,0,1-1-2.33,8.31,8.31,0,0,1-.23-1.64c.23-.9,0-1.83.72-2.77,0-.11.11-.33.11-.45.22-.34.6-.56.82-.9a7.93,7.93,0,0,1,1.73-1.16c.37-.33-.12-.82-.34-.93a2,2,0,0,1-1.13-.67c-.71-.83-1.49-1.31-1.83-2.21l-.26-.15a6.19,6.19,0,0,1-.45-1.38c0-.45,0-.79,0-1.28v-1c.11-.82.82-1.38.93-2.2l.23-.12a2,2,0,0,1,.83-.89V1.77A9.22,9.22,0,0,1,381.6.43a6.4,6.4,0,0,1,3.21-.34,7,7,0,0,1,3,.6h.33c.34.11.45.48.79.6.11.11.11.22.23.33,1.15.49,1.49,1.88,1.94,2.92.11.45,0,.9.11,1.39s-.34,1.12-.34,1.72a6.91,6.91,0,0,1-.48.93,12.56,12.56,0,0,1-2,1.95h-.23c-.22.22-.82.22-.49.9.08.14.27.22.38.48h.22c.12.12.12.23.23.34a.43.43,0,0,1,.34.11,8.88,8.88,0,0,0,1,.94c.11,0,.23.11.34.11.22.34.45.6.67.93.23.72.6,1.5.82,2.21,0,.34,0,.79,0,1.16" transform="translate(-32.96)"/><path class="cls-2" d="M369.33,5.86a17.68,17.68,0,0,0-2.21.23c-.56.11-.67.56-.78,1-.26.89.18,1.83,0,2.76a16,16,0,0,0,.11,2.29,4.16,4.16,0,0,1-.26,1.16,8.89,8.89,0,0,0,.11,1.72c.12.82-.23,1.53-.11,2.32.19,1.61,2.06.71,3.11,1.31a.92.92,0,0,1,.67,1c-.11.34-.45.45-.82.57a1.37,1.37,0,0,1-.68-.12c-.93-.15-1.87.08-2.77,0-.38,0-.71.23-1.05.23a23.16,23.16,0,0,0-2.76.11,4.78,4.78,0,0,0-.6-.11c-.56.34-1.27,0-1.84,0a.5.5,0,0,1-.33-.33c0-.34-.11-.83.11-1.05s.6-.56,1.05-.45c.67.11,1.84.22,2.32-.56.22-.56-.12-1.05,0-1.61a3,3,0,0,0,.11-1.39,25.56,25.56,0,0,1,.15-3.81,1.33,1.33,0,0,1-.22-.6,12.73,12.73,0,0,0-.2-4.15,4.73,4.73,0,0,0-2.2-.34c-.34-.15-.79-.26-.9-.6s-.48-.82,0-1.16a3.33,3.33,0,0,1,2.32-.22c.78.37,1.73-.34,2.66,0,.33.11.79-.11,1.16-.22h1.12c1.27.25,3-.46,3.82,1a.38.38,0,0,0-.11.22l.11.11a2.09,2.09,0,0,1-1.05.67" transform="translate(-32.96)"/><path class="cls-2" d="M410.81,13.42c1.16-1.94.16-4.15-1.34-5.54a.45.45,0,0,0-.11-.37c-.34-.11-.34-.22-.56-.45a.56.56,0,0,0-.38-.11l-.11-.26a4.37,4.37,0,0,0-2.39-.45,4.82,4.82,0,0,0-3.49,2.06l-.26.11v.34a3.13,3.13,0,0,0-.45.78,11.86,11.86,0,0,0-.15,3,5.79,5.79,0,0,0,0,1.38,2,2,0,0,0,.57.79v.38a3,3,0,0,0,1,1.38c.45.22,1,.22,1.5.45a4.54,4.54,0,0,0,3.82-.75H409a2.17,2.17,0,0,0,.93-1.05l.23-.11c.22-.45.59-.67.7-1.16Zm2.51,1.65a1.44,1.44,0,0,1-.11.67,6.8,6.8,0,0,0-1.16,1.39l-.22.11a.66.66,0,0,1-.12.45c-.37.22-.49.6-.94.71l-.1.22c-.83.45-1.61.45-2.33.9a8.21,8.21,0,0,1-1.49.45h-1.5c-.11-.12-.37-.12-.6-.23h-.33c-.45-.26-.83-.49-1.28-.71a2.81,2.81,0,0,1-.93-.11c-.22-.15-.33-.38-.56-.38a3.82,3.82,0,0,1-1-.93c0-.11,0-.22-.11-.33s-.22-.12-.34-.23a22.68,22.68,0,0,1-1.45-2.92,8.73,8.73,0,0,1-.34-1.72c-.12-.71.22-1.27.11-2-.11-.9.49-1.72.83-2.62l.22-.11a5.35,5.35,0,0,1,1.19-1.87c.45-.23.68-.68,1.05-.9a.41.41,0,0,0,.34-.11.43.43,0,0,1,.11-.23,5.78,5.78,0,0,1,1.27-.67,22,22,0,0,0,2.66-.45c.71-.11,1.38.34,2.09.45s1,.49,1.61.71a1.68,1.68,0,0,1,1.13.82.73.73,0,0,1,.48.11.39.39,0,0,0,.11.23c.45.15.68.6,1,.83a4.73,4.73,0,0,1,1.16,2.2,9.66,9.66,0,0,1,.19,4.86,6.28,6.28,0,0,1-.6,1.39" transform="translate(-32.96)"/><path class="cls-2" d="M434.72,18a3.59,3.59,0,0,0-.56.71c-.34.44-.38,1-.83,1a13.35,13.35,0,0,1-4,.08,37.27,37.27,0,0,1-4.86.19,4.83,4.83,0,0,1-1.27.22.74.74,0,0,1-.67-.45.83.83,0,0,1,.33-.71.58.58,0,0,0,.27-.11c.1-.23.1-.56.44-.56a.53.53,0,0,1,.12-.38,6.41,6.41,0,0,1,1-.78V17c.12-.23.34-.45.49-.71a5.21,5.21,0,0,0,1.05-1.61c.11-.33.11-.78.22-1.12V13.2c.12-.23.12-.34.23-.57V12.3a3.15,3.15,0,0,0,.14-2.54c0-.12.12-.23.12-.34-.12-.71-.68-.94-1.12-1.31A1.78,1.78,0,0,0,424.77,8c-.34,0-.49.34-.83.34a.24.24,0,0,0-.22.22,11.47,11.47,0,0,0-2.43,1.27v.22c-.6.23-.93-.33-.82-.82a5.93,5.93,0,0,1,2.24-3.67,4.67,4.67,0,0,1,1.83-1.15,15.52,15.52,0,0,1,2.32-.3l1.27.33c.12,0,.12.23.23.23a3.51,3.51,0,0,1,1.27.82v.23a4.48,4.48,0,0,1,.68,1.16c.1.11.33.26.33.37a31.89,31.89,0,0,0,.11,3.22c-.59,1-.82,2.54-2,3.21-.11.6-.6.94-1,1.39-.12.22-.49.56-.49.82s.22.89.7.79a5.37,5.37,0,0,1,1.39-.12,42.74,42.74,0,0,0,4.38.15c.34,0,.56-.33.82-.56.11,0,.34,0,.34-.11.11-.45.71-.45.93-.34a.92.92,0,0,1,.11.94c-.37.45-.82.9-1.19,1.35" transform="translate(-32.96)"/></g><polygon class="cls-2" points="121.04 21.96 114.09 21.96 114.09 1.8 119.07 1.8 119.5 3.94 116.56 3.94 116.56 10.11 118.01 10.11 118 12.39 116.56 12.39 116.61 19.72 119.76 19.72 121.04 21.96"/><polygon class="cls-2" points="140.07 1.8 154.54 1.8 154.54 4.38 142.58 4.38 142.58 10.1 154.43 10.1 154.43 12.69 142.58 12.69 142.58 19.38 154.43 19.38 154.43 21.96 140.07 21.96 140.07 1.8"/><polygon class="cls-2" points="165.95 1.8 180.41 1.8 180.41 4.38 168.45 4.38 168.45 10.1 180.31 10.1 180.31 12.69 168.45 12.69 168.45 19.38 180.31 19.38 180.31 21.96 165.95 21.96 165.95 1.8"/><polygon class="cls-2" points="191.78 1.8 194.36 1.8 194.36 9.37 204.44 1.8 208.44 1.8 196.32 10.85 209.38 21.96 205.4 21.96 194.36 12.57 194.36 21.96 191.78 21.96 191.78 1.8"/><polygon class="cls-2" points="217.22 21.96 221.33 1.8 231.43 17.68 241.58 1.78 245.76 21.96 243.17 21.96 240.46 7.68 231.5 21.96 231.5 22.1 222.42 8.1 219.78 22.08 217.22 21.96"/><path class="cls-2" d="M297.67,6.05l-4.12,6.87h8.17Zm0-4.25L309.78,22h-2.9l-3.94-6.58h-10.6L288.44,22h-3Z" transform="translate(-32.96)"/><polygon class="cls-2" points="284.19 21.96 284.21 1.44 301.33 16.17 301.37 1.8 304.01 1.8 304.01 21.84 286.93 7.46 286.95 21.96 284.19 21.96"/><g class="cls-3"><path class="cls-2" d="M155.26,12.49c2.69,0,4.88,1.57,4.88,3.51s-2.24,3.51-4.88,3.51h-8.17V22h8.17c4.06,0,7.36-2.68,7.36-6s-3.3-6-7.36-6Z" transform="translate(-32.96)"/><path class="cls-2" d="M147.18,1.74V4.22h7.73c2.22,0,4.09,1.33,4.09,2.91S157.13,10,154.91,10h-6.58V12.5h6.58c3.62,0,6.57-2.41,6.57-5.37s-2.95-5.39-6.57-5.39Z" transform="translate(-32.96)"/></g><path class="cls-2" d="M150,128.86a15.3,15.3,0,0,1-5.86,1.25c-5.72,0-7.67-4-7.67-9.1s2-9.11,7.67-9.11a15.3,15.3,0,0,1,5.86,1.25L149.5,115a14.29,14.29,0,0,0-5.15-1.09c-4.06,0-5.49,3.1-5.49,7.08s1.43,7.07,5.49,7.07A14.29,14.29,0,0,0,149.5,127Z" transform="translate(-32.96)"/><path class="cls-2" d="M155.87,123.5c0,1.77.32,4.58,4.32,4.58s4.22-2.81,4.22-4.58V112.16h2.44V123.5c0,4.53-2.42,6.61-6.71,6.61s-6.71-2.08-6.71-6.61V112.16h2.44Z" transform="translate(-32.96)"/><path class="cls-2" d="M182.69,127.82v2h-11V112.16h2.45v15.66Z" transform="translate(-32.96)"/><path class="cls-2" d="M189.43,129.85H187V114.19h-5v-2h12.54v2h-5Z" transform="translate(-32.96)"/><path class="cls-2" d="M200.12,112.16v17.69h-2.45V112.16Z" transform="translate(-32.96)"/><path class="cls-2" d="M211.07,127.41l1.53-4.48,3.62-10.77h2.42L212.45,130h-3l-6-17.82H206l3.54,10.77,1.48,4.48Z" transform="translate(-32.96)"/><path class="cls-2" d="M221,129.85h-2.42L224.72,112h3l6.06,17.82h-2.52l-1.56-4.63h-7.11Zm8.25-6.45-3-9h-.05l-3.15,9Z" transform="translate(-32.96)"/><path class="cls-2" d="M241.55,129.85h-2.44V114.19h-5.05v-2H246.6v2h-5Z" transform="translate(-32.96)"/><path class="cls-2" d="M253.05,119.65h7.62v2h-7.62v6.14H262v2H250.6V112.16h11.27v2h-8.82Z" transform="translate(-32.96)"/><path class="cls-2" d="M272.79,129.85h-2.42L276.54,112h3l6.06,17.82H283l-1.56-4.63h-7.1ZM281,123.4l-3.05-9h-.05l-3.15,9Z" transform="translate(-32.96)"/><path class="cls-2" d="M304.08,120.8a4.23,4.23,0,0,1,3.57,4.29c0,2.92-1.93,4.76-5.41,4.76h-7.65V112.16h7.13c3.48,0,5.41,1.82,5.41,4.53a4,4,0,0,1-3.05,4.06Zm-2.52-1c2,0,3.12-.88,3.12-2.81,0-1.74-1.09-2.81-3.12-2.81H297v5.62Zm.42,8c2,0,3.22-1,3.22-3,0-1.85-1.2-3-3.54-3H297v6Z" transform="translate(-32.96)"/><path class="cls-2" d="M314.49,119.65h7.62v2h-7.62v6.14h8.95v2H312V112.16h11.27v2h-8.82Z" transform="translate(-32.96)"/><path class="cls-2" d="M333,129.85h-2.44V114.19h-5.05v-2H338v2H333Z" transform="translate(-32.96)"/><path class="cls-2" d="M348.56,129.85h-2.45V114.19h-5v-2h12.54v2h-5.05Z" transform="translate(-32.96)"/><path class="cls-2" d="M360.06,119.65h7.62v2h-7.62v6.14H369v2h-11.4V112.16h11.27v2h-8.82Z" transform="translate(-32.96)"/><path class="cls-2" d="M379.54,122.83h-4v7h-2.44V112.16h7.28c3.49,0,5.57,2.29,5.57,5.33a4.9,4.9,0,0,1-3.8,5.13l4.37,7.23h-2.75Zm.65-2a3.31,3.31,0,0,0,.23-6.61h-4.84v6.61Z" transform="translate(-32.96)"/><path class="cls-2" d="M406.67,127.82v2h-11V112.16h2.44v15.66Z" transform="translate(-32.96)"/><path class="cls-2" d="M412.7,112.16v17.69h-2.44V112.16Z" transform="translate(-32.96)"/><path class="cls-2" d="M420.06,120.17h7.26v2h-7.26v7.65h-2.44V112.16h10.9v2h-8.46Z" transform="translate(-32.96)"/><path class="cls-2" d="M435,119.65h7.62v2H435v6.14h8.95v2h-11.4V112.16h11.27v2H435Z" transform="translate(-32.96)"/><line class="cls-4" x1="91.9" y1="120.06" x2="0.29" y2="120.06"/><line class="cls-4" x1="511.9" y1="120.06" x2="420.29" y2="120.06"/></g></g></svg>