<?xml version="1.0" encoding="UTF-8" standalone="no"?>
<svg width="12px" height="12px" viewBox="0 0 12 12" version="1.1" xmlns="http://www.w3.org/2000/svg" xmlns:xlink="http://www.w3.org/1999/xlink" xmlns:sketch="http://www.bohemiancoding.com/sketch/ns">
    <!-- Generator: Sketch 3.3.2 (12043) - http://www.bohemiancoding.com/sketch -->
    <title>0317-arrow-right2</title>
    <desc>Created with Sketch.</desc>
    <defs></defs>
    <g id="Index-—-Extras" stroke="none" stroke-width="1" fill="none" fill-rule="evenodd" sketch:type="MSPage">
        <g id="Desktop-Copy" sketch:type="MSArtboardGroup" transform="translate(-655.000000, -455.000000)" fill="#505050">
            <g id="Rectangle-37-+-0317-arrow-right2-+-Email-Address-2" sketch:type="MSLayerGroup" transform="translate(397.000000, 440.000000)">
                <path d="M265.46337,26.7067181 L269.749123,21.7067184 C270.083947,21.3173434 270.083947,20.6835935 269.749123,20.2929685 L265.46337,15.2929687 C265.128546,14.9023438 264.585595,14.9023438 264.25077,15.2929687 C263.915946,15.6835937 263.915946,16.3173437 264.25077,16.7067187 L267.073742,20.000156 L258.856883,20.000156 C258.384111,20.000156 258,20.448281 258,20.9998434 C258,21.5529684 258.384111,22.0007809 258.856883,22.0007809 L267.073742,22.0007809 L264.25077,25.2929682 C264.083358,25.4882807 263.999518,25.7448432 263.999518,25.9998432 C263.999518,26.2564057 264.083358,26.5126557 264.25077,26.7067181 C264.585595,27.0973431 265.128546,27.0973431 265.46337,26.7067181 L265.46337,26.7067181 Z" id="0317-arrow-right2" sketch:type="MSShapeGroup"></path>
            </g>
        </g>
    </g>
</svg>