<?xml version="1.0" encoding="utf-8"?>
<!-- Generator: Adobe Illustrator 22.0.1, SVG Export Plug-In . SVG Version: 6.00 Build 0)  -->
<svg version="1.1" id="Layer_1" xmlns="http://www.w3.org/2000/svg" xmlns:xlink="http://www.w3.org/1999/xlink" x="0px" y="0px"
	 viewBox="0 0 216 216" style="enable-background:new 0 0 216 216;" xml:space="preserve">
<style type="text/css">
	.st0{fill:url(#SVGID_1_);}
</style>
<linearGradient id="SVGID_1_" gradientUnits="userSpaceOnUse" x1="9.3744" y1="107.8384" x2="206.5139" y2="107.8384">
	<stop  offset="0" style="stop-color:#A6894B"/>
	<stop  offset="1" style="stop-color:#ECCA7A"/>
</linearGradient>
<path class="st0" d="M17.7,169.5c-2.3,2.1-2.3,2.4-2.9,3.4c-0.5,0.8-0.9,2-1.2,3c1.1,0.2,2.2,0.7,3.2,0.5c1.4-0.3,2.6-1,3.9-1.6
	c0,0,0,0-0.1,0c2.5-0.5,4,0.7,5.4,2.7c2.1,3,4.2,6,6.4,9c0.3,0.5,0.8,0.8,1.3,1.2c0.2-0.1,0.4-0.2,0.6-0.4c-0.6-1.5-1.3-2.9-2.2-4.9
	c2,2.1,3.4,3.9,5,5.5c0.2-0.2,0.3-0.3,0.2-0.3c-3-4.5-6-8.9-9-13.4c0-0.1,0.7-0.7,0.9-0.9c4.9,5.2,8.4,12.2,16.1,14.1
	c-6.5-5.6-12.3-11.7-16.2-20.5c1.6,1.4,2.8,2,3.5,3c1.6,2.2,2.8,4.9,4.7,6.9c2.8,2.9,5.9,5.6,9.1,8c0.8,0.6,2.6,0,3.9-0.1
	c-0.7-1-1.2-2.1-2.1-2.9c-3-2.6-6.2-4.9-9-7.7c-1.7-1.7-2.7-3.9-4.1-6c1.6,0,2.7-0.1,3.7,0.1c1.3,0.3,3.4,0.5,3.8,1.4
	c1.5,3.1,4.2,4.6,6.9,6.3c2.2,1.4,4,3.3,6.1,4.9c2.4,1.8,4.8,3.6,7.3,5.3c0.2-0.3,0.5-0.7,0.7-1c-6.6-5.9-13.2-11.8-20.1-17.9
	c2.1,0.2,4.5-0.3,5.9,0.7c2.3,1.5,3.8,4.1,5.8,6.1c3.6,3.5,7.2,7,11,10.3c0.7,0.6,2.1,0.5,3.1,0.7c0.1-0.4,0.2-0.7,0.2-1.1
	c-2.4-1.8-4.7-3.6-7.1-5.4c1.2-0.2,2,0,2.8,0.4c4.1,2.5,8.1,5.1,12.3,7.5c1,0.6,2.4,0.4,3.7,0.6c0.1-0.4,0.2-0.7,0.2-1.1
	c-8.9-2.9-15.5-9-22.3-14.9c2-1.1,3.6-1.9,5.6-3c0.3,1.3,0.4,2.6,0.8,3.9c0.3,0.9,0.5,2,1.2,2.6c2,1.7,4.3,3.2,6.4,4.7
	c0.6,0.4,1.3,0.7,2.1,1.2c-0.1-1-0.2-1.6-0.3-2.4c5.9,2.4,11.5,4.7,17,7c0.1-0.2,0.2-0.5,0.3-0.7c-1.4-1.8-2.8-3.7-4.2-5.5
	c0.2-0.2,0.5-0.4,0.7-0.6c3.5,1.4,6.9,2.8,10.6,4.3c-0.3-1.2-0.6-2.2-0.8-3.2c2.7,0.5,5.2,0.9,7.6,1.3c0.1-0.4,0.2-0.7,0.2-1.1
	c-1.5-0.7-3-1.3-4.9-2.2c3.4-0.2,6.2-0.3,8.3-0.4c0.8,2,1.4,3.5,2,5c0.2-0.1,0.3-0.1,0.5-0.2c-0.1-0.9-0.3-1.9-0.4-3.1
	c2.1,1.1,3.9,2.1,5.7,3.1c0.1-0.2,0.2-0.4,0.3-0.5c-1.3-1.2-2.6-2.3-4.2-3.9c2-0.1,3.2-0.1,4.6-0.2c-0.3-0.8-0.5-1.4-1.1-3.1
	c2.8,0.9,4.9,1.6,6.9,2.3c1.9,0.6,3.1,1,5.8,1.9c0.1-0.3,0.2-0.6,0.3-0.9c-3.9-1.8-8.1-3.6-12.2-5.4c2.5-2.8,5-1.1,8.4,0.5
	c-1.3-2.4-2.1-4-2.7-5.1c-3.4,0.2-6.3,0.4-9.9,0.6c1.5-1.9,2.5-3.1,3.8-4.8c-3.1,1.1-3.8,4.8-7.5,4.6c1.8-1.5,3.1-2.6,4.3-3.8
	c0.3-0.3,0.1-1.1,0.1-1.7c-0.6,0-1.4-0.1-1.8,0.2c-1.4,1-2.7,2.2-4,3.4c-1.9,1.6-3.8,2.3-6.9,0.7c4.1-2.3,7.6-4.2,11.1-6.2
	c-0.2-0.4-0.4-0.8-0.6-1.2c-2.2,0.9-4.3,1.9-6.4,3c-3.5,1.8-6.5,4.3-10,6.2c-0.2-0.4-0.3-0.5-0.3-0.6c4.7-3.2,9.5-6.3,14.2-9.5
	c0,0-0.8-1.4-1-1.8c-1.8,0.8-4.1,1.9-5.8,1.7c-2.7-0.2-3.6,1.6-5.2,2.7c-1.6,1.1-3.1,2.2-4.7,3.4c-0.3-0.4-0.7-0.9-1-1.3
	c4.6-3.5,9.1-6.9,13.7-10.4c-1.4-0.3-2.7-0.1-3.8,0.5c-4.7,3.1-9.4,6.2-13.9,9.6c-0.9,0.7-1.1,2.4-1.7,3.9c-0.8-0.1-2.1-0.3-4.4-0.6
	c1.5-1,2.5-1.3,2.8-2c3.1-5.2,7.6-8.8,12.5-12.2c1.5-1,2.7-2.5,4-3.8c-0.4-0.4-0.7-0.9-1.1-1.3c-3.8,2.9-7.6,5.8-11.3,8.7
	c-0.3-0.3-0.7-0.5-1-0.8c0.9-1.2,1.8-2.5,3-4.1c-3.6-1.2-4.7,1.8-6.6,3.1c-2.1,1.5-4.1,3.3-6.1,5c-0.2-0.2-0.3-0.4-0.5-0.6
	c1.4-1.3,2.7-2.6,4.1-4c-0.2-0.2-0.4-0.4-0.6-0.6c-1.8,1.7-3.6,3.4-5.5,5c-1.9,1.6-4,3.1-6,4.6c-0.1-0.2-0.2-0.3-0.4-0.5
	c4.3-3.7,8.6-7.4,12.9-11.1c-0.1-0.2-0.3-0.5-0.4-0.7c-0.8,0.4-1.8,0.7-2.5,1.2c-4.2,3.2-8.2,6.6-12.4,9.8c-1.4,1-3.1,1.5-4.7,2.3
	c0.8-1.7,1.4-3.5,2.5-4.9c3-3.8,6.3-7.4,9.5-11c-0.2-0.2-0.3-0.4-0.4-0.6c-1.2,0.6-2.3,1.2-3.6,1.8c-0.8-0.7-1.5-1.4-2.3-2
	c0.8-1.2,1.7-2.4,2.4-3.4c1.1-0.1,1.4,0.5,4.4-0.6c-0.9-1.4-1.5-2.2-2-3c4.2-1.2,10.6-0.6,15.5,3c0.2-0.5,0.2-0.9,0.5-1.4
	c-1.7-1.7-3.5-3.3-5.2-5c-0.9-0.9-2.8-1.6-0.8-3.3c0,0,0,0-0.1,0c1,0.1,2.3-0.1,2.9,0.4c1.9,1.5,3.5,3.3,5.3,5
	c1.9,1.9,3.9,3.7,5.8,5.5c0.4-0.2,0.7-0.4,1.1-0.6c-0.7-1.4-1.3-2.9-2.2-4.2c-1-1.4-2.5-2.4-3.6-3.7c-1.1-1.3-2-2.9-2.9-4.3
	c0.3-0.2,0.6-0.5,0.9-0.7c4.6,5,9.2,10,13.8,15c0.3-0.2,0.7-0.4,1-0.7c-2-3.4-3.9-6.8-5.9-10.1c3.9,2.3,7.2,5.1,10.4,7.9
	c1.6,1.4,3,2.5,4.5,0.5c1.6,1.3,3,2.5,4.4,3.7c0.3-0.2,0.6-0.5,0.8-0.7c-1.1-2.3-2.1-4.6-3.2-6.9c0.3-0.2,0.6-0.4,1-0.6
	c2,1.8,3.9,3.7,5.9,5.4c0.5,0.4,1.5,0.2,2.3,0.3c-0.1-0.7,0-1.4-0.2-2.1c-0.1-0.5-0.4-1-0.7-1.5c0.1-0.1,0.3-0.2,0.4-0.3
	c2.3,2.5,4.7,4.8,6.9,7.2c0.3-0.2,1.2-0.9,1.2-0.9c-2.5-3.8-5.1-7.6-7.6-11.4c0,0,0.3-0.2,0.6-0.4c4.8,5.2,9.4,10.5,14.2,15.7
	c0.3-0.2,0.6-0.4,1-0.6c-0.6-1.3-1.1-2.6-1.8-3.8c-0.7-1.2-1.6-2.4-2.5-3.8c5,0.1,8.2,2.5,11.3,5.2c2.9,2.5,5.7,5.7,10.4,3.6
	c1-2.3-5.3-3.3-1.3-5.8c-1.2-1.6-2.2-3-3.3-4.4c0.1-0.2,0.3-0.3,0.4-0.5c4.5,2.1,8.9,4.1,13.7,6.3c0.3-3.8-4.1-4.5-5.1-7.6
	c5.1-0.8,6.6,4.8,10.5,5.7c0.2-0.2,0.5-0.5,0.7-0.7c-1.6-2.1-3.1-4.2-4.7-6.2c2.2,0.5,3.9,2,5.9,2.8c2,0.8,4.3,1,7.3,1.6
	c-0.7-2-1-3.1-1.4-4.2c3-0.9,2.5-3.7,1.9-5.4c-0.7-1.9-2.2-4-5.3-3.3c-1.7,0.4-3.6-0.1-5.4-0.1c0-0.3,0-0.6,0-0.9
	c2.5-1.2,5-2.4,7.6-3.7c-0.2-0.5-0.3-0.9-0.5-1.4c-2.7,0.5-5.9,0.3-8,1.8c-3.4,2.4-7,2.8-11.2,2.9c4-5,9.8-5.9,14.9-8.4
	c-3.3-0.8-6.3-0.2-9.1,1.2c-3.8,1.9-7.2,4.9-12.2,4c4.7-2.6,9.4-5.1,14.1-7.7c-0.2-0.4-0.4-0.8-0.5-1.2c-3,1.1-6,2.2-9,3.2
	c-0.1-0.2-0.1-0.3-0.2-0.5c1.4-0.7,2.7-1.3,4.4-2.1c-1-0.8-1.7-1.3-2.1-1.7c-4.7,2-9,3.9-13.4,5.7c-0.1-0.2-0.2-0.3-0.4-0.4
	c1.8-2.5,3.5-5,5.8-8.2c-3.9,0.5-7.2,1.2-10.6,1.6c-1,0.1-2,0.3-2.7,0.8c-3.7,2.5-7.5,5-11.2,7.5c-0.1,0-0.6-0.6-0.7-0.6
	c1.5-1.7,2.6-3.9,4.4-5.2c1.9-1.5,4.2-2.5,6.4-3.5c0.3-0.1,0.8,0.4,1.3,0.6c0.6-0.9,1.1-1.8,1.7-2.6c-0.1-0.3-0.2-0.6-0.3-0.9
	c-2.3,0.4-5.2,0.1-6.9,1.3c-4.6,3.3-8.7,7.3-13,11c0.1,0.7-0.4,0.8-0.8,0.7c-0.5-0.1-1-0.4-1.5-0.6c2-6,6.2-10.1,10.9-13.8
	c-6.1-0.4-8.2,5.5-12.8,7.6c0.8-1.7,1.7-3.5,3.1-4.6c1.4-1.2,1.2-2,0.2-3c1.8-0.4,4.3-0.4,5-1.4c1.8-2.8,4.9-3.1,7.1-3.5
	c5.9-1.1,12-0.9,17.9-1.3c2.3-0.1,4.6-0.1,6.8-0.3c0.9-0.1,1.7-0.9,2.9-1.5c1.7-0.1,4-0.2,6.3-0.2c-5.2-2-10.3-3.4-15.4-4.8
	c-2.9-0.8-5.1-3.8-8.8-1c-1.8,1.3-5.1,1-7.7,0.8c-2.7-0.1-3.5,1-2.9,3.9c-2-0.3-3.6-0.5-5.3-0.7c2.3-2.4,4.1-4.5,6.2-6.4
	c2.8-2.7,6.8-2.3,9.8-3.8c3.5-1.8,8.4-1.1,10.5-5.4c0.1-0.2,0.6-0.2,0.9-0.3c1.7-0.5,3.4-1,5.2-1.5c2.8-0.9,5.6-2.4,8.5-2.5
	c3.6-0.1,7.3,1.1,10.9,1.7c4.9,0.8,9.7,1.5,14.6,2.3c0.1-0.4,0.2-0.8,0.2-1.2c-7.1-1.5-14.3-3-21.4-4.5c2.2-1.6,4.2-2.5,6.4-3.1
	c0.6-0.2,1.4,0.7,2.1,1.1c-0.3,0.4-0.6,0.8-0.9,1.1c8.3,3.3,16.6,4,24.9,1.2c0-0.5,0.1-1,0.1-1.5c-7.2-0.9-14.3-1.9-21.5-2.8
	c0-0.4,0.1-0.8,0.1-1.2c3.4,0.3,6.8,0.8,10.2,0.9c3.6,0.1,7.1-0.4,10.7-0.6c0-0.3,0-0.6,0-1c-2.4-0.3-4.9-0.6-7.3-0.9
	c0-0.2,0-0.4,0-0.7c3.6-1,7.2-2,11.1-3.1c0-1.1-0.1-2.3-0.1-4.1c-5.3,4.6-11.3,4.6-16.7,6.1c-0.5,0.1-1.3-0.8-2-1.2
	c0.6-0.3,1.2-0.8,1.9-1c0.7-0.3,1.7-0.1,2.3-0.5c3.6-2.8,7.1-5.6,10.7-8.5c-0.1-0.3-0.3-0.6-0.4-0.8c-4.8,0-8.1,4.5-12.9,5.7
	c1.8-2.8,3.4-5.2,5-7.6c-0.4-0.4-0.8-0.8-1.2-1.2c-1.3,1.1-2.9,1.9-3.9,3.2c-1.5,2-2.5,4.4-4,6.4c-1.3,1.6-3,2.9-4.5,4.4
	c-0.3-0.3-0.6-0.6-0.9-0.9c2.3-3.3,4.5-6.6,6.8-9.9c-0.3-0.3-0.7-0.5-1-0.8c-1.9,1.8-3.9,3.7-6.1,5.8c0.4-2.4,0.6-4.3,1-6.3
	c-0.5-0.1-1.4-0.4-1.5-0.3c-2.6,4.4-4.9,8.3-7.5,13.4c-0.2-0.1-0.4-0.1-0.6-0.2c1.1-4.1,1.9-7.4,2.9-11c-0.3-0.2-0.6-0.5-0.9-0.6
	c-0.9,1.1-2.2,2-2.7,3.2c-1.4,3.9-2.4,7.9-3.7,11.9c-0.4,1.1-1.2,2.1-1.8,3.2c-0.4-0.2-0.8-0.4-1.2-0.6c1.5-5.3,3-10.7,4.5-16
	c-0.2-0.2-0.4-0.4-0.6-0.6c-1.3,1.4-2.6,2.7-3.8,4.1c-1.4,0.2-2.5,0.8-3.5,1.5c-3.1,2-3.2,5.6-4.1,8.6c-0.6,1.9-1.3,3.7-2,5.6
	c-0.3-0.1-0.7-0.2-1-0.3c0.2-1.7,0.4-3.3,0.8-5c0.7-3.2,1.7-6.3,2.3-9.5c0.1-0.8-0.8-1.8-1.1-2.6c-2.2,4.2-4.1,7.8-6.4,12
	c-0.2-2-0.4-3.2-0.5-4.4c-0.3-0.1-0.6-0.3-0.9-0.4c-0.6,1-1.7,2-1.8,3c-0.1,3.2,0.2,6.5,0.3,9.8c0,0.9-0.4,1.8-0.6,2.7
	c-0.5-0.1-1-0.1-1.5-0.2c0.1-4,0.2-8,0.2-12.1c-0.8-0.3-1.6-0.6-2.8-1c1.1-1.8,2-3.3,2.9-5c-3.5,0.2-8.6,6.6-9,11.2
	c0.7-0.2,1.4-0.3,1.9-0.4c-0.3,2,0,4.5-1,5.8c-1.8,2-4.5,3.3-6.9,4.8c-0.1-0.2-0.3-0.3-0.4-0.5c1.4-2,2.9-4,4.3-6.1
	c-0.4-0.3-0.7-0.7-1.1-1c-2,2-3.9,4-5.9,6c-0.3-0.2-0.5-0.4-0.8-0.6c1-1.8,1.9-3.7,3.2-5.3c1.5-1.8,3.5-3.1,5-4.9
	c1.6-1.8,2.5-4.5,4.4-5.8c3.6-2.6,3-6.9,4.9-10.1c0.3-0.5-0.6-1.8-1.1-2.4c-0.3-0.3-1.2-0.2-1.8-0.2c0,0.8,0.1,1.6,0,2.4
	c-0.1,0.8-0.1,1.8-0.6,2.5c-1.6,2.4-3.4,4.6-5.2,6.9c0.8-3.7,1.3-7.3,3-10.3c1.8-3,4.7-5.4,7.6-8.5c-6.9,0.8-8.7,7.4-13.8,10.4
	c0.3-1.2,0.3-1.7,0.5-2.2c1-2.1,2.6-3.2,4.6-4.5c3.6-2.3,6.3-6,9.2-9.2c1.6-1.8,2.8-4,4.2-6c-0.3-0.2-0.6-0.4-0.9-0.6
	c-1.1,1-2.3,2-3.3,3.1c-1.1,1.1-2.1,2.3-3.2,3.4c1-2.8,2.1-5.5,2.8-8.2c0.2-1-0.4-2.6-1.2-3.5c-0.5-0.6-2-0.2-3.5-0.3
	c2.8,3.8,0.4,11.2-3.9,14.4c0-3.7,0-7.5,0-11.3c0-1.4,0.1-2.9-0.1-4.3c-0.1-0.5-0.7-0.9-1.1-1.3c-0.5,0.5-1.2,0.9-1.3,1.5
	c-0.2,1.3,0,2.6-0.2,3.9c-0.4,3.9-0.9,7.8-1.4,11.8c-0.5,0-0.9,0.1-1.4,0.1c-0.7-2.4-1.6-4.8-2.1-7.2c-0.5-2.5-0.6-5-0.9-7.9
	c-3.9,4.5-1.9,15.7,2.8,18.4c-0.4,0.9-0.8,1.7-1.6,3.3c-4.8-6.5-7.1-13.4-8.4-20.8c-0.5,0.1-1.1,0.1-1.6,0.2
	c-0.2,2.2-0.5,4.3-0.7,6.3c-0.6-0.1-1.5-0.3-2.3-0.5c0,1-0.2,2.1,0.1,3c1.2,2.9,2.7,5.7,4,8.6c-0.3,0.2-0.6,0.3-1,0.5
	c-0.5-0.6-1.1-1.2-1.5-1.9c-1.3-2.2-2.3-4.5-3.7-6.5c-0.6-0.8-1.9-1.2-2.9-1.7c0.1,1,0,2,0.4,2.9c1,2.4,2.1,4.9,3.4,7.1
	c2.7,4.6,5.1,9.4,10.1,12.4c-1.1,3-2.1,5.9-3.3,9.1c-1.4-1.2-2.6-1.7-3.1-2.5c-2.8-4.8-5.4-9.6-8.2-14.4c-0.7-1.2-1.6-2.4-2.3-3.5
	c-0.5,8.1,3.2,14.3,7.4,20.2c0.4,0.6,1.2,1,1.9,1.1c3.3,0.3,3.7,2.2,2.9,4.8c-1.3,4.6-2.6,9.3-3.9,13.9c-0.7,2.5-1.2,5.1-2,8.2
	c-1.3,0.7-3.2,1.7-5.2,2.8c-0.3-0.2-0.5-0.4-0.8-0.6c1.1-2.8,2.3-5.6,3.4-8.3c-4,0.7-5.4-0.2-7.2-4.7c-0.7-1.8-1.3-3.6-2.1-5.6
	c-1.9,2.6-0.8,7.4,1.9,10.9c-1.1,1.9-2.2,3.7-3.3,5.6c-0.5-0.9-0.9-1.6-1.4-2.4c-0.1,3.9-0.3,7.6-0.4,11.2c-0.4,0-0.9,0-1.3-0.1
	c-3-5.2,1.7-10.6-0.1-15.8c-2.6,5.9-4.9,11.7-3.7,18.8c-0.9,0.4-2.1,1-3.4,1.6c-1.4-5,4.3-9.9-1-14.8c-0.8,1.6-1.4,2.8-2,3.9
	c-3.1-1.3-4.3-0.7-4.7,2.7c-0.2,2-1,3-2.7,4.1c-2.9,1.8-5.9,3.2-9.1,4.6c-4.4,1.8-8.1,5.5-12.1,8.4c-1.2,0.9-2.5,1.5-3.8,2.2
	c-0.1,0-1-1.1-0.9-1.1c0.9-1.1,1.8-2.4,2.9-3.2c5.9-3.9,12-7.5,17.8-11.6c2.6-1.8,4.5-4.6,6.2-6.4c-2.5,0.6-5.2,1.2-7.9,1.8
	c-0.2,0-0.4,0.1-0.6,0.2c-4.5,2.5-9,5-13.5,7.4c-1.4,0.8-2.9,1.4-4.3,2.1c-0.2-0.3-0.4-0.6-0.6-0.9c0.7-0.9,1.3-2,2.2-2.6
	c1.4-0.9,3.1-1.2,4.4-2.1c3.1-1.9,6.1-4,9.2-6.1c0.2,0.3,0.3,0.5,0.5,0.8c-0.6,0.8-1.1,1.5-1.7,2.3c0.2,0.2,0.3,0.3,0.5,0.5
	c5.8-5.2,11.7-10.4,17.5-15.6c-0.1-0.3-0.2-0.6-0.2-0.9c-1.1,0.1-2.4-0.1-3.1,0.4c-6.4,4.6-12.5,9.8-20.6,12.3
	c-0.2-1.1-0.3-2.2-0.5-3.4c2.2,0,4,0,5.7,0c4.7-4.7,9.8-9.3,14.3-14.5c1.9-2.2,2.7-5.5,3.9-8.3c-0.4-0.3-0.8-0.5-1.1-0.8
	c-2.8,2.3-5.5,4.5-8.3,6.8c0.5-2.8-1.3-6.9,3.8-6.7c0.3,0,0.7-0.8,0.9-1.3c1.4-2.8,2.7-5.6,4.1-8.5c-5.9-0.2-5.3,6.4-9.5,8.4
	c-0.3-1.2-0.5-2.3-0.7-3.5c-0.3-1.6-0.1-3.5-0.9-4.8c-0.8-1.4-2.6-2.2-3.9-3.3c-0.7,1.5-1.8,2.9-1.9,4.4c-0.1,2.8,0.3,5.7,0.6,8.6
	c-0.3,0.1-0.6,0.1-0.8,0.2c-0.8-2.7-1.6-5.4-2.7-9c-3,5.5-0.1,10.4-0.9,15.9c-0.6-1.7-1-2.7-1.4-3.7c-0.4-1-0.7-2-1.1-3.1
	c-1.6,1.7-0.8,7.4,1.2,9.1c2.5,2,1.8,4.1-0.1,6.3c-1.7-4.8-2.9-9.8-4.1-14.7c-0.3-1-0.9-1.9-1.4-2.9c-0.5,0.2-1,0.3-1.5,0.5
	c1.3,7.2,2.7,14.4,4,21.7c-0.3,0-0.5,0.1-0.8,0.1c-1.5-5.5-3-11-4.5-16.6c-2.4,2.2,1,6.4-3.1,8.3c-0.6-2.9-1.1-5.5-1.7-8.1
	c-0.4,0.1-0.8,0.1-1.1,0.2c0,8,1.3,15.9,4.2,23.4c0.8,2,1.1,3-0.4,5c-2.4-6.7-4.6-13.1-6.8-19.4c-0.4,0.1-0.8,0.2-1.3,0.3
	c1.3,6,2.6,12,3.9,18c-0.3,0.1-0.5,0.2-0.8,0.3c-3.4-4.6-2.5-11.1-6-16.4c-0.3,1.1-0.7,1.6-0.6,2c1.5,6.3,3.1,12.7,4.7,19
	c0.6,2.2,1.7,3,3.8,1.3c-0.7,1.3-1.4,2.6-2.3,4.2c-5.5-4.5-4.5-11.6-7.6-17.2c-2,3.5-0.3,6.5,0.5,9.6c0.8,3.1,1.7,6.1,2.5,9.2
	c-1.1-0.1-1.9-0.4-2.1-1c-1.4-3.8-2.7-7.6-4.1-11.4c-0.3-0.9-1.1-1.6-1.7-2.4c-0.4,0.2-0.7,0.4-1.1,0.6c1.5,8,4.5,15.5,8.4,22.7
	c-2.5-3.7-2.5-3.7-4-2.3c-2.3-4.7-4.6-9.4-6.9-14.1c-0.3,0.1-0.5,0.2-0.8,0.3c0,1-0.4,2.3,0,3.1c2.6,5.7,5.1,11.6,8.3,17
	c1.2,2,1.2,3.1-0.3,5.4c-2.9-6.5-5.7-12.5-8.4-18.5c-0.8,1.1-1.3,2.3-1,3.3c0.7,2.4,1.7,4.7,2.7,7c1.5,3.3,3.1,6.5,4.7,9.8
	c-0.4,0.2-0.9,0.4-1.3,0.7c-2.5-4.9-5-9.9-7.8-15.5c-0.6,8.1,4.5,13.5,6.7,19.9c-0.4,0.2-0.7,0.3-1.1,0.5
	c-2.8-5.4-5.6-10.8-8.8-16.9c-2.1,4.4,0.8,7.1,2,10c1.3,3.1,2.8,6.1,4.2,9.1c-0.3,0.2-0.6,0.3-1,0.5c-0.6-0.8-1.2-1.5-1.7-2.3
	c-2-3.5-3.9-7.1-6.1-10.5c-0.4-0.7-2-1.1-2.8-0.9c-0.5,0.1-1.3,1.8-1.1,2.4c2.7,6.6,5.5,13.2,8.3,19.7c0.8,1.9,2.1,2.7,4.3,0.5
	c0,1.3,0.3,2.3,0,3c-0.6,1.1-1.5,2-2.3,3c-0.8-0.8-1.9-1.4-2.4-2.3c-2.3-4.1-4.4-8.3-6.7-12.4c-0.4-0.6-1.4-0.9-2.7-1.6
	c0.5,2.3,1.4,4.3,0.9,4.9c-2.6,2.8-0.5,4.8,0.7,7c-0.9-0.7-2-1.3-2.8-2.2c-1.5-1.5-2.7-3.2-4.1-4.8c-0.3,0.3-0.6,0.5-0.9,0.8
	c0.3,4.4,5.4,5.9,6.6,9.5c-2.5-0.2-4.8-0.5-7.6-1C12.3,161.4,15,165.4,17.7,169.5z M116.3,170.3c0.1,0.5,0.2,1,0.4,1.5
	c-2.3,0.4-4.6,0.8-6.8,1.3c-0.1-0.5-0.2-1-0.3-1.5C111.4,169.3,113.9,170.2,116.3,170.3z M71.3,174.5c6.3-0.8,14.4,2.3,15.5,6.2
	C81.2,178.5,76.3,176.5,71.3,174.5z M89.5,170.6c0,0.4-0.1,0.9-0.1,1.3c-1.1-0.1-2.4,0.1-3.4-0.4c-2.2-1.1-2.7-0.1-2.7,1.9
	c-3.2-0.9-6.3-1.8-9.5-2.7c-0.5-0.1-1.3-0.5-1.5-0.3c-3,2.9-3.9-0.3-5.3-2.4C74.5,168.9,82,169.8,89.5,170.6z M155.3,100.5
	c-5.9,0.4-11.4-1.4-17.3-3C142,95.3,145.1,95.9,155.3,100.5z M140.7,74.6c-0.2,3.4-0.4,6.8-0.6,10.3C137.4,81.3,140.2,78,140.7,74.6
	z M134,84.8c0.3-0.3,1.2,0.2,1.9,0.3c-0.2,0.8-0.1,1.9-0.6,2.2c-2,1.1-4.2,1.9-6.3,2.8c-0.1-0.1-0.2-0.3-0.3-0.4
	C130.4,88,132.1,86.3,134,84.8z M101.3,132.7c-2-2.3-3.6-4.2-5.3-6.3c4.5-2.5,5.3-2.1,5.9,1.7c0.1,0.7,0.5,1.4,0.7,2
	C102.3,130.7,102,131.3,101.3,132.7z M102.6,130.2c1.3,0.7,3,1.1,3.9,2.2c2.3,2.9,4.2,6.1,6.1,9.3
	C108.8,138.4,103.8,136,102.6,130.2z M153.8,132.4c1.4,0.2,2.9,0.1,4.5,0.2c0,0.3,0.3,1.6,0.3,2.9c0.1,1.9-1.2,1.9-2.4,1.3
	c-2.3-1-4.5-2.2-6.9-3.1c-0.8-0.3-1.9,0-2.9,0c0.5,0.7,0.9,1.9,1.6,2.1c4.3,1.5,4,5.6,5.6,8.9c-5-2.1-10.3-8.2-10.2-11.7
	c-3.5,2-3.8-1.3-5.8-3.4C143.6,130.6,148.7,131.6,153.8,132.4z M154.7,120c0.3,0.5,0.5,1,0.8,1.5c-3.1,1.5-6.1,3-9.2,4.5
	c-0.2-0.4-0.4-0.9-0.7-1.3C148.7,123.2,151.7,121.6,154.7,120z M147.8,116.6c-4.8,6.4-5.5,9.3-11.3,7.1c3.8-2.9,7.2-5.5,10.7-8.1
	C147.4,115.9,147.6,116.2,147.8,116.6z M144.3,117.6c-2.7,1.8-5.5,3.7-8.2,5.5C136,119.4,136,119.3,144.3,117.6z M122,127
	c4.6,0.7,9.2,1.4,13.9,2.2c-1.3,6.3,7.2,6.1,7.1,12.4c-5.3-4.2-10.1-8.1-15.4-12.3c0.2,1.9,0.3,3.3,0.5,4.7
	c-0.2,0.2-0.4,0.3-0.6,0.5c-2-2.1-4-4.2-5.9-6.4C121.7,127.7,121.8,127.3,122,127z M118.5,126.9c0.9,0.2,1.5,2.1,2.3,3.2
	c-0.3,0.3-0.7,0.5-1,0.8c-0.7-0.6-1.4-1.2-2.1-1.8c-0.6-0.4-1.3-0.8-2-1.1c-0.2,0.9-0.8,2-0.5,2.6c0.5,1,1.6,1.6,2.4,2.5
	c1.4,1.4,2.8,2.9,4.1,4.4c-0.4,0.3-0.7,0.6-1.1,1c-2.1-2.5-4.2-5.2-6.4-7.6c-0.9-0.9-2.4-1.7-3.5-1.6c-0.7,0.1-1.2,1.9-1.5,2.5
	c-1.3-1.5-3.6-3.9-5.8-6.4c0.1-0.3,0.2-0.5,0.3-0.8C108.5,125.2,113.6,125.8,118.5,126.9z M108.5,121.5c2.2-2.2,4.1-4.1,6.4-6.4
	C113.9,120.7,112.4,122.2,108.5,121.5z M124.1,84.4c-0.8,2.7-1.2,4.3-1.7,6c0.3,0.2,0.6,0.4,0.8,0.7c-1.6,1.4-3.2,2.7-4.7,4.1
	c-0.2-0.2-0.5-0.4-0.7-0.6C120.2,91.7,119.9,87.2,124.1,84.4z M115.7,100.7c3.3,0.2,6.6,0.5,9.9,0.7c0,0.5-0.1,0.9-0.1,1.4
	c-3.3-0.4-6.5-0.8-9.8-1.2C115.6,101.3,115.6,101,115.7,100.7z M115.1,106.8c1,0.4,3.1,2,3.8,1.5c-2.3,1.6-4.7,3.1-7.8,5.2
	C113.4,112,113.7,109.1,115.1,106.8z M112.1,109.7c0.2,0.2,0.4,0.3,0.5,0.5c-2.4,3.6-4.8,7.2-7.4,10.6c-0.4,0.6-1.9,0.3-2.9,0.4
	c0-1.4-0.6-3.5,0.1-4.1C105.5,114.4,108.9,112.1,112.1,109.7z M90.4,116c2.2-1.7,4.6-3.3,6.9-4.9c1.8-1.3,3.7-2.5,5.3-3.6
	c1.5,1.2,2.6,2.1,3.6,2.9c-1.2,1-2.5,1.9-3.5,3.1c-3.1,3.6-7.8,3.4-11.7,5c-0.3,0.1-1.3-0.4-1.3-0.6C89.7,117.2,89.9,116.4,90.4,116
	z M88.4,126.7c0.4,0.2,0,1.9,0,2.9c-0.3,0-0.7,0.1-1,0.1c-1-0.9-2-1.8-3.1-2.7c0.1-0.3,0.2-0.7,0.3-1
	C85.8,126.2,87.2,126.1,88.4,126.7z M84.6,105.4c0.3,0,0.6,0,0.9,0c0.3,2.7,0.6,5.3,1,8.7c-0.1,0.1-1,0.9-1.9,1.7
	c-0.4-0.1-0.8-0.2-1.3-0.3C83.8,112.2,84.2,108.8,84.6,105.4z M70.8,140.6c-3.1-0.2-6.3-0.3-9.4-0.5c0-0.5,0.1-0.9,0.1-1.4
	c3.1,0.1,6.3,0.3,9.4,0.4C70.8,139.6,70.8,140.1,70.8,140.6z M62,136.1C62,136,62,136.1,62,136.1C62.1,136.1,62,136.1,62,136.1z
	 M75.6,136.5c-4.5-0.2-8.9-0.2-13.4-0.4c-0.1-0.1-0.2-0.4-0.5-0.8c2.6-1.7,5.1-3.4,7.9-5.3c1.3,1.7,1.7,2.2,2.4,3
	c-2,0.3-4,0.4-5.9,0.7c0,0.3,0.1,0.8,0.1,1.1c3.2,0,6.4,0.1,9.5,0.1C75.8,135.6,75.7,136,75.6,136.5z M82.8,133.5
	c-2.9-1.3-5.7-2.5-8.5-3.8c-0.6-0.3-1.6-1.2-1.5-1.4c0.3-0.8,1-1.4,1-1.4c2.8,0.4,4.9,0.7,7.8,1.1C81.9,129.2,82.4,131.3,82.8,133.5
	z M72.3,120.9c-4.6,2.6-9,5.5-13.5,8.1c-0.2-0.2-0.2-0.2-0.2-0.2c5.1-3.4,10.2-6.8,15.2-10.2c0,0-0.7-1-0.9-1.4
	c-4.7-0.2-7.4,4.4-11.7,5.1c-0.2-0.3,0.4,0.6-0.8-1.1c7-4.7,13.9-9.3,21-14c-0.5,2.9-0.4,6.9-0.8,10.4c-0.1,0.6-0.8,1.3-1.4,1.7
	c-6.4,4.4-12.7,8.8-19.2,13.2c-0.9,0.6-1.8,1.2-2.7,1.8c-0.2-0.3-0.4-0.5-0.6-0.7c5.2-4.2,10.4-8.3,15.6-12.5
	C72.3,120.9,72.3,120.9,72.3,120.9z M71.9,104.8c0.2,0.3,0.3,0.5,0.5,0.8c-3.6,2.1-6.1,3.5-9.1,5.3
	C65.1,107.4,68.1,106.6,71.9,104.8z M52.6,115.1c2.5,1.3,3.8-0.9,5.5-1.8c1.4-0.8,2.9-1.4,4.4-2c-3.6,2.2-7.1,4.3-10.7,6.5
	c-0.3-0.3-0.5-0.5-0.8-0.8C51.6,116.3,52.5,115.1,52.6,115.1z M49,122.5c1.8-0.7,3.8-1.5,4.5,1.4c-1.3,0.2-2.6,0.6-4,0.7
	c-0.4,0-0.9-0.4-1.4-0.6C48.4,123.5,48.5,122.6,49,122.5z M48.1,133.3c0.6-0.6,1.3-1.1,2.1-1.3c1.7-0.5,3.4-0.7,4.9-1
	c-1.6,1.3-3.5,3-5.5,4.4c-0.6,0.4-1.7,0-2.6,0C47.4,134.7,47.6,133.8,48.1,133.3z M56.3,145.5c-1,1.4-2,2.7-3,4.1
	c-0.7-1.9-1.2-3.5-2-5.6C53.2,144.6,54.5,145,56.3,145.5z M56.6,149c1.7-2.8,5-3.9,8.5-2.6c-4.1,6-11.1,9.2-14.5,15.9
	c1.5-0.1,2.6-0.1,3.7-0.2c0.2,0.6,0.5,1.3,0.7,2.1c-3.5-0.1-6.9-0.1-10.3-0.2c0.1-0.8,0-1.3,0.1-1.4C50.4,159.5,53.4,154.2,56.6,149
	z M45.4,148.3c1.2,6-3.1,8.9-5.8,12.3c-3,3.9-4,3.9-9.7,2.9C35.2,158.4,40.2,153.5,45.4,148.3z M26.6,169.7c-2,1.7-4,3.4-6,5.1
	c-0.6-0.2-1.1-0.4-1.7-0.6C22.1,169.6,25.4,168.1,26.6,169.7z M19,154.4c1.6,2.9,3.2,5.9,4.7,8.9c0.1,0.2-0.5,0.8-1.1,1.5
	c-1.5-3.5-2.9-6.7-4.3-9.9C18.6,154.8,18.8,154.6,19,154.4z"/>
</svg>
