<svg xmlns="http://www.w3.org/2000/svg" width="146" height="47" viewBox="0 0 146 47"><g fill="#1A1818"><path d="M104.952 39.134C104.809685 39.2165135 104.681414 39.3211563 104.572 39.444 104.158252 39.9770857 103.543537 40.3166254 102.872 40.383 102.139 40.438 100.672 40.521 100.672 40.512 100.24 40.535 99.312 40.512 99.046 40.491 98.9661832 40.4858758 98.8917169 40.4490917 98.8391421 40.3888184 98.7865672 40.3285451 98.760237 40.2497733 98.766 40.17 98.775449 39.9861724 98.8720382 39.8178843 99.026 39.717 99.548 39.274 102.087 37.117 102.616 36.585 103.944331 35.3810441 104.495445 33.5397621 104.047 31.804 103.599746 30.2832406 102.376795 29.1155325 100.837 28.739 100.135415 28.6080071 99.4160201 28.6039427 98.713 28.727 97.7267803 28.8628786 96.7947014 29.25953 96.013 29.876 95.3718606 30.3884445 94.892037 31.0748492 94.631 31.853 94.4560536 32.3960242 94.3689567 32.9635045 94.373 33.534 94.3708225 33.6993765 94.3896394 33.864361 94.429 34.025 94.4762477 34.2141128 94.6437826 34.3485254 94.8386407 34.3536532 95.0334988 34.358781 95.2078713 34.233366 95.265 34.047 95.3058082 33.9200479 95.339198 33.7908297 95.365 33.66 95.5500779 32.6601705 96.2399639 31.8276147 97.188 31.46 98.2127029 30.9534705 99.4365282 31.0754816 100.341057 31.7743488 101.245586 32.4732161 101.672517 33.6266306 101.441 34.746 101.326107 35.4785219 101.041533 36.1740339 100.61 36.777 100.163695 37.4286791 99.6406026 38.0242927 99.052 38.551 98.532 39.027 97.912 39.481 97.368 39.93 96.6535227 40.4605147 95.9114863 40.9528691 95.145 41.405 94.9438383 41.5221161 94.7489081 41.6496219 94.561 41.787 94.3746414 41.939978 94.3083682 42.1957764 94.397 42.42 94.4556183 42.5885628 94.6188106 42.6979016 94.797 42.688 94.954 42.688 97.728 42.633 98.958 42.615 99.8 42.602 100.642 42.592 101.483 42.604 101.95 42.61 102.417 42.659 102.883 42.698 103.122 42.718 103.358 42.768 103.597 42.785 103.76528 42.7981551 103.924287 42.7063287 103.997 42.554 104.048852 42.4573666 104.093635 42.3571042 104.131 42.254 104.291832 41.773479 104.4974 41.3091102 104.745 40.867 104.981 40.467 105.211 40.067 105.438 39.667 105.510316 39.5281506 105.485752 39.3586139 105.377 39.246 105.280759 39.1112362 105.102158 39.0641696 104.952 39.134zM81.134 28.82C77.216092 28.82 74.04 31.996092 74.04 35.914 74.04 39.831908 77.216092 43.008 81.134 43.008 83.0354992 43.0643073 84.876493 42.3362458 86.2251396 40.9945968 87.5737861 39.6529478 88.3114148 37.8157664 88.265 35.914 88.2840942 34.0203239 87.5377174 32.1991713 86.1951396 30.8635596 84.8525618 29.5279479 83.0275511 28.791055 81.134 28.82zM80.917 41.238C78.1251955 41.1838068 75.9018509 38.8840418 75.942 36.092 75.942 32.768 78.036 30.778 81.073 30.821 83.7931709 30.9370036 85.9288231 33.1935668 85.895 35.916 85.9848943 38.7587283 83.7584115 41.138592 80.916 41.238L80.917 41.238zM63.306 35.341C63.319 35.333 63.846 35.106 64.09 34.989 65.9522849 34.2695884 67.1764145 32.4743842 67.166 30.478 67.1914326 29.842288 67.1023485 29.2071827 66.903 28.603 66.6977782 27.9910064 66.3438642 27.4395191 65.873 26.998 65.3384935 26.5098502 64.7016341 26.147346 64.009 25.937 63.4295427 25.7524558 62.8298201 25.6389585 62.223 25.599 61.7510038 25.5598884 61.2764617 25.5629003 60.805 25.608 59.3909858 25.7467861 58.0680216 26.3687135 57.059 27.369 56.1038051 28.3983087 55.6198107 29.7785624 55.723 31.179 55.8011361 32.2749358 56.1618536 33.331938 56.77 34.247 57.3409997 35.0728974 58.0484401 35.7955551 58.862 36.384 59.016 36.494 59.017 36.521 58.854 36.616 58.366 36.902 57.883 37.194 57.427 37.525 57.0300484 37.8054793 56.6631044 38.1261783 56.332 38.482 55.1376935 39.9332214 54.8383535 41.9236986 55.553 43.662 55.938 44.537 57.311 46.491 61.016 46.487 61.791921 46.5031527 62.5642656 46.3774222 63.295 46.116 64.7210774 45.6301154 65.8898515 44.5878396 66.5352104 43.2264827 67.1805693 41.8651258 67.2475853 40.3005554 66.721 38.889 66.0464612 37.3604012 64.8284319 36.1366702 63.303 35.455 63.239 35.418 63.244 35.379 63.306 35.341zM64.083 44.03C63.6878278 44.6783985 63.0793825 45.1691144 62.362 45.418 61.9485488 45.5641268 61.5135092 45.6398447 61.075 45.642 60.5383287 45.6555974 60.0069098 45.5334914 59.53 45.287 58.4364903 44.6425235 57.6718694 43.5600388 57.43 42.314 57.1966329 41.4174935 57.2630098 40.4692515 57.619 39.614 57.990473 38.8582848 58.5424024 38.2057235 59.226 37.714 59.458 37.535 59.697 37.364 59.933 37.19 60.049 37.105 60.085 37.105 60.205 37.178 60.616 37.427 61.028 37.678 61.439 37.922 62.0146707 38.2601359 62.5615186 38.6451035 63.074 39.073 64.6586158 40.2056288 65.0993981 42.3698261 64.084 44.032L64.083 44.03zM62.914 34.554C62.714 34.654 62.507 34.734 62.305 34.827 62.1992974 34.8808947 62.0731793 34.8759711 61.972 34.814 61.623 34.614 61.272 34.427 60.922 34.223 60.241 33.783 57.639 32.281 57.88 29.891 57.8949003 29.3941073 57.9932726 28.90326 58.171 28.439 58.5361324 27.4318017 59.4404572 26.7184932 60.505 26.598 61.1998375 26.5080283 61.906075 26.6075373 62.549 26.886 62.9254653 27.0433616 63.2763316 27.2560385 63.59 27.517 65.19 28.808 65.096 30.676 64.838 32.145 64.6146054 33.2077386 63.9008642 34.10177 62.914 34.555L62.914 34.554zM46.325 41.414C45.3804151 41.1388966 44.7858824 40.2064642 44.935 39.234 44.894 37.655 44.954 33.534 44.987 32.294 45.019 30.714 45.353 30.282 46.329 29.939 46.85 29.767 47.045 29.561 47.045 29.286 47.045 28.977 46.785 28.943 46.329 28.943 45.418 28.943 44.604 29.022 43.693 29.022 42.493 29.022 41.638 28.977 41.02 28.977 40.499 28.977 40.229 29.008 40.206 29.286 40.178 29.628 40.466 29.836 41.117 30.042 42.317 30.385 42.329 31.935 42.347 32.7 42.379 34.085 42.315 38.306 42.184 39.317 41.976 40.923 42.093 41.309 40.596 41.687 40.108 41.824 40.018 42.104 40.018 42.276 40.018 42.551 40.108 42.718 40.824 42.718 41.41 42.718 42.484 42.666 43.558 42.666 44.567 42.666 45.303 42.766 46.28 42.766 46.605 42.766 47.18 42.637 47.18 42.166 47.183 41.893 47.009 41.586 46.325 41.414z"/><polygon points="145.5 .09 143.542 .09 143.514 11.677 130.847 0 130.838 16.071 132.872 16.071 132.852 4.771 145.5 16.171"/><path d="M106.164,16.071 L108.398,16.071 L111.274,10.855 L119.12,10.855 L122.031,16.071 L124.182,16.071 L115.227,0.09 L106.164,16.071 Z M112.164,8.903 L115.218,3.452 L118.212,8.903 L112.164,8.903 Z"/><polygon points="98.437 16.07 100.344 16.07 97.262 .089 89.754 12.7 82.246 .089 79.164 16.071 81.071 16.071 83.066 4.771 89.754 16.171 96.442 4.771"/><polygon points="71.844 .09 68.886 .09 61.42 6.098 61.42 .09 59.511 .09 59.511 16.072 61.42 16.072 61.42 8.635 69.595 16.072 72.543 16.072 62.863 7.26"/><polygon points="19.812 16.071 30.435 16.071 30.435 14.033 21.655 14.033 21.655 8.719 30.267 8.719 30.267 6.673 21.655 6.673 21.655 2.137 30.511 2.137 30.511 .089 19.811 .089"/><polygon points="39.678 16.071 50.304 16.071 50.304 14.033 41.527 14.033 41.527 8.719 50.138 8.719 50.138 6.673 41.527 6.673 41.527 2.137 50.381 2.137 50.381 .089 39.678 .089"/><path d="M9.086,7.428 C10.039775,6.68276202 10.6054623,5.54624161 10.625,4.336 C10.625,2.002 8.444,0.086 5.778,0.089 L4.4408921e-16,0.0889964818 L4.4408921e-16,16.07 L6.039,16.07 C9.028,16.07 11.466,13.953 11.466,11.341 C11.4245306,9.70636556 10.5184221,8.21661668 9.086,7.428 Z M1.844,2.046 L5.778,2.046 C7.416,2.046 8.745,3.092 8.745,4.336 C8.55769858,5.67209445 7.3934671,6.65220487 6.045,6.609 C5.958,6.615 5.873,6.63 5.784,6.63 L1.844,6.63 L1.844,2.046 Z M6.039,14.11 L1.839,14.11 L1.839,8.58 L5.778,8.58 C5.866,8.58 5.952,8.573 6.039,8.568 C8.026,8.568 9.59,9.806 9.59,11.339 C9.59,12.837 7.985,14.11 6.039,14.11 Z"/></g></svg>