<?xml version="1.0" encoding="utf-8"?>
<!-- Generator: Adobe Illustrator 22.0.1, SVG Export Plug-In . SVG Version: 6.00 Build 0)  -->
<svg version="1.1" xmlns="http://www.w3.org/2000/svg" xmlns:xlink="http://www.w3.org/1999/xlink" x="0px" y="0px"
	 viewBox="0 0 216 216" style="enable-background:new 0 0 216 216;" xml:space="preserve">
<style type="text/css">
	.st0{display:none;}
	.st1{display:inline;fill:url(#SVGID_1_);}
	.st2{display:inline;fill:url(#SVGID_2_);}
	.st3{display:inline;fill:url(#SVGID_3_);}
	.st4{fill:url(#SVGID_4_);}
</style>
<g id="bottom_left" class="st0">
	<linearGradient id="SVGID_1_" gradientUnits="userSpaceOnUse" x1="9.3744" y1="107.8384" x2="206.5139" y2="107.8384">
		<stop  offset="0" style="stop-color:#A6894B"/>
		<stop  offset="1" style="stop-color:#ECCA7A"/>
	</linearGradient>
	<path class="st1" d="M17.7,169.5c-2.3,2.1-2.3,2.4-2.9,3.4c-0.5,0.8-0.9,2-1.2,3c1.1,0.2,2.2,0.7,3.2,0.5c1.4-0.3,2.6-1,3.9-1.6
		c0,0,0,0-0.1,0c2.5-0.5,4,0.7,5.4,2.7c2.1,3,4.2,6,6.4,9c0.3,0.5,0.8,0.8,1.3,1.2c0.2-0.1,0.4-0.2,0.6-0.4
		c-0.6-1.5-1.3-2.9-2.2-4.9c2,2.1,3.4,3.9,5,5.5c0.2-0.2,0.3-0.3,0.2-0.3c-3-4.5-6-8.9-9-13.4c0-0.1,0.7-0.7,0.9-0.9
		c4.9,5.2,8.4,12.2,16.1,14.1c-6.5-5.6-12.3-11.7-16.2-20.5c1.6,1.4,2.8,2,3.5,3c1.6,2.2,2.8,4.9,4.7,6.9c2.8,2.9,5.9,5.6,9.1,8
		c0.8,0.6,2.6,0,3.9-0.1c-0.7-1-1.2-2.1-2.1-2.9c-3-2.6-6.2-4.9-9-7.7c-1.7-1.7-2.7-3.9-4.1-6c1.6,0,2.7-0.1,3.7,0.1
		c1.3,0.3,3.4,0.5,3.8,1.4c1.5,3.1,4.2,4.6,6.9,6.3c2.2,1.4,4,3.3,6.1,4.9c2.4,1.8,4.8,3.6,7.3,5.3c0.2-0.3,0.5-0.7,0.7-1
		c-6.6-5.9-13.2-11.8-20.1-17.9c2.1,0.2,4.5-0.3,5.9,0.7c2.3,1.5,3.8,4.1,5.8,6.1c3.6,3.5,7.2,7,11,10.3c0.7,0.6,2.1,0.5,3.1,0.7
		c0.1-0.4,0.2-0.7,0.2-1.1c-2.4-1.8-4.7-3.6-7.1-5.4c1.2-0.2,2,0,2.8,0.4c4.1,2.5,8.1,5.1,12.3,7.5c1,0.6,2.4,0.4,3.7,0.6
		c0.1-0.4,0.2-0.7,0.2-1.1c-8.9-2.9-15.5-9-22.3-14.9c2-1.1,3.6-1.9,5.6-3c0.3,1.3,0.4,2.6,0.8,3.9c0.3,0.9,0.5,2,1.2,2.6
		c2,1.7,4.3,3.2,6.4,4.7c0.6,0.4,1.3,0.7,2.1,1.2c-0.1-1-0.2-1.6-0.3-2.4c5.9,2.4,11.5,4.7,17,7c0.1-0.2,0.2-0.5,0.3-0.7
		c-1.4-1.8-2.8-3.7-4.2-5.5c0.2-0.2,0.5-0.4,0.7-0.6c3.5,1.4,6.9,2.8,10.6,4.3c-0.3-1.2-0.6-2.2-0.8-3.2c2.7,0.5,5.2,0.9,7.6,1.3
		c0.1-0.4,0.2-0.7,0.2-1.1c-1.5-0.7-3-1.3-4.9-2.2c3.4-0.2,6.2-0.3,8.3-0.4c0.8,2,1.4,3.5,2,5c0.2-0.1,0.3-0.1,0.5-0.2
		c-0.1-0.9-0.3-1.9-0.4-3.1c2.1,1.1,3.9,2.1,5.7,3.1c0.1-0.2,0.2-0.4,0.3-0.5c-1.3-1.2-2.6-2.3-4.2-3.9c2-0.1,3.2-0.1,4.6-0.2
		c-0.3-0.8-0.5-1.4-1.1-3.1c2.8,0.9,4.9,1.6,6.9,2.3c1.9,0.6,3.1,1,5.8,1.9c0.1-0.3,0.2-0.6,0.3-0.9c-3.9-1.8-8.1-3.6-12.2-5.4
		c2.5-2.8,5-1.1,8.4,0.5c-1.3-2.4-2.1-4-2.7-5.1c-3.4,0.2-6.3,0.4-9.9,0.6c1.5-1.9,2.5-3.1,3.8-4.8c-3.1,1.1-3.8,4.8-7.5,4.6
		c1.8-1.5,3.1-2.6,4.3-3.8c0.3-0.3,0.1-1.1,0.1-1.7c-0.6,0-1.4-0.1-1.8,0.2c-1.4,1-2.7,2.2-4,3.4c-1.9,1.6-3.8,2.3-6.9,0.7
		c4.1-2.3,7.6-4.2,11.1-6.2c-0.2-0.4-0.4-0.8-0.6-1.2c-2.2,0.9-4.3,1.9-6.4,3c-3.5,1.8-6.5,4.3-10,6.2c-0.2-0.4-0.3-0.5-0.3-0.6
		c4.7-3.2,9.5-6.3,14.2-9.5c0,0-0.8-1.4-1-1.8c-1.8,0.8-4.1,1.9-5.8,1.7c-2.7-0.2-3.6,1.6-5.2,2.7c-1.6,1.1-3.1,2.2-4.7,3.4
		c-0.3-0.4-0.7-0.9-1-1.3c4.6-3.5,9.1-6.9,13.7-10.4c-1.4-0.3-2.7-0.1-3.8,0.5c-4.7,3.1-9.4,6.2-13.9,9.6c-0.9,0.7-1.1,2.4-1.7,3.9
		c-0.8-0.1-2.1-0.3-4.4-0.6c1.5-1,2.5-1.3,2.8-2c3.1-5.2,7.6-8.8,12.5-12.2c1.5-1,2.7-2.5,4-3.8c-0.4-0.4-0.7-0.9-1.1-1.3
		c-3.8,2.9-7.6,5.8-11.3,8.7c-0.3-0.3-0.7-0.5-1-0.8c0.9-1.2,1.8-2.5,3-4.1c-3.6-1.2-4.7,1.8-6.6,3.1c-2.1,1.5-4.1,3.3-6.1,5
		c-0.2-0.2-0.3-0.4-0.5-0.6c1.4-1.3,2.7-2.6,4.1-4c-0.2-0.2-0.4-0.4-0.6-0.6c-1.8,1.7-3.6,3.4-5.5,5c-1.9,1.6-4,3.1-6,4.6
		c-0.1-0.2-0.2-0.3-0.4-0.5c4.3-3.7,8.6-7.4,12.9-11.1c-0.1-0.2-0.3-0.5-0.4-0.7c-0.8,0.4-1.8,0.7-2.5,1.2
		c-4.2,3.2-8.2,6.6-12.4,9.8c-1.4,1-3.1,1.5-4.7,2.3c0.8-1.7,1.4-3.5,2.5-4.9c3-3.8,6.3-7.4,9.5-11c-0.2-0.2-0.3-0.4-0.4-0.6
		c-1.2,0.6-2.3,1.2-3.6,1.8c-0.8-0.7-1.5-1.4-2.3-2c0.8-1.2,1.7-2.4,2.4-3.4c1.1-0.1,1.4,0.5,4.4-0.6c-0.9-1.4-1.5-2.2-2-3
		c4.2-1.2,10.6-0.6,15.5,3c0.2-0.5,0.2-0.9,0.5-1.4c-1.7-1.7-3.5-3.3-5.2-5c-0.9-0.9-2.8-1.6-0.8-3.3c0,0,0,0-0.1,0
		c1,0.1,2.3-0.1,2.9,0.4c1.9,1.5,3.5,3.3,5.3,5c1.9,1.9,3.9,3.7,5.8,5.5c0.4-0.2,0.7-0.4,1.1-0.6c-0.7-1.4-1.3-2.9-2.2-4.2
		c-1-1.4-2.5-2.4-3.6-3.7c-1.1-1.3-2-2.9-2.9-4.3c0.3-0.2,0.6-0.5,0.9-0.7c4.6,5,9.2,10,13.8,15c0.3-0.2,0.7-0.4,1-0.7
		c-2-3.4-3.9-6.8-5.9-10.1c3.9,2.3,7.2,5.1,10.4,7.9c1.6,1.4,3,2.5,4.5,0.5c1.6,1.3,3,2.5,4.4,3.7c0.3-0.2,0.6-0.5,0.8-0.7
		c-1.1-2.3-2.1-4.6-3.2-6.9c0.3-0.2,0.6-0.4,1-0.6c2,1.8,3.9,3.7,5.9,5.4c0.5,0.4,1.5,0.2,2.3,0.3c-0.1-0.7,0-1.4-0.2-2.1
		c-0.1-0.5-0.4-1-0.7-1.5c0.1-0.1,0.3-0.2,0.4-0.3c2.3,2.5,4.7,4.8,6.9,7.2c0.3-0.2,1.2-0.9,1.2-0.9c-2.5-3.8-5.1-7.6-7.6-11.4
		c0,0,0.3-0.2,0.6-0.4c4.8,5.2,9.4,10.5,14.2,15.7c0.3-0.2,0.6-0.4,1-0.6c-0.6-1.3-1.1-2.6-1.8-3.8c-0.7-1.2-1.6-2.4-2.5-3.8
		c5,0.1,8.2,2.5,11.3,5.2c2.9,2.5,5.7,5.7,10.4,3.6c1-2.3-5.3-3.3-1.3-5.8c-1.2-1.6-2.2-3-3.3-4.4c0.1-0.2,0.3-0.3,0.4-0.5
		c4.5,2.1,8.9,4.1,13.7,6.3c0.3-3.8-4.1-4.5-5.1-7.6c5.1-0.8,6.6,4.8,10.5,5.7c0.2-0.2,0.5-0.5,0.7-0.7c-1.6-2.1-3.1-4.2-4.7-6.2
		c2.2,0.5,3.9,2,5.9,2.8c2,0.8,4.3,1,7.3,1.6c-0.7-2-1-3.1-1.4-4.2c3-0.9,2.5-3.7,1.9-5.4c-0.7-1.9-2.2-4-5.3-3.3
		c-1.7,0.4-3.6-0.1-5.4-0.1c0-0.3,0-0.6,0-0.9c2.5-1.2,5-2.4,7.6-3.7c-0.2-0.5-0.3-0.9-0.5-1.4c-2.7,0.5-5.9,0.3-8,1.8
		c-3.4,2.4-7,2.8-11.2,2.9c4-5,9.8-5.9,14.9-8.4c-3.3-0.8-6.3-0.2-9.1,1.2c-3.8,1.9-7.2,4.9-12.2,4c4.7-2.6,9.4-5.1,14.1-7.7
		c-0.2-0.4-0.4-0.8-0.5-1.2c-3,1.1-6,2.2-9,3.2c-0.1-0.2-0.1-0.3-0.2-0.5c1.4-0.7,2.7-1.3,4.4-2.1c-1-0.8-1.7-1.3-2.1-1.7
		c-4.7,2-9,3.9-13.4,5.7c-0.1-0.2-0.2-0.3-0.4-0.4c1.8-2.5,3.5-5,5.8-8.2c-3.9,0.5-7.2,1.2-10.6,1.6c-1,0.1-2,0.3-2.7,0.8
		c-3.7,2.5-7.5,5-11.2,7.5c-0.1,0-0.6-0.6-0.7-0.6c1.5-1.7,2.6-3.9,4.4-5.2c1.9-1.5,4.2-2.5,6.4-3.5c0.3-0.1,0.8,0.4,1.3,0.6
		c0.6-0.9,1.1-1.8,1.7-2.6c-0.1-0.3-0.2-0.6-0.3-0.9c-2.3,0.4-5.2,0.1-6.9,1.3c-4.6,3.3-8.7,7.3-13,11c0.1,0.7-0.4,0.8-0.8,0.7
		c-0.5-0.1-1-0.4-1.5-0.6c2-6,6.2-10.1,10.9-13.8c-6.1-0.4-8.2,5.5-12.8,7.6c0.8-1.7,1.7-3.5,3.1-4.6c1.4-1.2,1.2-2,0.2-3
		c1.8-0.4,4.3-0.4,5-1.4c1.8-2.8,4.9-3.1,7.1-3.5c5.9-1.1,12-0.9,17.9-1.3c2.3-0.1,4.6-0.1,6.8-0.3c0.9-0.1,1.7-0.9,2.9-1.5
		c1.7-0.1,4-0.2,6.3-0.2c-5.2-2-10.3-3.4-15.4-4.8c-2.9-0.8-5.1-3.8-8.8-1c-1.8,1.3-5.1,1-7.7,0.8c-2.7-0.1-3.5,1-2.9,3.9
		c-2-0.3-3.6-0.5-5.3-0.7c2.3-2.4,4.1-4.5,6.2-6.4c2.8-2.7,6.8-2.3,9.8-3.8c3.5-1.8,8.4-1.1,10.5-5.4c0.1-0.2,0.6-0.2,0.9-0.3
		c1.7-0.5,3.4-1,5.2-1.5c2.8-0.9,5.6-2.4,8.5-2.5c3.6-0.1,7.3,1.1,10.9,1.7c4.9,0.8,9.7,1.5,14.6,2.3c0.1-0.4,0.2-0.8,0.2-1.2
		c-7.1-1.5-14.3-3-21.4-4.5c2.2-1.6,4.2-2.5,6.4-3.1c0.6-0.2,1.4,0.7,2.1,1.1c-0.3,0.4-0.6,0.8-0.9,1.1c8.3,3.3,16.6,4,24.9,1.2
		c0-0.5,0.1-1,0.1-1.5c-7.2-0.9-14.3-1.9-21.5-2.8c0-0.4,0.1-0.8,0.1-1.2c3.4,0.3,6.8,0.8,10.2,0.9c3.6,0.1,7.1-0.4,10.7-0.6
		c0-0.3,0-0.6,0-1c-2.4-0.3-4.9-0.6-7.3-0.9c0-0.2,0-0.4,0-0.7c3.6-1,7.2-2,11.1-3.1c0-1.1-0.1-2.3-0.1-4.1
		c-5.3,4.6-11.3,4.6-16.7,6.1c-0.5,0.1-1.3-0.8-2-1.2c0.6-0.3,1.2-0.8,1.9-1c0.7-0.3,1.7-0.1,2.3-0.5c3.6-2.8,7.1-5.6,10.7-8.5
		c-0.1-0.3-0.3-0.6-0.4-0.8c-4.8,0-8.1,4.5-12.9,5.7c1.8-2.8,3.4-5.2,5-7.6c-0.4-0.4-0.8-0.8-1.2-1.2c-1.3,1.1-2.9,1.9-3.9,3.2
		c-1.5,2-2.5,4.4-4,6.4c-1.3,1.6-3,2.9-4.5,4.4c-0.3-0.3-0.6-0.6-0.9-0.9c2.3-3.3,4.5-6.6,6.8-9.9c-0.3-0.3-0.7-0.5-1-0.8
		c-1.9,1.8-3.9,3.7-6.1,5.8c0.4-2.4,0.6-4.3,1-6.3c-0.5-0.1-1.4-0.4-1.5-0.3c-2.6,4.4-4.9,8.3-7.5,13.4c-0.2-0.1-0.4-0.1-0.6-0.2
		c1.1-4.1,1.9-7.4,2.9-11c-0.3-0.2-0.6-0.5-0.9-0.6c-0.9,1.1-2.2,2-2.7,3.2c-1.4,3.9-2.4,7.9-3.7,11.9c-0.4,1.1-1.2,2.1-1.8,3.2
		c-0.4-0.2-0.8-0.4-1.2-0.6c1.5-5.3,3-10.7,4.5-16c-0.2-0.2-0.4-0.4-0.6-0.6c-1.3,1.4-2.6,2.7-3.8,4.1c-1.4,0.2-2.5,0.8-3.5,1.5
		c-3.1,2-3.2,5.6-4.1,8.6c-0.6,1.9-1.3,3.7-2,5.6c-0.3-0.1-0.7-0.2-1-0.3c0.2-1.7,0.4-3.3,0.8-5c0.7-3.2,1.7-6.3,2.3-9.5
		c0.1-0.8-0.8-1.8-1.1-2.6c-2.2,4.2-4.1,7.8-6.4,12c-0.2-2-0.4-3.2-0.5-4.4c-0.3-0.1-0.6-0.3-0.9-0.4c-0.6,1-1.7,2-1.8,3
		c-0.1,3.2,0.2,6.5,0.3,9.8c0,0.9-0.4,1.8-0.6,2.7c-0.5-0.1-1-0.1-1.5-0.2c0.1-4,0.2-8,0.2-12.1c-0.8-0.3-1.6-0.6-2.8-1
		c1.1-1.8,2-3.3,2.9-5c-3.5,0.2-8.6,6.6-9,11.2c0.7-0.2,1.4-0.3,1.9-0.4c-0.3,2,0,4.5-1,5.8c-1.8,2-4.5,3.3-6.9,4.8
		c-0.1-0.2-0.3-0.3-0.4-0.5c1.4-2,2.9-4,4.3-6.1c-0.4-0.3-0.7-0.7-1.1-1c-2,2-3.9,4-5.9,6c-0.3-0.2-0.5-0.4-0.8-0.6
		c1-1.8,1.9-3.7,3.2-5.3c1.5-1.8,3.5-3.1,5-4.9c1.6-1.8,2.5-4.5,4.4-5.8c3.6-2.6,3-6.9,4.9-10.1c0.3-0.5-0.6-1.8-1.1-2.4
		c-0.3-0.3-1.2-0.2-1.8-0.2c0,0.8,0.1,1.6,0,2.4c-0.1,0.8-0.1,1.8-0.6,2.5c-1.6,2.4-3.4,4.6-5.2,6.9c0.8-3.7,1.3-7.3,3-10.3
		c1.8-3,4.7-5.4,7.6-8.5c-6.9,0.8-8.7,7.4-13.8,10.4c0.3-1.2,0.3-1.7,0.5-2.2c1-2.1,2.6-3.2,4.6-4.5c3.6-2.3,6.3-6,9.2-9.2
		c1.6-1.8,2.8-4,4.2-6c-0.3-0.2-0.6-0.4-0.9-0.6c-1.1,1-2.3,2-3.3,3.1c-1.1,1.1-2.1,2.3-3.2,3.4c1-2.8,2.1-5.5,2.8-8.2
		c0.2-1-0.4-2.6-1.2-3.5c-0.5-0.6-2-0.2-3.5-0.3c2.8,3.8,0.4,11.2-3.9,14.4c0-3.7,0-7.5,0-11.3c0-1.4,0.1-2.9-0.1-4.3
		c-0.1-0.5-0.7-0.9-1.1-1.3c-0.5,0.5-1.2,0.9-1.3,1.5c-0.2,1.3,0,2.6-0.2,3.9c-0.4,3.9-0.9,7.8-1.4,11.8c-0.5,0-0.9,0.1-1.4,0.1
		c-0.7-2.4-1.6-4.8-2.1-7.2c-0.5-2.5-0.6-5-0.9-7.9c-3.9,4.5-1.9,15.7,2.8,18.4c-0.4,0.9-0.8,1.7-1.6,3.3
		c-4.8-6.5-7.1-13.4-8.4-20.8c-0.5,0.1-1.1,0.1-1.6,0.2c-0.2,2.2-0.5,4.3-0.7,6.3c-0.6-0.1-1.5-0.3-2.3-0.5c0,1-0.2,2.1,0.1,3
		c1.2,2.9,2.7,5.7,4,8.6c-0.3,0.2-0.6,0.3-1,0.5c-0.5-0.6-1.1-1.2-1.5-1.9c-1.3-2.2-2.3-4.5-3.7-6.5c-0.6-0.8-1.9-1.2-2.9-1.7
		c0.1,1,0,2,0.4,2.9c1,2.4,2.1,4.9,3.4,7.1c2.7,4.6,5.1,9.4,10.1,12.4c-1.1,3-2.1,5.9-3.3,9.1c-1.4-1.2-2.6-1.7-3.1-2.5
		c-2.8-4.8-5.4-9.6-8.2-14.4c-0.7-1.2-1.6-2.4-2.3-3.5c-0.5,8.1,3.2,14.3,7.4,20.2c0.4,0.6,1.2,1,1.9,1.1c3.3,0.3,3.7,2.2,2.9,4.8
		c-1.3,4.6-2.6,9.3-3.9,13.9c-0.7,2.5-1.2,5.1-2,8.2c-1.3,0.7-3.2,1.7-5.2,2.8c-0.3-0.2-0.5-0.4-0.8-0.6c1.1-2.8,2.3-5.6,3.4-8.3
		c-4,0.7-5.4-0.2-7.2-4.7c-0.7-1.8-1.3-3.6-2.1-5.6c-1.9,2.6-0.8,7.4,1.9,10.9c-1.1,1.9-2.2,3.7-3.3,5.6c-0.5-0.9-0.9-1.6-1.4-2.4
		c-0.1,3.9-0.3,7.6-0.4,11.2c-0.4,0-0.9,0-1.3-0.1c-3-5.2,1.7-10.6-0.1-15.8c-2.6,5.9-4.9,11.7-3.7,18.8c-0.9,0.4-2.1,1-3.4,1.6
		c-1.4-5,4.3-9.9-1-14.8c-0.8,1.6-1.4,2.8-2,3.9c-3.1-1.3-4.3-0.7-4.7,2.7c-0.2,2-1,3-2.7,4.1c-2.9,1.8-5.9,3.2-9.1,4.6
		c-4.4,1.8-8.1,5.5-12.1,8.4c-1.2,0.9-2.5,1.5-3.8,2.2c-0.1,0-1-1.1-0.9-1.1c0.9-1.1,1.8-2.4,2.9-3.2c5.9-3.9,12-7.5,17.8-11.6
		c2.6-1.8,4.5-4.6,6.2-6.4c-2.5,0.6-5.2,1.2-7.9,1.8c-0.2,0-0.4,0.1-0.6,0.2c-4.5,2.5-9,5-13.5,7.4c-1.4,0.8-2.9,1.4-4.3,2.1
		c-0.2-0.3-0.4-0.6-0.6-0.9c0.7-0.9,1.3-2,2.2-2.6c1.4-0.9,3.1-1.2,4.4-2.1c3.1-1.9,6.1-4,9.2-6.1c0.2,0.3,0.3,0.5,0.5,0.8
		c-0.6,0.8-1.1,1.5-1.7,2.3c0.2,0.2,0.3,0.3,0.5,0.5c5.8-5.2,11.7-10.4,17.5-15.6c-0.1-0.3-0.2-0.6-0.2-0.9
		c-1.1,0.1-2.4-0.1-3.1,0.4c-6.4,4.6-12.5,9.8-20.6,12.3c-0.2-1.1-0.3-2.2-0.5-3.4c2.2,0,4,0,5.7,0c4.7-4.7,9.8-9.3,14.3-14.5
		c1.9-2.2,2.7-5.5,3.9-8.3c-0.4-0.3-0.8-0.5-1.1-0.8c-2.8,2.3-5.5,4.5-8.3,6.8c0.5-2.8-1.3-6.9,3.8-6.7c0.3,0,0.7-0.8,0.9-1.3
		c1.4-2.8,2.7-5.6,4.1-8.5c-5.9-0.2-5.3,6.4-9.5,8.4c-0.3-1.2-0.5-2.3-0.7-3.5c-0.3-1.6-0.1-3.5-0.9-4.8c-0.8-1.4-2.6-2.2-3.9-3.3
		c-0.7,1.5-1.8,2.9-1.9,4.4c-0.1,2.8,0.3,5.7,0.6,8.6c-0.3,0.1-0.6,0.1-0.8,0.2c-0.8-2.7-1.6-5.4-2.7-9c-3,5.5-0.1,10.4-0.9,15.9
		c-0.6-1.7-1-2.7-1.4-3.7c-0.4-1-0.7-2-1.1-3.1c-1.6,1.7-0.8,7.4,1.2,9.1c2.5,2,1.8,4.1-0.1,6.3c-1.7-4.8-2.9-9.8-4.1-14.7
		c-0.3-1-0.9-1.9-1.4-2.9c-0.5,0.2-1,0.3-1.5,0.5c1.3,7.2,2.7,14.4,4,21.7c-0.3,0-0.5,0.1-0.8,0.1c-1.5-5.5-3-11-4.5-16.6
		c-2.4,2.2,1,6.4-3.1,8.3c-0.6-2.9-1.1-5.5-1.7-8.1c-0.4,0.1-0.8,0.1-1.1,0.2c0,8,1.3,15.9,4.2,23.4c0.8,2,1.1,3-0.4,5
		c-2.4-6.7-4.6-13.1-6.8-19.4c-0.4,0.1-0.8,0.2-1.3,0.3c1.3,6,2.6,12,3.9,18c-0.3,0.1-0.5,0.2-0.8,0.3c-3.4-4.6-2.5-11.1-6-16.4
		c-0.3,1.1-0.7,1.6-0.6,2c1.5,6.3,3.1,12.7,4.7,19c0.6,2.2,1.7,3,3.8,1.3c-0.7,1.3-1.4,2.6-2.3,4.2c-5.5-4.5-4.5-11.6-7.6-17.2
		c-2,3.5-0.3,6.5,0.5,9.6c0.8,3.1,1.7,6.1,2.5,9.2c-1.1-0.1-1.9-0.4-2.1-1c-1.4-3.8-2.7-7.6-4.1-11.4c-0.3-0.9-1.1-1.6-1.7-2.4
		c-0.4,0.2-0.7,0.4-1.1,0.6c1.5,8,4.5,15.5,8.4,22.7c-2.5-3.7-2.5-3.7-4-2.3c-2.3-4.7-4.6-9.4-6.9-14.1c-0.3,0.1-0.5,0.2-0.8,0.3
		c0,1-0.4,2.3,0,3.1c2.6,5.7,5.1,11.6,8.3,17c1.2,2,1.2,3.1-0.3,5.4c-2.9-6.5-5.7-12.5-8.4-18.5c-0.8,1.1-1.3,2.3-1,3.3
		c0.7,2.4,1.7,4.7,2.7,7c1.5,3.3,3.1,6.5,4.7,9.8c-0.4,0.2-0.9,0.4-1.3,0.7c-2.5-4.9-5-9.9-7.8-15.5c-0.6,8.1,4.5,13.5,6.7,19.9
		c-0.4,0.2-0.7,0.3-1.1,0.5c-2.8-5.4-5.6-10.8-8.8-16.9c-2.1,4.4,0.8,7.1,2,10c1.3,3.1,2.8,6.1,4.2,9.1c-0.3,0.2-0.6,0.3-1,0.5
		c-0.6-0.8-1.2-1.5-1.7-2.3c-2-3.5-3.9-7.1-6.1-10.5c-0.4-0.7-2-1.1-2.8-0.9c-0.5,0.1-1.3,1.8-1.1,2.4c2.7,6.6,5.5,13.2,8.3,19.7
		c0.8,1.9,2.1,2.7,4.3,0.5c0,1.3,0.3,2.3,0,3c-0.6,1.1-1.5,2-2.3,3c-0.8-0.8-1.9-1.4-2.4-2.3c-2.3-4.1-4.4-8.3-6.7-12.4
		c-0.4-0.6-1.4-0.9-2.7-1.6c0.5,2.3,1.4,4.3,0.9,4.9c-2.6,2.8-0.5,4.8,0.7,7c-0.9-0.7-2-1.3-2.8-2.2c-1.5-1.5-2.7-3.2-4.1-4.8
		c-0.3,0.3-0.6,0.5-0.9,0.8c0.3,4.4,5.4,5.9,6.6,9.5c-2.5-0.2-4.8-0.5-7.6-1C12.3,161.4,15,165.4,17.7,169.5z M116.3,170.3
		c0.1,0.5,0.2,1,0.4,1.5c-2.3,0.4-4.6,0.8-6.8,1.3c-0.1-0.5-0.2-1-0.3-1.5C111.4,169.3,113.9,170.2,116.3,170.3z M71.3,174.5
		c6.3-0.8,14.4,2.3,15.5,6.2C81.2,178.5,76.3,176.5,71.3,174.5z M89.5,170.6c0,0.4-0.1,0.9-0.1,1.3c-1.1-0.1-2.4,0.1-3.4-0.4
		c-2.2-1.1-2.7-0.1-2.7,1.9c-3.2-0.9-6.3-1.8-9.5-2.7c-0.5-0.1-1.3-0.5-1.5-0.3c-3,2.9-3.9-0.3-5.3-2.4
		C74.5,168.9,82,169.8,89.5,170.6z M155.3,100.5c-5.9,0.4-11.4-1.4-17.3-3C142,95.3,145.1,95.9,155.3,100.5z M140.7,74.6
		c-0.2,3.4-0.4,6.8-0.6,10.3C137.4,81.3,140.2,78,140.7,74.6z M134,84.8c0.3-0.3,1.2,0.2,1.9,0.3c-0.2,0.8-0.1,1.9-0.6,2.2
		c-2,1.1-4.2,1.9-6.3,2.8c-0.1-0.1-0.2-0.3-0.3-0.4C130.4,88,132.1,86.3,134,84.8z M101.3,132.7c-2-2.3-3.6-4.2-5.3-6.3
		c4.5-2.5,5.3-2.1,5.9,1.7c0.1,0.7,0.5,1.4,0.7,2C102.3,130.7,102,131.3,101.3,132.7z M102.6,130.2c1.3,0.7,3,1.1,3.9,2.2
		c2.3,2.9,4.2,6.1,6.1,9.3C108.8,138.4,103.8,136,102.6,130.2z M153.8,132.4c1.4,0.2,2.9,0.1,4.5,0.2c0,0.3,0.3,1.6,0.3,2.9
		c0.1,1.9-1.2,1.9-2.4,1.3c-2.3-1-4.5-2.2-6.9-3.1c-0.8-0.3-1.9,0-2.9,0c0.5,0.7,0.9,1.9,1.6,2.1c4.3,1.5,4,5.6,5.6,8.9
		c-5-2.1-10.3-8.2-10.2-11.7c-3.5,2-3.8-1.3-5.8-3.4C143.6,130.6,148.7,131.6,153.8,132.4z M154.7,120c0.3,0.5,0.5,1,0.8,1.5
		c-3.1,1.5-6.1,3-9.2,4.5c-0.2-0.4-0.4-0.9-0.7-1.3C148.7,123.2,151.7,121.6,154.7,120z M147.8,116.6c-4.8,6.4-5.5,9.3-11.3,7.1
		c3.8-2.9,7.2-5.5,10.7-8.1C147.4,115.9,147.6,116.2,147.8,116.6z M144.3,117.6c-2.7,1.8-5.5,3.7-8.2,5.5
		C136,119.4,136,119.3,144.3,117.6z M122,127c4.6,0.7,9.2,1.4,13.9,2.2c-1.3,6.3,7.2,6.1,7.1,12.4c-5.3-4.2-10.1-8.1-15.4-12.3
		c0.2,1.9,0.3,3.3,0.5,4.7c-0.2,0.2-0.4,0.3-0.6,0.5c-2-2.1-4-4.2-5.9-6.4C121.7,127.7,121.8,127.3,122,127z M118.5,126.9
		c0.9,0.2,1.5,2.1,2.3,3.2c-0.3,0.3-0.7,0.5-1,0.8c-0.7-0.6-1.4-1.2-2.1-1.8c-0.6-0.4-1.3-0.8-2-1.1c-0.2,0.9-0.8,2-0.5,2.6
		c0.5,1,1.6,1.6,2.4,2.5c1.4,1.4,2.8,2.9,4.1,4.4c-0.4,0.3-0.7,0.6-1.1,1c-2.1-2.5-4.2-5.2-6.4-7.6c-0.9-0.9-2.4-1.7-3.5-1.6
		c-0.7,0.1-1.2,1.9-1.5,2.5c-1.3-1.5-3.6-3.9-5.8-6.4c0.1-0.3,0.2-0.5,0.3-0.8C108.5,125.2,113.6,125.8,118.5,126.9z M108.5,121.5
		c2.2-2.2,4.1-4.1,6.4-6.4C113.9,120.7,112.4,122.2,108.5,121.5z M124.1,84.4c-0.8,2.7-1.2,4.3-1.7,6c0.3,0.2,0.6,0.4,0.8,0.7
		c-1.6,1.4-3.2,2.7-4.7,4.1c-0.2-0.2-0.5-0.4-0.7-0.6C120.2,91.7,119.9,87.2,124.1,84.4z M115.7,100.7c3.3,0.2,6.6,0.5,9.9,0.7
		c0,0.5-0.1,0.9-0.1,1.4c-3.3-0.4-6.5-0.8-9.8-1.2C115.6,101.3,115.6,101,115.7,100.7z M115.1,106.8c1,0.4,3.1,2,3.8,1.5
		c-2.3,1.6-4.7,3.1-7.8,5.2C113.4,112,113.7,109.1,115.1,106.8z M112.1,109.7c0.2,0.2,0.4,0.3,0.5,0.5c-2.4,3.6-4.8,7.2-7.4,10.6
		c-0.4,0.6-1.9,0.3-2.9,0.4c0-1.4-0.6-3.5,0.1-4.1C105.5,114.4,108.9,112.1,112.1,109.7z M90.4,116c2.2-1.7,4.6-3.3,6.9-4.9
		c1.8-1.3,3.7-2.5,5.3-3.6c1.5,1.2,2.6,2.1,3.6,2.9c-1.2,1-2.5,1.9-3.5,3.1c-3.1,3.6-7.8,3.4-11.7,5c-0.3,0.1-1.3-0.4-1.3-0.6
		C89.7,117.2,89.9,116.4,90.4,116z M88.4,126.7c0.4,0.2,0,1.9,0,2.9c-0.3,0-0.7,0.1-1,0.1c-1-0.9-2-1.8-3.1-2.7
		c0.1-0.3,0.2-0.7,0.3-1C85.8,126.2,87.2,126.1,88.4,126.7z M84.6,105.4c0.3,0,0.6,0,0.9,0c0.3,2.7,0.6,5.3,1,8.7
		c-0.1,0.1-1,0.9-1.9,1.7c-0.4-0.1-0.8-0.2-1.3-0.3C83.8,112.2,84.2,108.8,84.6,105.4z M70.8,140.6c-3.1-0.2-6.3-0.3-9.4-0.5
		c0-0.5,0.1-0.9,0.1-1.4c3.1,0.1,6.3,0.3,9.4,0.4C70.8,139.6,70.8,140.1,70.8,140.6z M62,136.1C62,136,62,136.1,62,136.1
		C62.1,136.1,62,136.1,62,136.1z M75.6,136.5c-4.5-0.2-8.9-0.2-13.4-0.4c-0.1-0.1-0.2-0.4-0.5-0.8c2.6-1.7,5.1-3.4,7.9-5.3
		c1.3,1.7,1.7,2.2,2.4,3c-2,0.3-4,0.4-5.9,0.7c0,0.3,0.1,0.8,0.1,1.1c3.2,0,6.4,0.1,9.5,0.1C75.8,135.6,75.7,136,75.6,136.5z
		 M82.8,133.5c-2.9-1.3-5.7-2.5-8.5-3.8c-0.6-0.3-1.6-1.2-1.5-1.4c0.3-0.8,1-1.4,1-1.4c2.8,0.4,4.9,0.7,7.8,1.1
		C81.9,129.2,82.4,131.3,82.8,133.5z M72.3,120.9c-4.6,2.6-9,5.5-13.5,8.1c-0.2-0.2-0.2-0.2-0.2-0.2c5.1-3.4,10.2-6.8,15.2-10.2
		c0,0-0.7-1-0.9-1.4c-4.7-0.2-7.4,4.4-11.7,5.1c-0.2-0.3,0.4,0.6-0.8-1.1c7-4.7,13.9-9.3,21-14c-0.5,2.9-0.4,6.9-0.8,10.4
		c-0.1,0.6-0.8,1.3-1.4,1.7c-6.4,4.4-12.7,8.8-19.2,13.2c-0.9,0.6-1.8,1.2-2.7,1.8c-0.2-0.3-0.4-0.5-0.6-0.7
		c5.2-4.2,10.4-8.3,15.6-12.5C72.3,120.9,72.3,120.9,72.3,120.9z M71.9,104.8c0.2,0.3,0.3,0.5,0.5,0.8c-3.6,2.1-6.1,3.5-9.1,5.3
		C65.1,107.4,68.1,106.6,71.9,104.8z M52.6,115.1c2.5,1.3,3.8-0.9,5.5-1.8c1.4-0.8,2.9-1.4,4.4-2c-3.6,2.2-7.1,4.3-10.7,6.5
		c-0.3-0.3-0.5-0.5-0.8-0.8C51.6,116.3,52.5,115.1,52.6,115.1z M49,122.5c1.8-0.7,3.8-1.5,4.5,1.4c-1.3,0.2-2.6,0.6-4,0.7
		c-0.4,0-0.9-0.4-1.4-0.6C48.4,123.5,48.5,122.6,49,122.5z M48.1,133.3c0.6-0.6,1.3-1.1,2.1-1.3c1.7-0.5,3.4-0.7,4.9-1
		c-1.6,1.3-3.5,3-5.5,4.4c-0.6,0.4-1.7,0-2.6,0C47.4,134.7,47.6,133.8,48.1,133.3z M56.3,145.5c-1,1.4-2,2.7-3,4.1
		c-0.7-1.9-1.2-3.5-2-5.6C53.2,144.6,54.5,145,56.3,145.5z M56.6,149c1.7-2.8,5-3.9,8.5-2.6c-4.1,6-11.1,9.2-14.5,15.9
		c1.5-0.1,2.6-0.1,3.7-0.2c0.2,0.6,0.5,1.3,0.7,2.1c-3.5-0.1-6.9-0.1-10.3-0.2c0.1-0.8,0-1.3,0.1-1.4
		C50.4,159.5,53.4,154.2,56.6,149z M45.4,148.3c1.2,6-3.1,8.9-5.8,12.3c-3,3.9-4,3.9-9.7,2.9C35.2,158.4,40.2,153.5,45.4,148.3z
		 M26.6,169.7c-2,1.7-4,3.4-6,5.1c-0.6-0.2-1.1-0.4-1.7-0.6C22.1,169.6,25.4,168.1,26.6,169.7z M19,154.4c1.6,2.9,3.2,5.9,4.7,8.9
		c0.1,0.2-0.5,0.8-1.1,1.5c-1.5-3.5-2.9-6.7-4.3-9.9C18.6,154.8,18.8,154.6,19,154.4z"/>
</g>
<g id="bottom_right" class="st0">
	
		<linearGradient id="SVGID_2_" gradientUnits="userSpaceOnUse" x1="9.3744" y1="107.8384" x2="206.5139" y2="107.8384" gradientTransform="matrix(-1 0 0 1 215.8883 0)">
		<stop  offset="0" style="stop-color:#A6894B"/>
		<stop  offset="1" style="stop-color:#ECCA7A"/>
	</linearGradient>
	<path class="st2" d="M206.5,157.1c-2.8,0.5-5.1,0.8-7.6,1c1.2-3.6,6.3-5.1,6.6-9.5c-0.3-0.3-0.6-0.5-0.9-0.8
		c-1.4,1.6-2.7,3.3-4.1,4.8c-0.8,0.8-1.8,1.5-2.8,2.2c1.1-2.2,3.3-4.2,0.7-7c-0.5-0.6,0.4-2.6,0.9-4.9c-1.3,0.8-2.3,1-2.7,1.6
		c-2.3,4.1-4.4,8.3-6.7,12.4c-0.5,0.9-1.6,1.6-2.4,2.3c-0.8-1-1.8-1.9-2.3-3c-0.3-0.7,0-1.6,0-3c2.1,2.2,3.4,1.4,4.3-0.5
		c2.8-6.6,5.6-13.1,8.3-19.7c0.2-0.6-0.6-2.3-1.1-2.4c-0.9-0.2-2.4,0.2-2.8,0.9c-2.2,3.4-4.1,7-6.1,10.5c-0.5,0.8-1.1,1.5-1.7,2.3
		c-0.3-0.2-0.6-0.3-1-0.5c1.4-3,2.9-6.1,4.2-9.1c1.3-2.9,4.1-5.6,2-10c-3.1,6-6,11.5-8.8,16.9c-0.4-0.2-0.7-0.3-1.1-0.5
		c2.2-6.3,7.4-11.8,6.7-19.9c-2.8,5.6-5.3,10.6-7.8,15.5c-0.4-0.2-0.9-0.4-1.3-0.7c1.6-3.3,3.2-6.5,4.7-9.8c1-2.3,2-4.6,2.7-7
		c0.3-1-0.2-2.1-1-3.3c-2.7,6-5.4,12-8.4,18.5c-1.5-2.3-1.5-3.4-0.3-5.4c3.2-5.4,5.7-11.3,8.3-17c0.4-0.9,0-2.1,0-3.1
		c-0.3-0.1-0.5-0.2-0.8-0.3c-2.3,4.7-4.6,9.4-6.9,14.1c-1.5-1.4-1.5-1.4-4,2.3c3.8-7.2,6.9-14.7,8.4-22.7c-0.4-0.2-0.7-0.4-1.1-0.6
		c-0.6,0.8-1.4,1.5-1.7,2.4c-1.4,3.8-2.7,7.6-4.1,11.4c-0.2,0.6-1,0.9-2.1,1c0.8-3.1,1.7-6.1,2.5-9.2c0.8-3.1,2.5-6.1,0.5-9.6
		c-3.1,5.5-2.2,12.6-7.6,17.2c-0.8-1.6-1.6-2.9-2.3-4.2c2.1,1.7,3.3,0.8,3.8-1.3c1.6-6.3,3.2-12.6,4.7-19c0.1-0.4-0.3-1-0.6-2
		c-3.5,5.3-2.6,11.7-6,16.4c-0.3-0.1-0.5-0.2-0.8-0.3c1.3-6,2.6-12,3.9-18c-0.4-0.1-0.8-0.2-1.3-0.3c-2.2,6.3-4.4,12.7-6.8,19.4
		c-1.5-2-1.2-3-0.4-5c2.9-7.5,4.2-15.4,4.2-23.4c-0.4-0.1-0.8-0.1-1.1-0.2c-0.5,2.6-1.1,5.2-1.7,8.1c-4-1.9-0.7-6.1-3.1-8.3
		c-1.5,5.6-3,11.1-4.5,16.6c-0.3,0-0.5-0.1-0.8-0.1c1.3-7.2,2.7-14.4,4-21.7c-0.5-0.2-1-0.3-1.5-0.5c-0.5,1-1.1,1.9-1.4,2.9
		c-1.2,4.9-2.4,9.9-4.1,14.7c-1.8-2.3-2.5-4.3-0.1-6.3c2.1-1.7,2.9-7.4,1.2-9.1c-0.4,1.1-0.7,2.1-1.1,3.1c-0.4,1-0.8,2-1.4,3.7
		c-0.8-5.5,2.2-10.4-0.9-15.9c-1.1,3.6-1.9,6.3-2.7,9c-0.3-0.1-0.6-0.1-0.8-0.2c0.2-2.9,0.7-5.7,0.6-8.6c-0.1-1.5-1.2-3-1.9-4.4
		c-1.3,1.1-3.1,1.9-3.9,3.3c-0.8,1.3-0.6,3.2-0.9,4.8c-0.2,1.1-0.5,2.2-0.7,3.5c-4.2-2-3.6-8.6-9.5-8.4c1.4,2.9,2.7,5.7,4.1,8.5
		c0.2,0.5,0.6,1.3,0.9,1.3c5.1-0.3,3.3,3.8,3.8,6.7c-2.8-2.3-5.5-4.5-8.3-6.8c-0.4,0.3-0.8,0.5-1.1,0.8c1.3,2.8,2,6,3.9,8.3
		c4.5,5.2,9.6,9.8,14.3,14.5c1.7,0,3.5,0,5.7,0c-0.2,1.2-0.3,2.2-0.5,3.4c-8.1-2.5-14.1-7.7-20.6-12.3c-0.8-0.5-2.1-0.3-3.1-0.4
		c-0.1,0.3-0.2,0.6-0.2,0.9c5.8,5.2,11.7,10.4,17.5,15.6c0.2-0.2,0.3-0.3,0.5-0.5c-0.6-0.8-1.1-1.5-1.7-2.3c0.2-0.3,0.3-0.5,0.5-0.8
		c3,2,6,4.1,9.2,6.1c1.4,0.9,3.1,1.2,4.4,2.1c0.9,0.6,1.5,1.7,2.2,2.6c-0.2,0.3-0.4,0.6-0.6,0.9c-1.4-0.7-2.9-1.3-4.3-2.1
		c-4.5-2.4-9-4.9-13.5-7.4c-0.2-0.1-0.4-0.2-0.6-0.2c-2.7-0.6-5.4-1.2-7.9-1.8c1.7,1.8,3.7,4.5,6.2,6.4c5.8,4.1,11.9,7.7,17.8,11.6
		c1.2,0.8,2,2.1,2.9,3.2c0.1,0.1-0.8,1.2-0.9,1.1c-1.3-0.7-2.6-1.4-3.8-2.2c-4-2.8-7.7-6.5-12.1-8.4c-3.2-1.3-6.2-2.7-9.1-4.6
		c-1.7-1.1-2.4-2.1-2.7-4.1c-0.4-3.4-1.6-4-4.7-2.7c-0.6-1.2-1.2-2.4-2-3.9c-5.3,5,0.5,9.8-1,14.8c-1.3-0.6-2.6-1.2-3.4-1.6
		c1.2-7.1-1.1-13-3.7-18.8c-1.8,5.3,2.9,10.7-0.1,15.8c-0.4,0-0.9,0-1.3,0.1c-0.1-3.6-0.3-7.3-0.4-11.2c-0.5,0.8-0.8,1.5-1.4,2.4
		c-1.1-1.9-2.2-3.7-3.3-5.6c2.8-3.5,3.8-8.3,1.9-10.9c-0.7,2-1.4,3.8-2.1,5.6c-1.8,4.4-3.2,5.3-7.2,4.7c1.1,2.7,2.2,5.5,3.4,8.3
		c-0.3,0.2-0.5,0.4-0.8,0.6c-2-1.1-3.9-2.1-5.2-2.8c-0.7-3.1-1.3-5.7-2-8.2c-1.3-4.7-2.6-9.3-3.9-13.9c-0.7-2.6-0.4-4.6,2.9-4.8
		c0.7-0.1,1.5-0.5,1.9-1.1c4.1-5.9,7.9-12,7.4-20.2c-0.8,1.2-1.6,2.3-2.3,3.5c-2.7,4.8-5.4,9.7-8.2,14.4c-0.5,0.9-1.6,1.4-3.1,2.5
		c-1.2-3.3-2.2-6.2-3.3-9.1c5-3,7.4-7.8,10.1-12.4c1.3-2.3,2.4-4.7,3.4-7.1c0.4-0.9,0.3-1.9,0.4-2.9c-1,0.6-2.3,0.9-2.9,1.7
		c-1.4,2.1-2.5,4.4-3.7,6.5c-0.4,0.7-1,1.3-1.5,1.9c-0.3-0.2-0.6-0.3-1-0.5c1.4-2.9,2.8-5.7,4-8.6c0.4-0.9,0.1-2,0.1-3
		c-0.8,0.2-1.7,0.4-2.3,0.5c-0.2-2-0.5-4.2-0.7-6.3c-0.5-0.1-1.1-0.1-1.6-0.2c-1.3,7.4-3.6,14.3-8.4,20.8c-0.8-1.6-1.2-2.5-1.6-3.3
		c4.7-2.7,6.7-13.9,2.8-18.4c-0.3,2.9-0.4,5.5-0.9,7.9c-0.5,2.5-1.4,4.8-2.1,7.2c-0.5,0-0.9-0.1-1.4-0.1c-0.5-3.9-1-7.8-1.4-11.8
		c-0.1-1.3,0-2.6-0.2-3.9c-0.1-0.6-0.9-1-1.3-1.5c-0.4,0.4-1.1,0.9-1.1,1.3c-0.2,1.4-0.1,2.8-0.1,4.3c0,3.8,0,7.6,0,11.3
		c-4.3-3.3-6.7-10.7-3.9-14.4c-1.5,0.1-3-0.2-3.5,0.3c-0.8,0.8-1.4,2.4-1.2,3.5c0.6,2.8,1.8,5.4,2.8,8.2c-1.1-1.2-2.1-2.3-3.2-3.4
		c-1.1-1.1-2.2-2-3.3-3.1c-0.3,0.2-0.6,0.4-0.9,0.6c1.4,2,2.6,4.2,4.2,6c2.9,3.3,5.6,6.9,9.2,9.2c2,1.3,3.6,2.5,4.6,4.5
		c0.2,0.5,0.3,1,0.5,2.2c-5.1-3.1-6.9-9.7-13.8-10.4c2.8,3.1,5.8,5.4,7.6,8.5c1.7,3,2.2,6.6,3,10.3c-1.7-2.3-3.5-4.6-5.2-6.9
		c-0.4-0.7-0.5-1.6-0.6-2.5c-0.1-0.8,0-1.6,0-2.4c-0.6,0.1-1.5-0.1-1.8,0.2c-0.6,0.7-1.4,2-1.1,2.4c1.9,3.2,1.3,7.5,4.9,10.1
		c1.9,1.3,2.8,4,4.4,5.8c1.5,1.8,3.5,3.1,5,4.9c1.3,1.6,2.1,3.5,3.2,5.3c-0.3,0.2-0.5,0.4-0.8,0.6c-2-2-3.9-4-5.9-6
		c-0.4,0.3-0.7,0.7-1.1,1c1.4,2,2.9,4,4.3,6.1c-0.1,0.2-0.3,0.3-0.4,0.5c-2.3-1.6-5.1-2.8-6.9-4.8c-1.1-1.2-0.7-3.7-1-5.8
		c0.5,0.1,1.2,0.3,1.9,0.4c-0.4-4.6-5.5-11-9-11.2c1,1.7,1.9,3.2,2.9,5c-1.2,0.4-2,0.7-2.8,1c0.1,4.1,0.2,8.1,0.2,12.1
		c-0.5,0.1-1,0.1-1.5,0.2c-0.2-0.9-0.7-1.8-0.6-2.7c0-3.3,0.4-6.5,0.3-9.8c0-1-1.1-2-1.8-3c-0.3,0.1-0.6,0.3-0.9,0.4
		c-0.1,1.2-0.3,2.4-0.5,4.4c-2.3-4.3-4.2-7.8-6.4-12c-0.4,0.8-1.3,1.8-1.1,2.6c0.6,3.2,1.6,6.3,2.3,9.5c0.4,1.6,0.5,3.3,0.8,5
		c-0.3,0.1-0.7,0.2-1,0.3c-0.7-1.9-1.4-3.7-2-5.6c-1-3.1-1-6.6-4.1-8.6c-1-0.7-2.1-1.2-3.5-1.5c-1.3-1.4-2.6-2.7-3.8-4.1
		c-0.2,0.2-0.4,0.4-0.6,0.6c1.5,5.3,3,10.7,4.5,16c-0.4,0.2-0.8,0.4-1.2,0.6c-0.6-1.1-1.4-2-1.8-3.2c-1.3-3.9-2.3-8-3.7-11.9
		c-0.4-1.2-1.8-2.2-2.7-3.2c-0.3,0.2-0.6,0.5-0.9,0.6c0.9,3.6,1.8,6.9,2.9,11c-0.2,0.1-0.4,0.1-0.6,0.2c-2.7-5.1-5-9-7.5-13.4
		c-0.1-0.1-1,0.2-1.5,0.3c0.3,2,0.6,3.9,1,6.3c-2.2-2.1-4.2-4-6.1-5.8c-0.3,0.3-0.7,0.5-1,0.8c2.3,3.3,4.5,6.6,6.8,9.9
		c-0.3,0.3-0.6,0.6-0.9,0.9c-1.5-1.4-3.2-2.7-4.5-4.4c-1.5-2-2.5-4.4-4-6.4c-1-1.3-2.5-2.1-3.9-3.2c-0.4,0.4-0.8,0.8-1.2,1.2
		c1.6,2.4,3.2,4.8,5,7.6c-4.9-1.2-8.1-5.6-12.9-5.7c-0.1,0.3-0.3,0.6-0.4,0.8c3.5,2.8,7.1,5.7,10.7,8.5c0.6,0.4,1.6,0.3,2.3,0.5
		c0.7,0.2,1.2,0.7,1.9,1c-0.7,0.4-1.4,1.3-2,1.2c-5.4-1.5-11.4-1.5-16.7-6.1c0,1.8-0.1,2.9-0.1,4.1c3.8,1.1,7.4,2.1,11.1,3.1
		c0,0.2,0,0.4,0,0.7c-2.4,0.3-4.9,0.6-7.3,0.9c0,0.3,0,0.6,0,1c3.6,0.2,7.1,0.6,10.7,0.6c3.4,0,6.8-0.6,10.2-0.9
		c0,0.4,0.1,0.8,0.1,1.2c-7.2,0.9-14.3,1.9-21.5,2.8c0,0.5,0.1,1,0.1,1.5c8.4,2.8,16.7,2.1,24.9-1.2c-0.3-0.4-0.6-0.7-0.9-1.1
		c0.7-0.4,1.6-1.3,2.1-1.1c2.2,0.6,4.3,1.5,6.4,3.1c-7.1,1.5-14.3,3-21.4,4.5c0.1,0.4,0.2,0.8,0.2,1.2c4.9-0.8,9.7-1.5,14.6-2.3
		c3.6-0.6,7.3-1.7,10.9-1.7c2.8,0.1,5.6,1.6,8.5,2.5c1.7,0.5,3.4,1,5.2,1.5c0.3,0.1,0.8,0.1,0.9,0.3c2.1,4.4,7,3.6,10.5,5.4
		c3,1.5,7.1,1.1,9.8,3.8c2,1.9,3.9,4,6.2,6.4c-1.7,0.2-3.3,0.5-5.3,0.7c0.6-2.9-0.2-4-2.9-3.9c-2.6,0.1-5.9,0.5-7.7-0.8
		c-3.7-2.7-6,0.3-8.8,1c-5.1,1.4-10.2,2.8-15.4,4.8c2.3,0.1,4.6,0.2,6.3,0.2c1.2,0.6,2,1.4,2.9,1.5c2.3,0.3,4.6,0.2,6.8,0.3
		c6,0.3,12.1,0.2,17.9,1.3c2.2,0.4,5.3,0.7,7.1,3.5c0.7,1.1,3.2,1,5,1.4c-1.1,1-1.3,1.8,0.2,3c1.4,1.2,2.3,2.9,3.1,4.6
		c-4.6-2.1-6.8-8-12.8-7.6c4.8,3.7,9,7.8,10.9,13.8c-0.5,0.2-0.9,0.5-1.5,0.6c-0.4,0.1-0.9,0-0.8-0.7c-4.3-3.7-8.4-7.7-13-11
		c-1.7-1.2-4.6-0.9-6.9-1.3c-0.1,0.3-0.2,0.6-0.3,0.9c0.6,0.9,1.1,1.8,1.7,2.6c0.4-0.2,1-0.7,1.3-0.6c2.2,1.1,4.5,2.1,6.4,3.5
		c1.7,1.3,2.9,3.5,4.4,5.2c-0.2,0.1-0.6,0.7-0.7,0.6c-3.7-2.5-7.5-5-11.2-7.5c-0.7-0.5-1.7-0.6-2.7-0.8c-3.5-0.4-6.7-1.1-10.6-1.6
		c2.2,3.2,4,5.6,5.8,8.2c-0.1,0.2-0.2,0.3-0.4,0.4c-4.4-1.9-8.8-3.7-13.4-5.7c-0.4,0.4-1.1,0.9-2.1,1.7c1.6,0.8,3,1.5,4.4,2.1
		c-0.1,0.2-0.1,0.3-0.2,0.5c-3-1.1-6-2.2-9-3.2c-0.2,0.4-0.4,0.8-0.5,1.2c4.7,2.6,9.4,5.1,14.1,7.7c-5,0.9-8.4-2.1-12.2-4
		c-2.8-1.4-5.9-2.1-9.1-1.2c5.1,2.4,10.9,3.3,14.9,8.4c-4.3-0.1-7.8-0.5-11.2-2.9c-2.1-1.4-5.3-1.3-8-1.8c-0.2,0.5-0.3,0.9-0.5,1.4
		c2.5,1.2,5,2.4,7.6,3.7c0,0.3,0,0.6,0,0.9c-1.8,0.1-3.7,0.5-5.4,0.1c-3.1-0.7-4.6,1.4-5.3,3.3c-0.6,1.7-1.1,4.5,1.9,5.4
		c-0.4,1.2-0.7,2.2-1.4,4.2c3-0.6,5.3-0.8,7.3-1.6c2-0.8,3.7-2.3,5.9-2.8c-1.6,2.1-3.1,4.2-4.7,6.2c0.2,0.2,0.5,0.5,0.7,0.7
		c3.8-1,5.4-6.5,10.5-5.7c-1,3.1-5.4,3.7-5.1,7.6c4.7-2.2,9.2-4.3,13.7-6.3c0.1,0.2,0.3,0.3,0.4,0.5c-1.1,1.4-2.1,2.8-3.3,4.4
		c4,2.5-2.3,3.5-1.3,5.8c4.6,2.1,7.5-1.1,10.4-3.6c3.2-2.7,6.3-5.1,11.3-5.2c-0.9,1.4-1.8,2.6-2.5,3.8c-0.7,1.2-1.2,2.5-1.8,3.8
		c0.3,0.2,0.6,0.4,1,0.6c4.8-5.2,9.4-10.5,14.2-15.7c0.3,0.2,0.6,0.4,0.6,0.4c-2.5,3.8-5.1,7.6-7.6,11.4c0,0,0.9,0.7,1.2,0.9
		c2.3-2.5,4.7-4.8,6.9-7.2c0.1,0.1,0.3,0.2,0.4,0.3c-0.2,0.5-0.5,1-0.7,1.5c-0.2,0.7-0.1,1.4-0.2,2.1c0.8-0.1,1.8,0.1,2.3-0.3
		c2-1.7,3.9-3.6,5.9-5.4c0.3,0.2,0.6,0.4,1,0.6c-1.1,2.3-2.1,4.6-3.2,6.9c0.3,0.2,0.6,0.5,0.8,0.7c1.4-1.2,2.8-2.4,4.4-3.7
		c1.4,2,2.9,0.9,4.5-0.5c3.2-2.8,6.5-5.6,10.4-7.9c-2,3.4-3.9,6.8-5.9,10.1c0.3,0.2,0.7,0.4,1,0.7c4.6-5,9.2-10,13.8-15
		c0.3,0.2,0.6,0.5,0.9,0.7c-1,1.4-1.8,3-2.9,4.3c-1.1,1.3-2.6,2.4-3.6,3.7c-0.9,1.3-1.5,2.8-2.2,4.2c0.4,0.2,0.7,0.4,1.1,0.6
		c1.9-1.8,3.9-3.7,5.8-5.5c1.8-1.7,3.4-3.5,5.3-5c0.7-0.5,1.9-0.3,2.9-0.4c0,0,0,0-0.1,0c1.9,1.6,0.1,2.4-0.8,3.3
		c-1.7,1.7-3.5,3.3-5.2,5c0.2,0.5,0.2,0.9,0.5,1.4c4.9-3.6,11.3-4.3,15.5-3c-0.5,0.8-1.1,1.6-2,3c3.1,1,3.3,0.5,4.4,0.6
		c0.7,1,1.6,2.2,2.4,3.4c-0.7,0.6-1.5,1.4-2.3,2c-1.2-0.6-2.4-1.2-3.6-1.8c-0.2,0.2-0.3,0.4-0.4,0.6c3.2,3.7,6.5,7.2,9.5,11
		c1.1,1.4,1.7,3.3,2.5,4.9c-1.6-0.7-3.3-1.3-4.7-2.3c-4.2-3.2-8.2-6.6-12.4-9.8c-0.7-0.6-1.6-0.8-2.5-1.2c-0.1,0.2-0.3,0.5-0.4,0.7
		c4.3,3.7,8.6,7.4,12.9,11.1c-0.1,0.2-0.2,0.3-0.4,0.5c-2-1.5-4-3-6-4.6c-1.9-1.6-3.7-3.3-5.5-5c-0.2,0.2-0.4,0.4-0.6,0.6
		c1.4,1.3,2.7,2.6,4.1,4c-0.2,0.2-0.3,0.4-0.5,0.6c-2-1.7-4-3.5-6.1-5c-1.8-1.3-3-4.3-6.6-3.1c1.2,1.7,2.1,2.9,3,4.1
		c-0.3,0.3-0.7,0.5-1,0.8c-3.8-2.9-7.6-5.8-11.3-8.7c-0.4,0.4-0.7,0.9-1.1,1.3c1.3,1.3,2.5,2.8,4,3.8c4.9,3.4,9.4,7,12.5,12.2
		c0.4,0.6,1.3,0.9,2.8,2c-2.2,0.3-3.6,0.5-4.4,0.6c-0.6-1.5-0.8-3.2-1.7-3.9c-4.5-3.4-9.2-6.5-13.9-9.6c-1-0.7-2.3-0.9-3.8-0.5
		c4.6,3.5,9.1,6.9,13.7,10.4c-0.3,0.4-0.7,0.9-1,1.3c-1.5-1.1-3.1-2.3-4.7-3.4c-1.6-1.1-2.5-2.9-5.2-2.7c-1.7,0.2-4-0.9-5.8-1.7
		c-0.2,0.4-1.1,1.7-1,1.8c4.7,3.2,9.5,6.3,14.2,9.5c0,0-0.1,0.2-0.3,0.6c-3.4-1.9-6.5-4.4-10-6.2c-2.1-1.1-4.2-2-6.4-3
		c-0.2,0.4-0.4,0.8-0.6,1.2c3.5,2,7.1,3.9,11.1,6.2c-3.1,1.7-5,0.9-6.9-0.7c-1.3-1.1-2.6-2.3-4-3.4c-0.4-0.3-1.2-0.1-1.8-0.2
		c0,0.6-0.2,1.4,0.1,1.7c1.2,1.2,2.5,2.3,4.3,3.8c-3.7,0.2-4.4-3.6-7.5-4.6c1.3,1.7,2.3,2.9,3.8,4.8c-3.6-0.2-6.5-0.4-9.9-0.6
		c-0.5,1-1.4,2.6-2.7,5.1c3.3-1.6,5.8-3.3,8.4-0.5c-4,1.8-8.3,3.7-12.2,5.4c0.1,0.3,0.2,0.6,0.3,0.9c2.7-0.9,3.9-1.3,5.8-1.9
		c2-0.7,4-1.3,6.9-2.3c-0.6,1.7-0.8,2.3-1.1,3.1c1.3,0.1,2.6,0.1,4.6,0.2c-1.7,1.5-3,2.7-4.2,3.9c0.1,0.2,0.2,0.4,0.3,0.5
		c1.8-1,3.6-2,5.7-3.1c-0.2,1.2-0.3,2.1-0.4,3.1c0.2,0.1,0.3,0.1,0.5,0.2c0.6-1.5,1.2-3,2-5c2.1,0.1,4.9,0.2,8.3,0.4
		c-1.9,0.9-3.4,1.5-4.9,2.2c0.1,0.4,0.2,0.7,0.2,1.1c2.5-0.4,4.9-0.8,7.6-1.3c-0.3,1-0.5,2-0.8,3.2c3.7-1.5,7.2-2.9,10.6-4.3
		c0.2,0.2,0.5,0.4,0.7,0.6c-1.4,1.8-2.8,3.7-4.2,5.5c0.1,0.2,0.2,0.5,0.3,0.7c5.5-2.3,11.1-4.5,17-7c-0.1,0.8-0.2,1.3-0.3,2.4
		c0.8-0.5,1.5-0.8,2.1-1.2c2.2-1.5,4.4-3,6.4-4.7c0.7-0.6,0.9-1.7,1.2-2.6c0.4-1.3,0.5-2.6,0.8-3.9c2,1.1,3.6,1.9,5.6,3
		c-6.8,5.9-13.5,11.9-22.3,14.9c0.1,0.4,0.2,0.7,0.2,1.1c1.2-0.2,2.7,0,3.7-0.6c4.2-2.4,8.2-5,12.3-7.5c0.7-0.4,1.6-0.7,2.8-0.4
		c-2.4,1.8-4.7,3.6-7.1,5.4c0.1,0.4,0.2,0.7,0.2,1.1c1.1-0.2,2.4-0.1,3.1-0.7c3.8-3.3,7.4-6.8,11-10.3c2-2,3.5-4.5,5.8-6.1
		c1.4-1,3.8-0.5,5.9-0.7c-6.9,6.2-13.5,12-20.1,17.9c0.2,0.3,0.5,0.7,0.7,1c2.4-1.8,4.9-3.5,7.3-5.3c2.1-1.6,3.9-3.5,6.1-4.9
		c2.7-1.7,5.3-3.3,6.9-6.3c0.4-0.9,2.5-1.1,3.8-1.4c1-0.2,2.1-0.1,3.7-0.1c-1.4,2-2.4,4.3-4.1,6c-2.8,2.8-6,5.1-9,7.7
		c-0.9,0.8-1.4,1.9-2.1,2.9c1.3,0.1,3.1,0.7,3.9,0.1c3.2-2.4,6.3-5.1,9.1-8c1.9-2,3-4.6,4.7-6.9c0.7-1,1.8-1.6,3.5-3
		c-3.9,8.8-9.7,14.9-16.2,20.5c7.7-1.9,11.2-8.9,16.1-14.1c0.2,0.2,0.9,0.8,0.9,0.9c-3,4.5-6,8.9-9,13.4c0,0,0.1,0.1,0.2,0.3
		c1.6-1.7,3-3.5,5-5.5c-0.9,2-1.5,3.4-2.2,4.9c0.2,0.1,0.4,0.2,0.6,0.4c0.4-0.4,0.9-0.7,1.3-1.2c2.2-3,4.3-5.9,6.4-9
		c1.3-2,2.9-3.2,5.4-2.7c0,0,0,0-0.1,0c1.3,0.6,2.5,1.3,3.9,1.6c1,0.2,2.1-0.3,3.2-0.5c-0.3-0.9-0.7-2.2-1.2-3
		c-0.6-1-0.6-1.3-2.9-3.4C200.9,165.4,203.6,161.4,206.5,157.1z M106.4,171.5c-0.1,0.5-0.2,1-0.3,1.5c-2.3-0.4-4.6-0.8-6.8-1.3
		c0.1-0.5,0.2-1,0.4-1.5C102,170.2,104.5,169.3,106.4,171.5z M129.1,180.7c1-3.8,9.2-7,15.5-6.2
		C139.6,176.5,134.6,178.5,129.1,180.7z M148.9,168.1c-1.4,2.2-2.3,5.3-5.3,2.4c-0.2-0.2-1,0.1-1.5,0.3c-3.1,0.9-6.2,1.8-9.5,2.7
		c0-2-0.5-3-2.7-1.9c-1,0.5-2.2,0.3-3.4,0.4c0-0.4-0.1-0.9-0.1-1.3C133.9,169.8,141.4,168.9,148.9,168.1z M77.9,97.6
		c-5.9,1.6-11.4,3.4-17.3,3C70.8,95.9,73.9,95.3,77.9,97.6z M75.8,84.9c-0.2-3.4-0.4-6.8-0.6-10.3C75.7,78,78.5,81.3,75.8,84.9z
		 M87.3,89.7c-0.1,0.1-0.2,0.3-0.3,0.4c-2.1-0.9-4.3-1.7-6.3-2.8c-0.5-0.2-0.4-1.4-0.6-2.2c0.6-0.1,1.5-0.5,1.9-0.3
		C83.8,86.3,85.5,88,87.3,89.7z M113.3,130.1c0.3-0.7,0.6-1.3,0.7-2c0.6-3.8,1.4-4.2,5.9-1.7c-1.7,2.1-3.4,4-5.3,6.3
		C113.9,131.3,113.6,130.7,113.3,130.1z M103.3,141.7c1.9-3.2,3.8-6.4,6.1-9.3c0.9-1.1,2.5-1.5,3.9-2.2
		C112.1,136,107.1,138.4,103.3,141.7z M78.2,129.6c-2,2.1-2.2,5.4-5.8,3.4c0.1,3.5-5.2,9.6-10.2,11.7c1.5-3.3,1.3-7.4,5.6-8.9
		c0.7-0.2,1.1-1.4,1.6-2.1c-1,0-2-0.4-2.9,0c-2.3,0.9-4.6,2.1-6.9,3.1c-1.3,0.5-2.5,0.6-2.4-1.3c0-1.3,0.3-2.5,0.3-2.9
		c1.6,0,3.1,0.1,4.5-0.2C67.2,131.6,72.3,130.6,78.2,129.6z M70.2,124.8c-0.2,0.4-0.4,0.9-0.7,1.3c-3.1-1.5-6.1-3-9.2-4.5
		c0.3-0.5,0.5-1,0.8-1.5C64.2,121.6,67.2,123.2,70.2,124.8z M68.7,115.6c3.5,2.6,6.9,5.2,10.7,8.1c-5.8,2.2-6.5-0.7-11.3-7.1
		C68.3,116.2,68.5,115.9,68.7,115.6z M79.8,123c-2.7-1.8-5.4-3.6-8.2-5.5C79.9,119.3,79.9,119.4,79.8,123z M94.4,128
		c-2,2.1-4,4.2-5.9,6.4c-0.2-0.2-0.4-0.3-0.6-0.5c0.1-1.4,0.3-2.7,0.5-4.7c-5.3,4.2-10.1,8-15.4,12.3c-0.2-6.3,8.4-6,7.1-12.4
		c4.7-0.7,9.3-1.5,13.9-2.2C94,127.3,94.2,127.7,94.4,128z M112.3,124.5c0.1,0.3,0.2,0.5,0.3,0.8c-2.2,2.5-4.5,4.9-5.8,6.4
		c-0.3-0.5-0.8-2.4-1.5-2.5c-1.1-0.1-2.7,0.7-3.5,1.6c-2.3,2.4-4.3,5-6.4,7.6c-0.4-0.3-0.7-0.6-1.1-1c1.4-1.5,2.7-2.9,4.1-4.4
		c0.8-0.8,1.9-1.5,2.4-2.5c0.3-0.7-0.3-1.7-0.5-2.6c-0.7,0.4-1.4,0.7-2,1.1c-0.7,0.5-1.4,1.2-2.1,1.8c-0.3-0.3-0.7-0.5-1-0.8
		c0.7-1.1,1.3-3,2.3-3.2C102.3,125.8,107.3,125.2,112.3,124.5z M100.9,115.1c2.3,2.3,4.2,4.2,6.4,6.4
		C103.5,122.2,102,120.7,100.9,115.1z M98.1,94.5c-0.2,0.2-0.5,0.4-0.7,0.6c-1.6-1.4-3.2-2.7-4.7-4.1c0.3-0.2,0.6-0.4,0.8-0.7
		c-0.5-1.7-1-3.4-1.7-6C96,87.2,95.7,91.7,98.1,94.5z M100.3,101.6c-3.3,0.4-6.5,0.8-9.8,1.2c0-0.5-0.1-0.9-0.1-1.4
		c3.3-0.2,6.6-0.5,9.9-0.7C100.3,101,100.3,101.3,100.3,101.6z M104.8,113.5c-3.1-2.1-5.5-3.7-7.8-5.2c0.7,0.5,2.8-1.1,3.8-1.5
		C102.2,109.1,102.5,112,104.8,113.5z M113.5,117.1c0.7,0.6,0.1,2.7,0.1,4.1c-1-0.1-2.5,0.1-2.9-0.4c-2.6-3.4-4.9-7-7.4-10.6
		c0.2-0.2,0.4-0.3,0.5-0.5C107,112.1,110.4,114.4,113.5,117.1z M126.2,117.9c0,0.2-1,0.8-1.3,0.6c-3.9-1.7-8.6-1.4-11.7-5
		c-1-1.2-2.4-2.1-3.5-3.1c1-0.8,2.1-1.6,3.6-2.9c1.7,1.1,3.5,2.3,5.3,3.6c2.3,1.6,4.7,3.2,6.9,4.9
		C126,116.4,126.1,117.2,126.2,117.9z M131.4,126c0.1,0.3,0.2,0.7,0.3,1c-1,0.9-2,1.8-3.1,2.7c-0.3,0-0.7-0.1-1-0.1
		c0-1-0.4-2.7,0-2.9C128.6,126.1,130.1,126.2,131.4,126z M132.5,115.6c-0.4,0.1-0.8,0.2-1.3,0.3c-0.9-0.8-1.7-1.5-1.9-1.7
		c0.4-3.4,0.7-6.1,1-8.7c0.3,0,0.6,0,0.9,0C131.7,108.8,132.1,112.2,132.5,115.6z M145,139.1c3.1-0.1,6.3-0.3,9.4-0.4
		c0,0.5,0.1,0.9,0.1,1.4c-3.1,0.2-6.3,0.3-9.4,0.5C145.1,140.1,145,139.6,145,139.1z M153.8,136.1
		C153.9,136.1,153.9,136,153.8,136.1C153.9,136.1,153.8,136.1,153.8,136.1z M140,135c3.2,0,6.4-0.1,9.5-0.1c0-0.3,0.1-0.8,0.1-1.1
		c-1.9-0.3-3.9-0.4-5.9-0.7c0.7-0.9,1.2-1.4,2.4-3c2.7,1.8,5.3,3.5,7.9,5.3c-0.3,0.4-0.4,0.7-0.5,0.8c-4.5,0.2-8.9,0.2-13.4,0.4
		C140.2,136,140.1,135.6,140,135z M134.3,127.9c2.9-0.4,5-0.7,7.8-1.1c0,0,0.7,0.6,1,1.4c0.1,0.3-0.8,1.2-1.5,1.4
		c-2.8,1.3-5.7,2.6-8.5,3.8C133.5,131.3,134,129.2,134.3,127.9z M143.6,121c5.2,4.2,10.4,8.3,15.6,12.5c-0.2,0.3-0.4,0.5-0.6,0.7
		c-0.9-0.5-1.8-1.2-2.7-1.8c-6.4-4.3-12.8-8.8-19.2-13.2c-0.6-0.4-1.3-1.1-1.4-1.7c-0.4-3.5-0.3-7.6-0.8-10.4c7,4.7,14,9.4,21,14
		c-1.2,1.7-0.5,0.8-0.8,1.1c-4.3-0.7-6.9-5.3-11.7-5.1c-0.2,0.4-0.9,1.4-0.9,1.4c5.1,3.4,10.2,6.8,15.2,10.2c0,0,0,0-0.2,0.2
		c-4.6-2.6-9-5.5-13.5-8.1C143.6,120.9,143.6,120.9,143.6,121z M152.6,110.8c-3-1.8-5.5-3.2-9.1-5.3c0.2-0.3,0.3-0.5,0.5-0.8
		C147.8,106.6,150.8,107.4,152.6,110.8z M164.8,116.9c-0.3,0.3-0.5,0.5-0.8,0.8c-3.6-2.1-7.1-4.3-10.7-6.5c1.5,0.7,3,1.3,4.4,2
		c1.7,1,3,3.1,5.5,1.8C163.4,115.1,164.3,116.3,164.8,116.9z M167.8,124c-0.5,0.2-0.9,0.6-1.4,0.6c-1.4-0.1-2.7-0.5-4-0.7
		c0.7-2.9,2.7-2.1,4.5-1.4C167.4,122.6,167.5,123.5,167.8,124z M168.9,135.4c-0.9,0-2,0.4-2.6,0c-2-1.4-3.9-3.1-5.5-4.4
		c1.5,0.3,3.2,0.5,4.9,1c0.8,0.2,1.6,0.7,2.1,1.3C168.3,133.8,168.5,134.7,168.9,135.4z M164.6,144c-0.7,2.1-1.3,3.6-2,5.6
		c-1-1.4-2-2.7-3-4.1C161.4,145,162.7,144.6,164.6,144z M171.1,162.7c0.2,0.1,0.1,0.6,0.1,1.4c-3.5,0.1-6.9,0.1-10.3,0.2
		c0.3-0.8,0.5-1.5,0.7-2.1c1.1,0.1,2.2,0.1,3.7,0.2c-3.5-6.7-10.4-9.9-14.5-15.9c3.5-1.3,6.8-0.2,8.5,2.6
		C162.5,154.2,165.5,159.5,171.1,162.7z M186,163.6c-5.6,1-6.7,0.9-9.7-2.9c-2.7-3.5-7-6.3-5.8-12.3
		C175.7,153.5,180.7,158.4,186,163.6z M197,174.2c-0.6,0.2-1.2,0.4-1.7,0.6c-2-1.7-4-3.4-6-5.1C190.5,168.1,193.8,169.6,197,174.2z
		 M197.5,154.9c-1.4,3.2-2.7,6.4-4.3,9.9c-0.5-0.8-1.2-1.3-1.1-1.5c1.5-3,3.1-5.9,4.7-8.9C197.1,154.6,197.3,154.8,197.5,154.9z"/>
</g>
<g id="top_left" class="st0">
	
		<linearGradient id="SVGID_3_" gradientUnits="userSpaceOnUse" x1="9.3744" y1="107.8384" x2="206.5139" y2="107.8384" gradientTransform="matrix(6.123234e-17 1 -1 6.123234e-17 215.7826 -0.1057)">
		<stop  offset="0" style="stop-color:#A6894B"/>
		<stop  offset="1" style="stop-color:#ECCA7A"/>
	</linearGradient>
	<path class="st3" d="M46.3,17.6c-2.1-2.3-2.4-2.3-3.4-2.9c-0.8-0.5-2-0.9-3-1.2c-0.2,1.1-0.7,2.2-0.5,3.2c0.3,1.4,1,2.6,1.6,3.9
		c0,0,0,0,0-0.1c0.5,2.5-0.7,4-2.7,5.4c-3,2.1-6,4.2-9,6.4c-0.5,0.3-0.8,0.8-1.2,1.3c0.1,0.2,0.2,0.4,0.4,0.6
		c1.5-0.6,2.9-1.3,4.9-2.2c-2.1,2-3.9,3.4-5.5,5c0.2,0.2,0.3,0.3,0.3,0.2c4.5-3,8.9-6,13.4-9c0.1,0,0.7,0.7,0.9,0.9
		c-5.2,4.9-12.2,8.4-14.1,16.1C33.9,38.8,40,33,48.8,29.1c-1.4,1.6-2,2.8-3,3.5c-2.2,1.6-4.9,2.8-6.9,4.7c-2.9,2.8-5.6,5.9-8,9.1
		c-0.6,0.8,0,2.6,0.1,3.9c1-0.7,2.1-1.2,2.9-2.1c2.6-3,4.9-6.2,7.7-9c1.7-1.7,3.9-2.7,6-4.1c0,1.6,0.1,2.7-0.1,3.7
		c-0.3,1.3-0.5,3.4-1.4,3.8c-3.1,1.5-4.6,4.2-6.3,6.9c-1.4,2.2-3.3,4-4.9,6.1c-1.8,2.4-3.6,4.8-5.3,7.3c0.3,0.2,0.7,0.5,1,0.7
		c5.9-6.6,11.8-13.2,17.9-20.1c-0.2,2.1,0.3,4.5-0.7,5.9c-1.5,2.3-4.1,3.8-6.1,5.8c-3.5,3.6-7,7.2-10.3,11c-0.6,0.7-0.5,2.1-0.7,3.1
		c0.4,0.1,0.7,0.2,1.1,0.2c1.8-2.4,3.6-4.7,5.4-7.1c0.2,1.2,0,2-0.4,2.8c-2.5,4.1-5.1,8.1-7.5,12.3c-0.6,1-0.4,2.4-0.6,3.7
		c0.4,0.1,0.7,0.2,1.1,0.2c2.9-8.9,9-15.5,14.9-22.3c1.1,2,1.9,3.6,3,5.6c-1.3,0.3-2.6,0.4-3.9,0.8c-0.9,0.3-2,0.5-2.6,1.2
		c-1.7,2-3.2,4.3-4.7,6.4c-0.4,0.6-0.7,1.3-1.2,2.1c1-0.1,1.6-0.2,2.4-0.3c-2.4,5.9-4.7,11.5-7,17c0.2,0.1,0.5,0.2,0.7,0.3
		c1.8-1.4,3.7-2.8,5.5-4.2c0.2,0.2,0.4,0.5,0.6,0.7c-1.4,3.5-2.8,6.9-4.3,10.6c1.2-0.3,2.2-0.6,3.2-0.8c-0.5,2.7-0.9,5.2-1.3,7.6
		c0.4,0.1,0.7,0.2,1.1,0.2c0.7-1.5,1.3-3,2.2-4.9c0.2,3.4,0.3,6.2,0.4,8.3c-2,0.8-3.5,1.4-5,2c0.1,0.2,0.1,0.3,0.2,0.5
		c0.9-0.1,1.9-0.3,3.1-0.4c-1.1,2.1-2.1,3.9-3.1,5.7c0.2,0.1,0.4,0.2,0.5,0.3c1.2-1.3,2.3-2.6,3.9-4.2c0.1,2,0.1,3.2,0.2,4.6
		c0.8-0.3,1.4-0.5,3.1-1.1c-0.9,2.8-1.6,4.9-2.3,6.9c-0.6,1.9-1,3.1-1.9,5.8c0.3,0.1,0.6,0.2,0.9,0.3c1.8-3.9,3.6-8.1,5.4-12.2
		c2.8,2.5,1.1,5-0.5,8.4c2.4-1.3,4-2.1,5.1-2.7c-0.2-3.4-0.4-6.3-0.6-9.9c1.9,1.5,3.1,2.5,4.8,3.8c-1.1-3.1-4.8-3.8-4.6-7.5
		c1.5,1.8,2.6,3.1,3.8,4.3c0.3,0.3,1.1,0.1,1.7,0.1c0-0.6,0.1-1.4-0.2-1.8c-1-1.4-2.2-2.7-3.4-4c-1.6-1.9-2.3-3.8-0.7-6.9
		c2.3,4.1,4.2,7.6,6.2,11.1c0.4-0.2,0.8-0.4,1.2-0.6c-0.9-2.2-1.9-4.3-3-6.4c-1.8-3.5-4.3-6.5-6.2-10c0.4-0.2,0.5-0.3,0.6-0.3
		c3.2,4.7,6.3,9.5,9.5,14.2c0,0,1.4-0.8,1.8-1c-0.8-1.8-1.9-4.1-1.7-5.8c0.2-2.7-1.6-3.6-2.7-5.2c-1.1-1.6-2.2-3.1-3.4-4.7
		c0.4-0.3,0.9-0.7,1.3-1c3.5,4.6,6.9,9.1,10.4,13.7c0.3-1.4,0.1-2.7-0.5-3.8c-3.1-4.7-6.2-9.4-9.6-13.9c-0.7-0.9-2.4-1.1-3.9-1.7
		c0.1-0.8,0.3-2.1,0.6-4.4c1,1.5,1.3,2.5,2,2.8c5.2,3.1,8.8,7.6,12.2,12.5c1,1.5,2.5,2.7,3.8,4c0.4-0.4,0.9-0.7,1.3-1.1
		c-2.9-3.8-5.8-7.6-8.7-11.3c0.3-0.3,0.5-0.7,0.8-1c1.2,0.9,2.5,1.8,4.1,3c1.2-3.6-1.8-4.7-3.1-6.6c-1.5-2.1-3.3-4.1-5-6.1
		c0.2-0.2,0.4-0.3,0.6-0.5c1.3,1.4,2.6,2.7,4,4.1c0.2-0.2,0.4-0.4,0.6-0.6c-1.7-1.8-3.4-3.6-5-5.5c-1.6-1.9-3.1-4-4.6-6
		c0.2-0.1,0.3-0.2,0.5-0.4c3.7,4.3,7.4,8.6,11.1,12.9c0.2-0.1,0.5-0.3,0.7-0.4c-0.4-0.8-0.7-1.8-1.2-2.5c-3.2-4.2-6.6-8.2-9.8-12.4
		c-1-1.4-1.5-3.1-2.3-4.7c1.7,0.8,3.5,1.4,4.9,2.5c3.8,3,7.4,6.3,11,9.5c0.2-0.2,0.4-0.3,0.6-0.4c-0.6-1.2-1.2-2.3-1.8-3.6
		c0.7-0.8,1.4-1.5,2-2.3c1.2,0.8,2.4,1.7,3.4,2.4c0.1,1.1-0.5,1.4,0.6,4.4c1.4-0.9,2.2-1.5,3-2c1.2,4.2,0.6,10.6-3,15.5
		c0.5,0.2,0.9,0.2,1.4,0.5c1.7-1.7,3.3-3.5,5-5.2c0.9-0.9,1.6-2.8,3.3-0.8c0,0,0,0,0-0.1c-0.1,1,0.1,2.3-0.4,2.9
		c-1.5,1.9-3.3,3.5-5,5.3c-1.9,1.9-3.7,3.9-5.5,5.8c0.2,0.4,0.4,0.7,0.6,1.1c1.4-0.7,2.9-1.3,4.2-2.2c1.4-1,2.4-2.5,3.7-3.6
		c1.3-1.1,2.9-2,4.3-2.9c0.2,0.3,0.5,0.6,0.7,0.9c-5,4.6-10,9.2-15,13.8c0.2,0.3,0.4,0.7,0.7,1c3.4-2,6.8-3.9,10.1-5.9
		c-2.3,3.9-5.1,7.2-7.9,10.4c-1.4,1.6-2.5,3-0.5,4.5c-1.3,1.6-2.5,3-3.7,4.4c0.2,0.3,0.5,0.6,0.7,0.8c2.3-1.1,4.6-2.1,6.9-3.2
		c0.2,0.3,0.4,0.6,0.6,1c-1.8,2-3.7,3.9-5.4,5.9c-0.4,0.5-0.2,1.5-0.3,2.3c0.7-0.1,1.4,0,2.1-0.2c0.5-0.1,1-0.4,1.5-0.7
		c0.1,0.1,0.2,0.3,0.3,0.4c-2.5,2.3-4.8,4.7-7.2,6.9c0.2,0.3,0.9,1.2,0.9,1.2c3.8-2.5,7.6-5.1,11.4-7.6c0,0,0.2,0.3,0.4,0.6
		c-5.2,4.8-10.5,9.4-15.7,14.2c0.2,0.3,0.4,0.6,0.6,1c1.3-0.6,2.6-1.1,3.8-1.8c1.2-0.7,2.4-1.6,3.8-2.5c-0.1,5-2.5,8.2-5.2,11.3
		c-2.5,2.9-5.7,5.7-3.6,10.4c2.3,1,3.3-5.3,5.8-1.3c1.6-1.2,3-2.2,4.4-3.3c0.2,0.1,0.3,0.3,0.5,0.4c-2.1,4.5-4.1,8.9-6.3,13.7
		c3.8,0.3,4.5-4.1,7.6-5.1c0.8,5.1-4.8,6.6-5.7,10.5c0.2,0.2,0.5,0.5,0.7,0.7c2.1-1.6,4.2-3.1,6.2-4.7c-0.5,2.2-2,3.9-2.8,5.9
		c-0.8,2-1,4.3-1.6,7.3c2-0.7,3.1-1,4.2-1.4c0.9,3,3.7,2.5,5.4,1.9c1.9-0.7,4-2.2,3.3-5.3c-0.4-1.7,0.1-3.6,0.1-5.4
		c0.3,0,0.6,0,0.9,0c1.2,2.5,2.4,5,3.7,7.6c0.5-0.2,0.9-0.3,1.4-0.5c-0.5-2.7-0.3-5.9-1.8-8c-2.4-3.4-2.8-7-2.9-11.2
		c5,4,5.9,9.8,8.4,14.9c0.8-3.3,0.2-6.3-1.2-9.1c-1.9-3.8-4.9-7.2-4-12.2c2.6,4.7,5.1,9.4,7.7,14.1c0.4-0.2,0.8-0.4,1.2-0.5
		c-1.1-3-2.2-6-3.2-9c0.2-0.1,0.3-0.1,0.5-0.2c0.7,1.4,1.3,2.7,2.1,4.4c0.8-1,1.3-1.7,1.7-2.1c-2-4.7-3.9-9-5.7-13.4
		c0.2-0.1,0.3-0.2,0.4-0.4c2.5,1.8,5,3.5,8.2,5.8c-0.5-3.9-1.2-7.2-1.6-10.6c-0.1-1-0.3-2-0.8-2.7c-2.5-3.7-5-7.5-7.5-11.2
		c0-0.1,0.6-0.6,0.6-0.7c1.7,1.5,3.9,2.6,5.2,4.4c1.5,1.9,2.5,4.2,3.5,6.4c0.1,0.3-0.4,0.8-0.6,1.3c0.9,0.6,1.8,1.1,2.6,1.7
		c0.3-0.1,0.6-0.2,0.9-0.3c-0.4-2.3-0.1-5.2-1.3-6.9c-3.3-4.6-7.3-8.7-11-13c-0.7,0.1-0.8-0.4-0.7-0.8c0.1-0.5,0.4-1,0.6-1.5
		c6,2,10.1,6.2,13.8,10.9c0.4-6.1-5.5-8.2-7.6-12.8c1.7,0.8,3.5,1.7,4.6,3.1c1.2,1.4,2,1.2,3,0.2c0.4,1.8,0.4,4.3,1.4,5
		c2.8,1.8,3.1,4.9,3.5,7.1c1.1,5.9,0.9,12,1.3,17.9c0.1,2.3,0.1,4.6,0.3,6.8c0.1,0.9,0.9,1.7,1.5,2.9c0.1,1.7,0.2,4,0.2,6.3
		c2-5.2,3.4-10.3,4.8-15.4c0.8-2.9,3.8-5.1,1-8.8c-1.3-1.8-1-5.1-0.8-7.7c0.1-2.7-1-3.5-3.9-2.9c0.3-2,0.5-3.6,0.7-5.3
		c2.4,2.3,4.5,4.1,6.4,6.2c2.7,2.8,2.3,6.8,3.8,9.8c1.8,3.5,1.1,8.4,5.4,10.5c0.2,0.1,0.2,0.6,0.3,0.9c0.5,1.7,1,3.4,1.5,5.2
		c0.9,2.8,2.4,5.6,2.5,8.5c0.1,3.6-1.1,7.3-1.7,10.9c-0.8,4.9-1.5,9.7-2.3,14.6c0.4,0.1,0.8,0.2,1.2,0.2c1.5-7.1,3-14.3,4.5-21.4
		c1.6,2.2,2.5,4.2,3.1,6.4c0.2,0.6-0.7,1.4-1.1,2.1c-0.4-0.3-0.8-0.6-1.1-0.9c-3.3,8.3-4,16.6-1.2,24.9c0.5,0,1,0.1,1.5,0.1
		c0.9-7.2,1.9-14.3,2.8-21.5c0.4,0,0.8,0.1,1.2,0.1c-0.3,3.4-0.8,6.8-0.9,10.2c-0.1,3.6,0.4,7.1,0.6,10.7c0.3,0,0.6,0,1,0
		c0.3-2.4,0.6-4.9,0.9-7.3c0.2,0,0.4,0,0.7,0c1,3.6,2,7.2,3.1,11.1c1.1,0,2.3-0.1,4.1-0.1c-4.6-5.3-4.6-11.3-6.1-16.7
		c-0.1-0.5,0.8-1.3,1.2-2c0.3,0.6,0.8,1.2,1,1.9c0.3,0.7,0.1,1.7,0.5,2.3c2.8,3.6,5.6,7.1,8.5,10.7c0.3-0.1,0.6-0.3,0.8-0.4
		c0-4.8-4.5-8.1-5.7-12.9c2.8,1.8,5.2,3.4,7.6,5c0.4-0.4,0.8-0.8,1.2-1.2c-1.1-1.3-1.9-2.9-3.2-3.9c-2-1.5-4.4-2.5-6.4-4
		c-1.6-1.3-2.9-3-4.4-4.5c0.3-0.3,0.6-0.6,0.9-0.9c3.3,2.3,6.6,4.5,9.9,6.8c0.3-0.3,0.5-0.7,0.8-1c-1.8-1.9-3.7-3.9-5.8-6.1
		c2.4,0.4,4.3,0.6,6.3,1c0.1-0.5,0.4-1.4,0.3-1.5c-4.4-2.6-8.3-4.9-13.4-7.5c0.1-0.2,0.1-0.4,0.2-0.6c4.1,1.1,7.4,1.9,11,2.9
		c0.2-0.3,0.5-0.6,0.6-0.9c-1.1-0.9-2-2.2-3.2-2.7c-3.9-1.4-7.9-2.4-11.9-3.7c-1.1-0.4-2.1-1.2-3.2-1.8c0.2-0.4,0.4-0.8,0.6-1.2
		c5.3,1.5,10.7,3,16,4.5c0.2-0.2,0.4-0.4,0.6-0.6c-1.4-1.3-2.7-2.6-4.1-3.8c-0.2-1.4-0.8-2.5-1.5-3.5c-2-3.1-5.6-3.2-8.6-4.1
		c-1.9-0.6-3.7-1.3-5.6-2c0.1-0.3,0.2-0.7,0.3-1c1.7,0.2,3.3,0.4,5,0.8c3.2,0.7,6.3,1.7,9.5,2.3c0.8,0.1,1.8-0.8,2.6-1.1
		c-4.2-2.2-7.8-4.1-12-6.4c2-0.2,3.2-0.4,4.4-0.5c0.1-0.3,0.3-0.6,0.4-0.9c-1-0.6-2-1.7-3-1.8c-3.2-0.1-6.5,0.2-9.8,0.3
		c-0.9,0-1.8-0.4-2.7-0.6c0.1-0.5,0.1-1,0.2-1.5c4,0.1,8,0.2,12.1,0.2c0.3-0.8,0.6-1.6,1-2.8c1.8,1.1,3.3,2,5,2.9
		c-0.2-3.5-6.6-8.6-11.2-9c0.2,0.7,0.3,1.4,0.4,1.9c-2-0.3-4.5,0-5.8-1c-2-1.8-3.3-4.5-4.8-6.9c0.2-0.1,0.3-0.3,0.5-0.4
		c2,1.4,4,2.9,6.1,4.3c0.3-0.4,0.7-0.7,1-1.1c-2-2-4-3.9-6-5.9c0.2-0.3,0.4-0.5,0.6-0.8c1.8,1,3.7,1.9,5.3,3.2
		c1.8,1.5,3.1,3.5,4.9,5c1.8,1.6,4.5,2.5,5.8,4.4c2.6,3.6,6.9,3,10.1,4.9c0.5,0.3,1.8-0.6,2.4-1.1c0.3-0.3,0.2-1.2,0.2-1.8
		c-0.8,0-1.6,0.1-2.4,0c-0.8-0.1-1.8-0.1-2.5-0.6c-2.4-1.6-4.6-3.4-6.9-5.2c3.7,0.8,7.3,1.3,10.3,3c3,1.8,5.4,4.7,8.5,7.6
		c-0.8-6.9-7.4-8.7-10.4-13.8c1.2,0.3,1.7,0.3,2.2,0.5c2.1,1,3.2,2.6,4.5,4.6c2.3,3.6,6,6.3,9.2,9.2c1.8,1.6,4,2.8,6,4.2
		c0.2-0.3,0.4-0.6,0.6-0.9c-1-1.1-2-2.3-3.1-3.3c-1.1-1.1-2.3-2.1-3.4-3.2c2.8,1,5.5,2.1,8.2,2.8c1,0.2,2.6-0.4,3.5-1.2
		c0.6-0.5,0.2-2,0.3-3.5c-3.8,2.8-11.2,0.4-14.4-3.9c3.7,0,7.5,0,11.3,0c1.4,0,2.9,0.1,4.3-0.1c0.5-0.1,0.9-0.7,1.3-1.1
		c-0.5-0.5-0.9-1.2-1.5-1.3c-1.3-0.2-2.6,0-3.9-0.2c-3.9-0.4-7.8-0.9-11.8-1.4c0-0.5-0.1-0.9-0.1-1.4c2.4-0.7,4.8-1.6,7.2-2.1
		c2.5-0.5,5-0.6,7.9-0.9c-4.5-3.9-15.7-1.9-18.4,2.8c-0.9-0.4-1.7-0.8-3.3-1.6c6.5-4.8,13.4-7.1,20.8-8.4c-0.1-0.5-0.1-1.1-0.2-1.6
		c-2.2-0.2-4.3-0.5-6.3-0.7c0.1-0.6,0.3-1.5,0.5-2.3c-1,0-2.1-0.2-3,0.1c-2.9,1.2-5.7,2.7-8.6,4c-0.2-0.3-0.3-0.6-0.5-1
		c0.6-0.5,1.2-1.1,1.9-1.5c2.2-1.3,4.5-2.3,6.5-3.7c0.8-0.6,1.2-1.9,1.7-2.9c-1,0.1-2,0-2.9,0.4c-2.4,1-4.9,2.1-7.1,3.4
		c-4.6,2.7-9.4,5.1-12.4,10.1c-3-1.1-5.9-2.1-9.1-3.3c1.2-1.4,1.7-2.6,2.5-3.1c4.8-2.8,9.6-5.4,14.4-8.2c1.2-0.7,2.4-1.6,3.5-2.3
		c-8.1-0.5-14.3,3.2-20.2,7.4c-0.6,0.4-1,1.2-1.1,1.9c-0.3,3.3-2.2,3.7-4.8,2.9c-4.6-1.3-9.3-2.6-13.9-3.9c-2.5-0.7-5.1-1.2-8.2-2
		c-0.7-1.3-1.7-3.2-2.8-5.2c0.2-0.3,0.4-0.5,0.6-0.8c2.8,1.1,5.6,2.3,8.3,3.4c-0.7-4,0.2-5.4,4.7-7.2c1.8-0.7,3.6-1.3,5.6-2.1
		c-2.6-1.9-7.4-0.8-10.9,1.9c-1.9-1.1-3.7-2.2-5.6-3.3c0.9-0.5,1.6-0.9,2.4-1.4c-3.9-0.1-7.6-0.3-11.2-0.4c0-0.4,0-0.9,0.1-1.3
		c5.2-3,10.6,1.7,15.8-0.1c-5.9-2.6-11.7-4.9-18.8-3.7c-0.4-0.9-1-2.1-1.6-3.4c5-1.4,9.9,4.3,14.8-1c-1.6-0.8-2.8-1.4-3.9-2
		c1.3-3.1,0.7-4.3-2.7-4.7c-2-0.2-3-1-4.1-2.7c-1.8-2.9-3.2-5.9-4.6-9.1c-1.8-4.4-5.5-8.1-8.4-12.1c-0.9-1.2-1.5-2.5-2.2-3.8
		c0-0.1,1.1-1,1.1-0.9c1.1,0.9,2.4,1.8,3.2,2.9c3.9,5.9,7.5,12,11.6,17.8c1.8,2.6,4.6,4.5,6.4,6.2c-0.6-2.5-1.2-5.2-1.8-7.9
		c0-0.2-0.1-0.4-0.2-0.6c-2.5-4.5-5-9-7.4-13.5c-0.8-1.4-1.4-2.9-2.1-4.3c0.3-0.2,0.6-0.4,0.9-0.6c0.9,0.7,2,1.3,2.6,2.2
		c0.9,1.4,1.2,3.1,2.1,4.4c1.9,3.1,4,6.1,6.1,9.2c-0.3,0.2-0.5,0.3-0.8,0.5c-0.8-0.6-1.5-1.1-2.3-1.7c-0.2,0.2-0.3,0.3-0.5,0.5
		c5.2,5.8,10.4,11.7,15.6,17.5c0.3-0.1,0.6-0.2,0.9-0.2c-0.1-1.1,0.1-2.4-0.4-3.1c-4.6-6.4-9.8-12.5-12.3-20.6
		c1.1-0.2,2.2-0.3,3.4-0.5c0,2.2,0,4,0,5.7c4.7,4.7,9.3,9.8,14.5,14.3c2.2,1.9,5.5,2.7,8.3,3.9c0.3-0.4,0.5-0.8,0.8-1.1
		c-2.3-2.8-4.5-5.5-6.8-8.3c2.8,0.5,6.9-1.3,6.7,3.8c0,0.3,0.8,0.7,1.3,0.9c2.8,1.4,5.6,2.7,8.5,4.1c0.2-5.9-6.4-5.3-8.4-9.5
		c1.2-0.3,2.3-0.5,3.5-0.7c1.6-0.3,3.5-0.1,4.8-0.9c1.4-0.8,2.2-2.6,3.3-3.9c-1.5-0.7-2.9-1.8-4.4-1.9c-2.8-0.1-5.7,0.3-8.6,0.6
		c-0.1-0.3-0.1-0.6-0.2-0.8c2.7-0.8,5.4-1.6,9-2.7c-5.5-3-10.4-0.1-15.9-0.9c1.7-0.6,2.7-1,3.7-1.4c1-0.4,2-0.7,3.1-1.1
		c-1.7-1.6-7.4-0.8-9.1,1.2c-2,2.5-4.1,1.8-6.3-0.1c4.8-1.7,9.8-2.9,14.7-4.1c1-0.3,1.9-0.9,2.9-1.4c-0.2-0.5-0.3-1-0.5-1.5
		c-7.2,1.3-14.4,2.7-21.7,4c0-0.3-0.1-0.5-0.1-0.8c5.5-1.5,11-3,16.6-4.5c-2.2-2.4-6.4,1-8.3-3.1c2.9-0.6,5.5-1.1,8.1-1.7
		c-0.1-0.4-0.1-0.8-0.2-1.1c-8,0-15.9,1.3-23.4,4.2c-2,0.8-3,1.1-5-0.4c6.7-2.4,13.1-4.6,19.4-6.8c-0.1-0.4-0.2-0.8-0.3-1.3
		c-6,1.3-12,2.6-18,3.9c-0.1-0.3-0.2-0.5-0.3-0.8c4.6-3.4,11.1-2.5,16.4-6c-1.1-0.3-1.6-0.7-2-0.6c-6.3,1.5-12.7,3.1-19,4.7
		c-2.2,0.6-3,1.7-1.3,3.8c-1.3-0.7-2.6-1.4-4.2-2.3c4.5-5.5,11.6-4.5,17.2-7.6c-3.5-2-6.5-0.3-9.6,0.5c-3.1,0.8-6.1,1.7-9.2,2.5
		c0.1-1.1,0.4-1.9,1-2.1c3.8-1.4,7.6-2.7,11.4-4.1c0.9-0.3,1.6-1.1,2.4-1.7c-0.2-0.4-0.4-0.7-0.6-1.1c-8,1.5-15.5,4.5-22.7,8.4
		c3.7-2.5,3.7-2.5,2.3-4c4.7-2.3,9.4-4.6,14.1-6.9c-0.1-0.3-0.2-0.5-0.3-0.8c-1,0-2.3-0.4-3.1,0c-5.7,2.6-11.6,5.1-17,8.3
		c-2,1.2-3.1,1.2-5.4-0.3c6.5-2.9,12.5-5.7,18.5-8.4c-1.1-0.8-2.3-1.3-3.3-1c-2.4,0.7-4.7,1.7-7,2.7c-3.3,1.5-6.5,3.1-9.8,4.7
		c-0.2-0.4-0.4-0.9-0.7-1.3c4.9-2.5,9.9-5,15.5-7.8c-8.1-0.6-13.5,4.5-19.9,6.7c-0.2-0.4-0.3-0.7-0.5-1.1c5.4-2.8,10.8-5.6,16.9-8.8
		c-4.4-2.1-7.1,0.8-10,2c-3.1,1.3-6.1,2.8-9.1,4.2c-0.2-0.3-0.3-0.6-0.5-1c0.8-0.6,1.5-1.2,2.3-1.7c3.5-2,7.1-3.9,10.5-6.1
		c0.7-0.4,1.1-2,0.9-2.8c-0.1-0.5-1.8-1.3-2.4-1.1c-6.6,2.7-13.2,5.5-19.7,8.3c-1.9,0.8-2.7,2.1-0.5,4.3c-1.3,0-2.3,0.3-3,0
		c-1.1-0.6-2-1.5-3-2.3c0.8-0.8,1.4-1.9,2.3-2.4c4.1-2.3,8.3-4.4,12.4-6.7c0.6-0.4,0.9-1.4,1.6-2.7C70.6,17,68.6,18,68,17.4
		c-2.8-2.6-4.8-0.5-7,0.7c0.7-0.9,1.3-2,2.2-2.8c1.5-1.5,3.2-2.7,4.8-4.1c-0.3-0.3-0.5-0.6-0.8-0.9c-4.4,0.3-5.9,5.4-9.5,6.6
		c0.2-2.5,0.5-4.8,1-7.6C54.4,12.2,50.3,14.9,46.3,17.6z M45.5,116.2c-0.5,0.1-1,0.2-1.5,0.4c-0.4-2.3-0.8-4.6-1.3-6.8
		c0.5-0.1,1-0.2,1.5-0.3C46.4,111.2,45.5,113.8,45.5,116.2z M41.3,71.2c0.8,6.3-2.3,14.4-6.2,15.5C37.3,81.1,39.3,76.2,41.3,71.2z
		 M45.1,89.4c-0.4,0-0.9-0.1-1.3-0.1c0.1-1.1-0.1-2.4,0.4-3.4c1.1-2.2,0.1-2.7-1.9-2.7c0.9-3.2,1.8-6.3,2.7-9.5
		c0.1-0.5,0.5-1.3,0.3-1.5c-2.9-3,0.3-3.9,2.4-5.3C46.9,74.4,46,81.9,45.1,89.4z M115.2,155.2c-0.4-5.9,1.4-11.4,3-17.3
		C120.4,141.9,119.9,145,115.2,155.2z M141.2,140.6c-3.4-0.2-6.8-0.4-10.3-0.6C134.5,137.3,137.8,140.1,141.2,140.6z M131,133.9
		c0.3,0.3-0.2,1.2-0.3,1.9c-0.8-0.2-1.9-0.1-2.2-0.6c-1.1-2-1.9-4.2-2.8-6.3c0.1-0.1,0.3-0.2,0.4-0.3
		C127.8,130.3,129.5,132,131,133.9z M83.1,101.2c2.3-2,4.2-3.6,6.3-5.3c2.5,4.5,2.1,5.3-1.7,5.9c-0.7,0.1-1.4,0.5-2,0.7
		C85.1,102.2,84.5,101.9,83.1,101.2z M85.6,102.5c-0.7,1.3-1.1,3-2.2,3.9c-2.9,2.3-6.1,4.2-9.3,6.1
		C77.4,108.6,79.7,103.7,85.6,102.5z M83.4,153.7c-0.2,1.4-0.1,2.9-0.2,4.5c-0.3,0-1.6,0.3-2.9,0.3c-1.9,0.1-1.9-1.2-1.3-2.4
		c1-2.3,2.2-4.5,3.1-6.9c0.3-0.8,0-1.9,0-2.9c-0.7,0.5-1.9,0.9-2.1,1.6c-1.5,4.3-5.6,4-8.9,5.6c2.1-5,8.2-10.3,11.7-10.2
		c-2-3.5,1.3-3.8,3.4-5.8C85.1,143.5,84.2,148.6,83.4,153.7z M95.8,154.6c-0.5,0.3-1,0.5-1.5,0.8c-1.5-3.1-3-6.1-4.5-9.2
		c0.4-0.2,0.9-0.4,1.3-0.7C92.6,148.6,94.2,151.6,95.8,154.6z M99.2,147.7c-6.4-4.8-9.3-5.5-7.1-11.3c2.9,3.8,5.5,7.2,8.1,10.7
		C99.9,147.3,99.5,147.5,99.2,147.7z M98.2,144.1c-1.8-2.7-3.7-5.5-5.5-8.2C96.4,135.9,96.4,135.9,98.2,144.1z M88.8,121.9
		c-0.7,4.6-1.4,9.2-2.2,13.9c-6.3-1.3-6.1,7.2-12.4,7.1c4.2-5.3,8.1-10.1,12.3-15.4c-1.9,0.2-3.3,0.3-4.7,0.5
		c-0.2-0.2-0.3-0.4-0.5-0.6c2.1-2,4.2-4,6.4-5.9C88.1,121.6,88.4,121.7,88.8,121.9z M88.9,118.4c-0.2,0.9-2.1,1.5-3.2,2.3
		c-0.3-0.3-0.5-0.7-0.8-1c0.6-0.7,1.2-1.4,1.8-2.1c0.4-0.6,0.8-1.3,1.1-2c-0.9-0.2-2-0.8-2.6-0.5c-1,0.5-1.6,1.6-2.5,2.4
		c-1.4,1.4-2.9,2.8-4.4,4.1c-0.3-0.4-0.6-0.7-1-1.1c2.5-2.1,5.2-4.2,7.6-6.4c0.9-0.9,1.7-2.4,1.6-3.5c-0.1-0.7-1.9-1.2-2.5-1.5
		c1.5-1.3,3.9-3.6,6.4-5.8c0.3,0.1,0.5,0.2,0.8,0.3C90.5,108.4,90,113.4,88.9,118.4z M94.3,108.4c2.2,2.2,4.1,4.1,6.4,6.4
		C95.1,113.7,93.6,112.3,94.3,108.4z M131.4,124c-2.7-0.8-4.3-1.2-6-1.7c-0.2,0.3-0.4,0.6-0.7,0.8c-1.4-1.6-2.7-3.2-4.1-4.7
		c0.2-0.2,0.4-0.5,0.6-0.7C124.1,120,128.5,119.8,131.4,124z M115.1,115.6c-0.2,3.3-0.5,6.6-0.7,9.9c-0.5,0-0.9-0.1-1.4-0.1
		c0.4-3.3,0.8-6.5,1.2-9.8C114.5,115.5,114.8,115.5,115.1,115.6z M109,115c-0.4,1-2,3.1-1.5,3.8c-1.6-2.3-3.1-4.7-5.2-7.8
		C103.8,113.3,106.7,113.6,109,115z M106.1,112c-0.2,0.2-0.3,0.4-0.5,0.5c-3.6-2.4-7.2-4.8-10.6-7.4c-0.6-0.4-0.3-1.9-0.4-2.9
		c1.4,0,3.5-0.6,4.1,0.1C101.4,105.4,103.7,108.8,106.1,112z M99.8,90.3c1.7,2.2,3.3,4.6,4.9,6.9c1.3,1.8,2.5,3.7,3.6,5.3
		c-1.2,1.5-2.1,2.6-2.9,3.6c-1-1.2-1.9-2.5-3.1-3.5c-3.6-3.1-3.4-7.8-5-11.7c-0.1-0.3,0.4-1.3,0.6-1.3
		C98.6,89.6,99.4,89.8,99.8,90.3z M89.1,88.2c-0.2,0.4-1.9,0-2.9,0c0-0.3-0.1-0.7-0.1-1c0.9-1,1.8-2,2.7-3.1c0.3,0.1,0.7,0.2,1,0.3
		C89.6,85.7,89.6,87.1,89.1,88.2z M110.3,84.5c0,0.3,0,0.6,0,0.9c-2.7,0.3-5.3,0.6-8.7,1c-0.1-0.1-0.9-1-1.7-1.9
		c0.1-0.4,0.2-0.8,0.3-1.3C103.6,83.7,107,84.1,110.3,84.5z M75.2,70.7c0.2-3.1,0.3-6.3,0.5-9.4c0.5,0,0.9,0.1,1.4,0.1
		c-0.1,3.1-0.3,6.3-0.4,9.4C76.2,70.7,75.7,70.7,75.2,70.7z M79.7,61.9C79.7,61.9,79.7,61.9,79.7,61.9
		C79.7,61.9,79.7,61.9,79.7,61.9z M79.2,75.5c0.2-4.5,0.2-8.9,0.4-13.4c0.1-0.1,0.4-0.2,0.8-0.5c1.7,2.6,3.4,5.1,5.3,7.9
		c-1.7,1.3-2.2,1.7-3,2.4c-0.3-2-0.4-4-0.7-5.9c-0.3,0-0.8,0.1-1.1,0.1c0,3.2-0.1,6.4-0.1,9.5C80.2,75.7,79.8,75.6,79.2,75.5z
		 M82.3,82.7c1.3-2.9,2.5-5.7,3.8-8.5c0.3-0.6,1.2-1.6,1.4-1.5c0.8,0.3,1.4,1,1.4,1c-0.4,2.8-0.7,4.9-1.1,7.8
		C86.6,81.8,84.5,82.2,82.3,82.7z M94.9,72.2c-2.6-4.6-5.5-9-8.1-13.5c0.2-0.2,0.2-0.2,0.2-0.2c3.4,5.1,6.8,10.2,10.2,15.2
		c0,0,1-0.7,1.4-0.9c0.2-4.7-4.4-7.4-5.1-11.7c0.3-0.2-0.6,0.4,1.1-0.8c4.7,7,9.3,13.9,14,21c-2.9-0.5-6.9-0.4-10.4-0.8
		c-0.6-0.1-1.3-0.8-1.7-1.4c-4.4-6.4-8.8-12.7-13.2-19.2c-0.6-0.9-1.2-1.8-1.8-2.7c0.3-0.2,0.5-0.4,0.7-0.6
		c4.2,5.2,8.3,10.4,12.5,15.6C94.9,72.2,94.8,72.2,94.9,72.2z M111,71.7c-0.3,0.2-0.5,0.3-0.8,0.5c-2.1-3.6-3.5-6.1-5.3-9.1
		C108.4,65,109.2,67.9,111,71.7z M100.6,52.5c-1.3,2.5,0.9,3.8,1.8,5.5c0.8,1.4,1.4,2.9,2,4.4c-2.2-3.6-4.3-7.1-6.5-10.7
		c0.3-0.3,0.5-0.5,0.8-0.8C99.5,51.5,100.7,52.4,100.6,52.5z M93.3,48.8c0.7,1.8,1.5,3.8-1.4,4.5c-0.2-1.3-0.6-2.6-0.7-4
		c0-0.4,0.4-0.9,0.6-1.4C92.3,48.3,93.1,48.4,93.3,48.8z M82.5,48c0.6,0.6,1.1,1.3,1.3,2.1c0.5,1.7,0.7,3.4,1,4.9
		c-1.3-1.6-3-3.5-4.4-5.5c-0.4-0.6,0-1.7,0-2.6C81.1,47.3,81.9,47.5,82.5,48z M70.3,56.2c-1.4-1-2.7-2-4.1-3c1.9-0.7,3.5-1.2,5.6-2
		C71.2,53.1,70.8,54.4,70.3,56.2z M66.8,56.5c2.8,1.7,3.9,5,2.6,8.5c-6-4.1-9.2-11.1-15.9-14.5c0.1,1.5,0.1,2.6,0.2,3.7
		c-0.6,0.2-1.3,0.5-2.1,0.7c0.1-3.5,0.1-6.9,0.2-10.3c0.8,0.1,1.3,0,1.4,0.1C56.3,50.3,61.6,53.3,66.8,56.5z M67.5,45.3
		c-6,1.2-8.9-3.1-12.3-5.8c-3.9-3-3.9-4-2.9-9.7C57.4,35.1,62.3,40.1,67.5,45.3z M46.1,26.5c-1.7-2-3.4-4-5.1-6
		c0.2-0.6,0.4-1.1,0.6-1.7C46.1,22,47.7,25.3,46.1,26.5z M61.4,18.9c-2.9,1.6-5.9,3.2-8.9,4.7c-0.2,0.1-0.8-0.5-1.5-1.1
		c3.5-1.5,6.7-2.9,9.9-4.3C61,18.5,61.2,18.7,61.4,18.9z"/>
</g>
<g id="top_right">
	
		<linearGradient id="SVGID_4_" gradientUnits="userSpaceOnUse" x1="9.3744" y1="107.8384" x2="206.5139" y2="107.8384" gradientTransform="matrix(-4.489665e-11 1 1 4.489665e-11 0.1057 -0.1057)">
		<stop  offset="0" style="stop-color:#A6894B"/>
		<stop  offset="1" style="stop-color:#ECCA7A"/>
	</linearGradient>
	<path class="st4" d="M157.2,9.3c0.5,2.8,0.8,5.1,1,7.6c-3.6-1.2-5.1-6.3-9.5-6.6c-0.3,0.3-0.5,0.6-0.8,0.9c1.6,1.4,3.3,2.7,4.8,4.1
		c0.8,0.8,1.5,1.8,2.2,2.8c-2.2-1.1-4.2-3.3-7-0.7c-0.6,0.5-2.6-0.4-4.9-0.9c0.8,1.3,1,2.3,1.6,2.7c4.1,2.3,8.3,4.4,12.4,6.7
		c0.9,0.5,1.6,1.6,2.3,2.4c-1,0.8-1.9,1.8-3,2.3c-0.7,0.3-1.6,0-3,0c2.2-2.1,1.4-3.4-0.5-4.3c-6.6-2.8-13.1-5.6-19.7-8.3
		c-0.6-0.2-2.3,0.6-2.4,1.1c-0.2,0.9,0.2,2.4,0.9,2.8c3.4,2.2,7,4.1,10.5,6.1c0.8,0.5,1.5,1.1,2.3,1.7c-0.2,0.3-0.3,0.6-0.5,1
		c-3-1.4-6.1-2.9-9.1-4.2c-2.9-1.3-5.6-4.1-10-2c6,3.1,11.5,6,16.9,8.8c-0.2,0.4-0.3,0.7-0.5,1.1c-6.3-2.2-11.8-7.4-19.9-6.7
		c5.6,2.8,10.6,5.3,15.5,7.8c-0.2,0.4-0.4,0.9-0.7,1.3c-3.3-1.6-6.5-3.2-9.8-4.7c-2.3-1-4.6-2-7-2.7c-1-0.3-2.1,0.2-3.3,1
		c6,2.7,12,5.4,18.5,8.4c-2.3,1.5-3.4,1.5-5.4,0.3c-5.4-3.2-11.3-5.7-17-8.3c-0.9-0.4-2.1,0-3.1,0c-0.1,0.3-0.2,0.5-0.3,0.8
		c4.7,2.3,9.4,4.6,14.1,6.9c-1.4,1.5-1.4,1.5,2.3,4c-7.2-3.8-14.7-6.9-22.7-8.4c-0.2,0.4-0.4,0.7-0.6,1.1c0.8,0.6,1.5,1.4,2.4,1.7
		c3.8,1.4,7.6,2.7,11.4,4.1c0.6,0.2,0.9,1,1,2.1c-3.1-0.8-6.1-1.7-9.2-2.5c-3.1-0.8-6.1-2.5-9.6-0.5c5.5,3.1,12.6,2.2,17.2,7.6
		c-1.6,0.8-2.9,1.6-4.2,2.3c1.7-2.1,0.8-3.3-1.3-3.8c-6.3-1.6-12.6-3.2-19-4.7c-0.4-0.1-1,0.3-2,0.6c5.3,3.5,11.7,2.6,16.4,6
		c-0.1,0.3-0.2,0.5-0.3,0.8c-6-1.3-12-2.6-18-3.9c-0.1,0.4-0.2,0.8-0.3,1.3c6.3,2.2,12.7,4.4,19.4,6.8c-2,1.5-3,1.2-5,0.4
		c-7.5-2.9-15.4-4.2-23.4-4.2c-0.1,0.4-0.1,0.8-0.2,1.1c2.6,0.5,5.2,1.1,8.1,1.7c-1.9,4-6.1,0.7-8.3,3.1c5.6,1.5,11.1,3,16.6,4.5
		c0,0.3-0.1,0.5-0.1,0.8c-7.2-1.3-14.4-2.7-21.7-4c-0.2,0.5-0.3,1-0.5,1.5c1,0.5,1.9,1.1,2.9,1.4c4.9,1.2,9.9,2.4,14.7,4.1
		c-2.3,1.8-4.3,2.5-6.3,0.1c-1.7-2.1-7.4-2.9-9.1-1.2c1.1,0.4,2.1,0.7,3.1,1.1c1,0.4,2,0.8,3.7,1.4c-5.5,0.8-10.4-2.2-15.9,0.9
		c3.6,1.1,6.3,1.9,9,2.7c-0.1,0.3-0.1,0.6-0.2,0.8c-2.9-0.2-5.7-0.7-8.6-0.6c-1.5,0.1-3,1.2-4.4,1.9c1.1,1.3,1.9,3.1,3.3,3.9
		c1.3,0.8,3.2,0.6,4.8,0.9c1.1,0.2,2.2,0.5,3.5,0.7c-2,4.2-8.6,3.6-8.4,9.5c2.9-1.4,5.7-2.7,8.5-4.1c0.5-0.2,1.3-0.6,1.3-0.9
		c-0.3-5.1,3.8-3.3,6.7-3.8c-2.3,2.8-4.5,5.5-6.8,8.3c0.3,0.4,0.5,0.8,0.8,1.1c2.8-1.3,6-2,8.3-3.9c5.2-4.5,9.8-9.6,14.5-14.3
		c0-1.7,0-3.5,0-5.7c1.2,0.2,2.2,0.3,3.4,0.5c-2.5,8.1-7.7,14.1-12.3,20.6c-0.5,0.8-0.3,2.1-0.4,3.1c0.3,0.1,0.6,0.2,0.9,0.2
		c5.2-5.8,10.4-11.7,15.6-17.5c-0.2-0.2-0.3-0.3-0.5-0.5c-0.8,0.6-1.5,1.1-2.3,1.7c-0.3-0.2-0.5-0.3-0.8-0.5c2-3,4.1-6,6.1-9.2
		c0.9-1.4,1.2-3.1,2.1-4.4c0.6-0.9,1.7-1.5,2.6-2.2c0.3,0.2,0.6,0.4,0.9,0.6c-0.7,1.4-1.3,2.9-2.1,4.3c-2.4,4.5-4.9,9-7.4,13.5
		c-0.1,0.2-0.2,0.4-0.2,0.6c-0.6,2.7-1.2,5.4-1.8,7.9c1.8-1.7,4.5-3.7,6.4-6.2c4.1-5.8,7.7-11.9,11.6-17.8c0.8-1.2,2.1-2,3.2-2.9
		c0.1-0.1,1.2,0.8,1.1,0.9c-0.7,1.3-1.4,2.6-2.2,3.8c-2.8,4-6.5,7.7-8.4,12.1c-1.3,3.2-2.7,6.2-4.6,9.1c-1.1,1.7-2.1,2.4-4.1,2.7
		c-3.4,0.4-4,1.6-2.7,4.7c-1.2,0.6-2.4,1.2-3.9,2c5,5.3,9.8-0.5,14.8,1c-0.6,1.3-1.2,2.6-1.6,3.4c-7.1-1.2-13,1.1-18.8,3.7
		c5.3,1.8,10.7-2.9,15.8,0.1c0,0.4,0,0.9,0.1,1.3c-3.6,0.1-7.3,0.3-11.2,0.4c0.8,0.5,1.5,0.8,2.4,1.4c-1.9,1.1-3.7,2.2-5.6,3.3
		c-3.5-2.8-8.3-3.8-10.9-1.9c2,0.7,3.8,1.4,5.6,2.1c4.4,1.8,5.3,3.2,4.7,7.2c2.7-1.1,5.5-2.2,8.3-3.4c0.2,0.3,0.4,0.5,0.6,0.8
		c-1.1,2-2.1,3.9-2.8,5.2c-3.1,0.7-5.7,1.3-8.2,2c-4.7,1.3-9.3,2.6-13.9,3.9c-2.6,0.7-4.6,0.4-4.8-2.9c-0.1-0.7-0.5-1.5-1.1-1.9
		c-5.9-4.1-12-7.9-20.2-7.4c1.2,0.8,2.3,1.6,3.5,2.3c4.8,2.7,9.7,5.4,14.4,8.2c0.9,0.5,1.4,1.6,2.5,3.1c-3.3,1.2-6.2,2.2-9.1,3.3
		c-3-5-7.8-7.4-12.4-10.1c-2.3-1.3-4.7-2.4-7.1-3.4c-0.9-0.4-1.9-0.3-2.9-0.4c0.6,1,0.9,2.3,1.7,2.9c2.1,1.4,4.4,2.5,6.5,3.7
		c0.7,0.4,1.3,1,1.9,1.5c-0.2,0.3-0.3,0.6-0.5,1c-2.9-1.4-5.7-2.8-8.6-4c-0.9-0.4-2-0.1-3-0.1c0.2,0.8,0.4,1.7,0.5,2.3
		c-2,0.2-4.2,0.5-6.3,0.7c-0.1,0.5-0.1,1.1-0.2,1.6c7.4,1.3,14.3,3.6,20.8,8.4c-1.6,0.8-2.5,1.2-3.3,1.6c-2.7-4.7-13.9-6.7-18.4-2.8
		c2.9,0.3,5.5,0.4,7.9,0.9c2.5,0.5,4.8,1.4,7.2,2.1c0,0.5-0.1,0.9-0.1,1.4c-3.9,0.5-7.8,1-11.8,1.4c-1.3,0.1-2.6,0-3.9,0.2
		c-0.6,0.1-1,0.9-1.5,1.3c0.4,0.4,0.9,1.1,1.3,1.1c1.4,0.2,2.8,0.1,4.3,0.1c3.8,0,7.6,0,11.3,0c-3.3,4.3-10.7,6.7-14.4,3.9
		c0.1,1.5-0.2,3,0.3,3.5c0.8,0.8,2.4,1.4,3.5,1.2c2.8-0.6,5.4-1.8,8.2-2.8c-1.2,1.1-2.3,2.1-3.4,3.2c-1.1,1.1-2,2.2-3.1,3.3
		c0.2,0.3,0.4,0.6,0.6,0.9c2-1.4,4.2-2.6,6-4.2c3.3-2.9,6.9-5.6,9.2-9.2c1.3-2,2.5-3.6,4.5-4.6c0.5-0.2,1-0.3,2.2-0.5
		c-3.1,5.1-9.7,6.9-10.4,13.8c3.1-2.8,5.4-5.8,8.5-7.6c3-1.7,6.6-2.2,10.3-3c-2.3,1.7-4.6,3.5-6.9,5.2c-0.7,0.4-1.6,0.5-2.5,0.6
		c-0.8,0.1-1.6,0-2.4,0c0.1,0.6-0.1,1.5,0.2,1.8c0.7,0.6,2,1.4,2.4,1.1c3.2-1.9,7.5-1.3,10.1-4.9c1.3-1.9,4-2.8,5.8-4.4
		c1.8-1.5,3.1-3.5,4.9-5c1.6-1.3,3.5-2.1,5.3-3.2c0.2,0.3,0.4,0.5,0.6,0.8c-2,2-4,3.9-6,5.9c0.3,0.4,0.7,0.7,1,1.1
		c2-1.4,4-2.9,6.1-4.3c0.2,0.1,0.3,0.3,0.5,0.4c-1.6,2.3-2.8,5.1-4.8,6.9c-1.2,1.1-3.7,0.7-5.8,1c0.1-0.5,0.3-1.2,0.4-1.9
		c-4.6,0.4-11,5.5-11.2,9c1.7-1,3.2-1.9,5-2.9c0.4,1.2,0.7,2,1,2.8c4.1-0.1,8.1-0.2,12.1-0.2c0.1,0.5,0.1,1,0.2,1.5
		c-0.9,0.2-1.8,0.7-2.7,0.6c-3.3,0-6.5-0.4-9.8-0.3c-1,0-2,1.1-3,1.8c0.1,0.3,0.3,0.6,0.4,0.9c1.2,0.1,2.4,0.3,4.4,0.5
		c-4.3,2.3-7.8,4.2-12,6.4c0.8,0.4,1.8,1.3,2.6,1.1c3.2-0.6,6.3-1.6,9.5-2.3c1.6-0.4,3.3-0.5,5-0.8c0.1,0.3,0.2,0.7,0.3,1
		c-1.9,0.7-3.7,1.4-5.6,2c-3.1,1-6.6,1-8.6,4.1c-0.7,1-1.2,2.1-1.5,3.5c-1.4,1.3-2.7,2.6-4.1,3.8c0.2,0.2,0.4,0.4,0.6,0.6
		c5.3-1.5,10.7-3,16-4.5c0.2,0.4,0.4,0.8,0.6,1.2c-1.1,0.6-2,1.4-3.2,1.8c-3.9,1.3-8,2.3-11.9,3.7c-1.2,0.4-2.2,1.8-3.2,2.7
		c0.2,0.3,0.5,0.6,0.6,0.9c3.6-0.9,6.9-1.8,11-2.9c0.1,0.2,0.1,0.4,0.2,0.6c-5.1,2.7-9,5-13.4,7.5c-0.1,0.1,0.2,1,0.3,1.5
		c2-0.3,3.9-0.6,6.3-1c-2.1,2.2-4,4.2-5.8,6.1c0.3,0.3,0.5,0.7,0.8,1c3.3-2.3,6.6-4.5,9.9-6.8c0.3,0.3,0.6,0.6,0.9,0.9
		c-1.4,1.5-2.7,3.2-4.4,4.5c-2,1.5-4.4,2.5-6.4,4c-1.3,1-2.1,2.5-3.2,3.9c0.4,0.4,0.8,0.8,1.2,1.2c2.4-1.6,4.8-3.2,7.6-5
		c-1.2,4.9-5.6,8.1-5.7,12.9c0.3,0.1,0.6,0.3,0.8,0.4c2.8-3.5,5.7-7.1,8.5-10.7c0.4-0.6,0.3-1.6,0.5-2.3c0.2-0.7,0.7-1.2,1-1.9
		c0.4,0.7,1.3,1.4,1.2,2c-1.5,5.4-1.5,11.4-6.1,16.7c1.8,0,2.9,0.1,4.1,0.1c1.1-3.8,2.1-7.4,3.1-11.1c0.2,0,0.4,0,0.7,0
		c0.3,2.4,0.6,4.9,0.9,7.3c0.3,0,0.6,0,1,0c0.2-3.6,0.6-7.1,0.6-10.7c0-3.4-0.6-6.8-0.9-10.2c0.4,0,0.8-0.1,1.2-0.1
		c0.9,7.2,1.9,14.3,2.8,21.5c0.5,0,1-0.1,1.5-0.1c2.8-8.4,2.1-16.7-1.2-24.9c-0.4,0.3-0.7,0.6-1.1,0.9c-0.4-0.7-1.3-1.6-1.1-2.1
		c0.6-2.2,1.5-4.3,3.1-6.4c1.5,7.1,3,14.3,4.5,21.4c0.4-0.1,0.8-0.2,1.2-0.2c-0.8-4.9-1.5-9.7-2.3-14.6c-0.6-3.6-1.7-7.3-1.7-10.9
		c0.1-2.8,1.6-5.6,2.5-8.5c0.5-1.7,1-3.4,1.5-5.2c0.1-0.3,0.1-0.8,0.3-0.9c4.4-2.1,3.6-7,5.4-10.5c1.5-3,1.1-7.1,3.8-9.8
		c1.9-2,4-3.9,6.4-6.2c0.2,1.7,0.5,3.3,0.7,5.3c-2.9-0.6-4,0.2-3.9,2.9c0.1,2.6,0.5,5.9-0.8,7.7c-2.7,3.7,0.3,6,1,8.8
		c1.4,5.1,2.8,10.2,4.8,15.4c0.1-2.3,0.2-4.6,0.2-6.3c0.6-1.2,1.4-2,1.5-2.9c0.3-2.3,0.2-4.6,0.3-6.8c0.3-6,0.2-12.1,1.3-17.9
		c0.4-2.2,0.7-5.3,3.5-7.1c1.1-0.7,1-3.2,1.4-5c1,1.1,1.8,1.3,3-0.2c1.2-1.4,2.9-2.3,4.6-3.1c-2.1,4.6-8,6.8-7.6,12.8
		c3.7-4.8,7.8-9,13.8-10.9c0.2,0.5,0.5,0.9,0.6,1.5c0.1,0.4,0,0.9-0.7,0.8c-3.7,4.3-7.7,8.4-11,13c-1.2,1.7-0.9,4.6-1.3,6.9
		c0.3,0.1,0.6,0.2,0.9,0.3c0.9-0.6,1.8-1.1,2.6-1.7c-0.2-0.4-0.7-1-0.6-1.3c1.1-2.2,2.1-4.5,3.5-6.4c1.3-1.7,3.5-2.9,5.2-4.4
		c0.1,0.2,0.7,0.6,0.6,0.7c-2.5,3.7-5,7.5-7.5,11.2c-0.5,0.7-0.6,1.7-0.8,2.7c-0.4,3.5-1.1,6.7-1.6,10.6c3.2-2.2,5.6-4,8.2-5.8
		c0.2,0.1,0.3,0.2,0.4,0.4c-1.9,4.4-3.7,8.8-5.7,13.4c0.4,0.4,0.9,1.1,1.7,2.1c0.8-1.6,1.5-3,2.1-4.4c0.2,0.1,0.3,0.1,0.5,0.2
		c-1.1,3-2.2,6-3.2,9c0.4,0.2,0.8,0.4,1.2,0.5c2.6-4.7,5.1-9.4,7.7-14.1c0.9,5-2.1,8.4-4,12.2c-1.4,2.8-2.1,5.9-1.2,9.1
		c2.4-5.1,3.3-10.9,8.4-14.9c-0.1,4.3-0.5,7.8-2.9,11.2c-1.4,2.1-1.3,5.3-1.8,8c0.5,0.2,0.9,0.3,1.4,0.5c1.2-2.5,2.4-5,3.7-7.6
		c0.3,0,0.6,0,0.9,0c0.1,1.8,0.5,3.7,0.1,5.4c-0.7,3.1,1.4,4.6,3.3,5.3c1.7,0.6,4.5,1.1,5.4-1.9c1.2,0.4,2.2,0.7,4.2,1.4
		c-0.6-3-0.8-5.3-1.6-7.3c-0.8-2-2.3-3.7-2.8-5.9c2.1,1.6,4.2,3.1,6.2,4.7c0.2-0.2,0.5-0.5,0.7-0.7c-1-3.8-6.5-5.4-5.7-10.5
		c3.1,1,3.7,5.4,7.6,5.1c-2.2-4.7-4.3-9.2-6.3-13.7c0.2-0.1,0.3-0.3,0.5-0.4c1.4,1.1,2.8,2.1,4.4,3.3c2.5-4,3.5,2.3,5.8,1.3
		c2.1-4.6-1.1-7.5-3.6-10.4c-2.7-3.2-5.1-6.3-5.2-11.3c1.4,0.9,2.6,1.8,3.8,2.5c1.2,0.7,2.5,1.2,3.8,1.8c0.2-0.3,0.4-0.6,0.6-1
		c-5.2-4.8-10.5-9.4-15.7-14.2c0.2-0.3,0.4-0.6,0.4-0.6c3.8,2.5,7.6,5.1,11.4,7.6c0,0,0.7-0.9,0.9-1.2c-2.5-2.3-4.8-4.7-7.2-6.9
		c0.1-0.1,0.2-0.3,0.3-0.4c0.5,0.2,1,0.5,1.5,0.7c0.7,0.2,1.4,0.1,2.1,0.2c-0.1-0.8,0.1-1.8-0.3-2.3c-1.7-2-3.6-3.9-5.4-5.9
		c0.2-0.3,0.4-0.6,0.6-1c2.3,1.1,4.6,2.1,6.9,3.2c0.2-0.3,0.5-0.6,0.7-0.8c-1.2-1.4-2.4-2.8-3.7-4.4c2-1.4,0.9-2.9-0.5-4.5
		c-2.8-3.2-5.6-6.5-7.9-10.4c3.4,2,6.8,3.9,10.1,5.9c0.2-0.3,0.4-0.7,0.7-1c-5-4.6-10-9.2-15-13.8c0.2-0.3,0.5-0.6,0.7-0.9
		c1.4,1,3,1.8,4.3,2.9c1.3,1.1,2.4,2.6,3.7,3.6c1.3,0.9,2.8,1.5,4.2,2.2c0.2-0.4,0.4-0.7,0.6-1.1c-1.8-1.9-3.7-3.9-5.5-5.8
		c-1.7-1.8-3.5-3.4-5-5.3c-0.5-0.7-0.3-1.9-0.4-2.9c0,0,0,0,0,0.1c1.6-1.9,2.4-0.1,3.3,0.8c1.7,1.7,3.3,3.5,5,5.2
		c0.5-0.2,0.9-0.2,1.4-0.5c-3.6-4.9-4.3-11.3-3-15.5c0.8,0.5,1.6,1.1,3,2c1-3.1,0.5-3.3,0.6-4.4c1-0.7,2.2-1.6,3.4-2.4
		c0.6,0.7,1.4,1.5,2,2.3c-0.6,1.2-1.2,2.4-1.8,3.6c0.2,0.2,0.4,0.3,0.6,0.4c3.7-3.2,7.2-6.5,11-9.5c1.4-1.1,3.3-1.7,4.9-2.5
		c-0.7,1.6-1.3,3.3-2.3,4.7c-3.2,4.2-6.6,8.2-9.8,12.4c-0.6,0.7-0.8,1.6-1.2,2.5c0.2,0.1,0.5,0.3,0.7,0.4c3.7-4.3,7.4-8.6,11.1-12.9
		c0.2,0.1,0.3,0.2,0.5,0.4c-1.5,2-3,4-4.6,6c-1.6,1.9-3.3,3.7-5,5.5c0.2,0.2,0.4,0.4,0.6,0.6c1.3-1.4,2.6-2.7,4-4.1
		c0.2,0.2,0.4,0.3,0.6,0.5c-1.7,2-3.5,4-5,6.1c-1.3,1.8-4.3,3-3.1,6.6c1.7-1.2,2.9-2.1,4.1-3c0.3,0.3,0.5,0.7,0.8,1
		c-2.9,3.8-5.8,7.6-8.7,11.3c0.4,0.4,0.9,0.7,1.3,1.1c1.3-1.3,2.8-2.5,3.8-4c3.4-4.9,7-9.4,12.2-12.5c0.6-0.4,0.9-1.3,2-2.8
		c0.3,2.2,0.5,3.6,0.6,4.4c-1.5,0.6-3.2,0.8-3.9,1.7c-3.4,4.5-6.5,9.2-9.6,13.9c-0.7,1-0.9,2.3-0.5,3.8c3.5-4.6,6.9-9.1,10.4-13.7
		c0.4,0.3,0.9,0.7,1.3,1c-1.1,1.5-2.3,3.1-3.4,4.7c-1.1,1.6-2.9,2.5-2.7,5.2c0.2,1.7-0.9,4-1.7,5.8c0.4,0.2,1.7,1.1,1.8,1
		c3.2-4.7,6.3-9.5,9.5-14.2c0,0,0.2,0.1,0.6,0.3c-1.9,3.4-4.4,6.5-6.2,10c-1.1,2.1-2,4.2-3,6.4c0.4,0.2,0.8,0.4,1.2,0.6
		c2-3.5,3.9-7.1,6.2-11.1c1.7,3.1,0.9,5-0.7,6.9c-1.1,1.3-2.3,2.6-3.4,4c-0.3,0.4-0.1,1.2-0.2,1.8c0.6,0,1.4,0.2,1.7-0.1
		c1.2-1.2,2.3-2.5,3.8-4.3c0.2,3.7-3.6,4.4-4.6,7.5c1.7-1.3,2.9-2.3,4.8-3.8c-0.2,3.6-0.4,6.5-0.6,9.9c1,0.5,2.6,1.4,5.1,2.7
		c-1.6-3.3-3.3-5.8-0.5-8.4c1.8,4,3.7,8.3,5.4,12.2c0.3-0.1,0.6-0.2,0.9-0.3c-0.9-2.7-1.3-3.9-1.9-5.8c-0.7-2-1.3-4-2.3-6.9
		c1.7,0.6,2.3,0.8,3.1,1.1c0.1-1.3,0.1-2.6,0.2-4.6c1.5,1.7,2.7,3,3.9,4.2c0.2-0.1,0.4-0.2,0.5-0.3c-1-1.8-2-3.6-3.1-5.7
		c1.2,0.2,2.1,0.3,3.1,0.4c0.1-0.2,0.1-0.3,0.2-0.5c-1.5-0.6-3-1.2-5-2c0.1-2.1,0.2-4.9,0.4-8.3c0.9,1.9,1.5,3.4,2.2,4.9
		c0.4-0.1,0.7-0.2,1.1-0.2c-0.4-2.5-0.8-4.9-1.3-7.6c1,0.3,2,0.5,3.2,0.8c-1.5-3.7-2.9-7.2-4.3-10.6c0.2-0.2,0.4-0.5,0.6-0.7
		c1.8,1.4,3.7,2.8,5.5,4.2c0.2-0.1,0.5-0.2,0.7-0.3c-2.3-5.5-4.5-11.1-7-17c0.8,0.1,1.3,0.2,2.4,0.3c-0.5-0.8-0.8-1.5-1.2-2.1
		c-1.5-2.2-3-4.4-4.7-6.4c-0.6-0.7-1.7-0.9-2.6-1.2c-1.3-0.4-2.6-0.5-3.9-0.8c1.1-2,1.9-3.6,3-5.6c5.9,6.8,11.9,13.5,14.9,22.3
		c0.4-0.1,0.7-0.2,1.1-0.2c-0.2-1.2,0-2.7-0.6-3.7c-2.4-4.2-5-8.2-7.5-12.3c-0.4-0.7-0.7-1.6-0.4-2.8c1.8,2.4,3.6,4.7,5.4,7.1
		c0.4-0.1,0.7-0.2,1.1-0.2c-0.2-1.1-0.1-2.4-0.7-3.1c-3.3-3.8-6.8-7.4-10.3-11c-2-2-4.5-3.5-6.1-5.8c-1-1.4-0.5-3.8-0.7-5.9
		c6.2,6.9,12,13.5,17.9,20.1c0.3-0.2,0.7-0.5,1-0.7c-1.8-2.4-3.5-4.9-5.3-7.3c-1.6-2.1-3.5-3.9-4.9-6.1c-1.7-2.7-3.3-5.3-6.3-6.9
		c-0.9-0.4-1.1-2.5-1.4-3.8c-0.2-1-0.1-2.1-0.1-3.7c2,1.4,4.3,2.4,6,4.1c2.8,2.8,5.1,6,7.7,9c0.8,0.9,1.9,1.4,2.9,2.1
		c0.1-1.3,0.7-3.1,0.1-3.9c-2.4-3.2-5.1-6.3-8-9.1c-2-1.9-4.6-3-6.9-4.7c-1-0.7-1.6-1.8-3-3.5c8.8,3.9,14.9,9.7,20.5,16.2
		c-1.9-7.7-8.9-11.2-14.1-16.1c0.2-0.2,0.8-0.9,0.9-0.9c4.5,3,8.9,6,13.4,9c0,0,0.1-0.1,0.3-0.2c-1.7-1.6-3.5-3-5.5-5
		c2,0.9,3.4,1.5,4.9,2.2c0.1-0.2,0.2-0.4,0.4-0.6c-0.4-0.4-0.7-0.9-1.2-1.3c-3-2.2-5.9-4.3-9-6.4c-2-1.3-3.2-2.9-2.7-5.4
		c0,0,0,0,0,0.1c0.6-1.3,1.3-2.5,1.6-3.9c0.2-1-0.3-2.1-0.5-3.2c-0.9,0.3-2.2,0.7-3,1.2c-1,0.6-1.3,0.6-3.4,2.9
		C165.5,14.9,161.5,12.2,157.2,9.3z M171.6,109.4c0.5,0.1,1,0.2,1.5,0.3c-0.4,2.3-0.8,4.6-1.3,6.8c-0.5-0.1-1-0.2-1.5-0.4
		C170.4,113.8,169.4,111.2,171.6,109.4z M180.8,86.6c-3.8-1-7-9.2-6.2-15.5C176.6,76.2,178.6,81.1,180.8,86.6z M168.2,66.9
		c2.2,1.4,5.3,2.3,2.4,5.3c-0.2,0.2,0.1,1,0.3,1.5c0.9,3.1,1.8,6.2,2.7,9.5c-2,0-3,0.5-1.9,2.7c0.5,1,0.3,2.2,0.4,3.4
		c-0.4,0-0.9,0.1-1.3,0.1C169.9,81.9,169,74.4,168.2,66.9z M97.7,137.9c1.6,5.9,3.4,11.4,3,17.3C96,145,95.4,141.9,97.7,137.9z
		 M85,140c-3.4,0.2-6.8,0.4-10.3,0.6C78.1,140.1,81.4,137.3,85,140z M89.8,128.5c0.1,0.1,0.3,0.2,0.4,0.3c-0.9,2.1-1.7,4.3-2.8,6.3
		c-0.2,0.5-1.4,0.4-2.2,0.6c-0.1-0.6-0.5-1.5-0.3-1.9C86.4,132,88.1,130.3,89.8,128.5z M130.2,102.5c-0.7-0.3-1.3-0.6-2-0.7
		c-3.8-0.6-4.2-1.4-1.7-5.9c2.1,1.7,4,3.4,6.3,5.3C131.4,101.9,130.8,102.2,130.2,102.5z M141.8,112.5c-3.2-1.9-6.4-3.8-9.3-6.1
		c-1.1-0.9-1.5-2.5-2.2-3.9C136.1,103.7,138.5,108.6,141.8,112.5z M129.7,137.5c2.1,2,5.4,2.2,3.4,5.8c3.5-0.1,9.6,5.2,11.7,10.2
		c-3.3-1.5-7.4-1.3-8.9-5.6c-0.2-0.7-1.4-1.1-2.1-1.6c0,1-0.4,2,0,2.9c0.9,2.3,2.1,4.6,3.1,6.9c0.5,1.3,0.6,2.5-1.3,2.4
		c-1.3,0-2.5-0.3-2.9-0.3c0-1.6,0.1-3.1-0.2-4.5C131.7,148.6,130.7,143.5,129.7,137.5z M124.9,145.5c0.4,0.2,0.9,0.4,1.3,0.7
		c-1.5,3.1-3,6.1-4.5,9.2c-0.5-0.3-1-0.5-1.5-0.8C121.7,151.6,123.3,148.6,124.9,145.5z M115.7,147.1c2.6-3.5,5.2-6.9,8.1-10.7
		c2.2,5.8-0.7,6.5-7.1,11.3C116.3,147.5,116,147.3,115.7,147.1z M123.2,136c-1.8,2.7-3.6,5.4-5.5,8.2
		C119.4,135.9,119.5,135.9,123.2,136z M128.2,121.4c2.1,2,4.2,4,6.4,5.9c-0.2,0.2-0.3,0.4-0.5,0.6c-1.4-0.1-2.7-0.3-4.7-0.5
		c4.2,5.3,8,10.1,12.3,15.4c-6.3,0.2-6-8.4-12.4-7.1c-0.7-4.7-1.5-9.3-2.2-13.9C127.4,121.7,127.8,121.6,128.2,121.4z M124.6,103.5
		c0.3-0.1,0.5-0.2,0.8-0.3c2.5,2.2,4.9,4.5,6.4,5.8c-0.5,0.3-2.4,0.8-2.5,1.5c-0.1,1.1,0.7,2.7,1.6,3.5c2.4,2.3,5,4.3,7.6,6.4
		c-0.3,0.4-0.6,0.7-1,1.1c-1.5-1.4-2.9-2.7-4.4-4.1c-0.8-0.8-1.5-1.9-2.5-2.4c-0.7-0.3-1.7,0.3-2.6,0.5c0.4,0.7,0.7,1.4,1.1,2
		c0.5,0.7,1.2,1.4,1.8,2.1c-0.3,0.3-0.5,0.7-0.8,1c-1.1-0.7-3-1.3-3.2-2.3C125.9,113.4,125.3,108.4,124.6,103.5z M115.2,114.8
		c2.3-2.3,4.2-4.2,6.4-6.4C122.3,112.3,120.8,113.7,115.2,114.8z M94.6,117.7c0.2,0.2,0.4,0.5,0.6,0.7c-1.4,1.6-2.7,3.2-4.1,4.7
		c-0.2-0.3-0.4-0.6-0.7-0.8c-1.7,0.5-3.4,1-6,1.7C87.3,119.8,91.8,120,94.6,117.7z M101.7,115.5c0.4,3.3,0.8,6.5,1.2,9.8
		c-0.5,0-0.9,0.1-1.4,0.1c-0.2-3.3-0.5-6.6-0.7-9.9C101.1,115.5,101.4,115.5,101.7,115.5z M113.6,111c-2.1,3.1-3.7,5.5-5.2,7.8
		c0.5-0.7-1.1-2.8-1.5-3.8C109.2,113.6,112.1,113.3,113.6,111z M117.2,102.3c0.6-0.7,2.7-0.1,4.1-0.1c-0.1,1,0.1,2.5-0.4,2.9
		c-3.4,2.6-7,4.9-10.6,7.4c-0.2-0.2-0.3-0.4-0.5-0.5C112.2,108.8,114.5,105.4,117.2,102.3z M118,89.6c0.2,0,0.8,1,0.6,1.3
		c-1.7,3.9-1.4,8.6-5,11.7c-1.2,1-2.1,2.4-3.1,3.5c-0.8-1-1.6-2.1-2.9-3.6c1.1-1.7,2.3-3.5,3.6-5.3c1.6-2.3,3.2-4.7,4.9-6.9
		C116.5,89.8,117.3,89.6,118,89.6z M126.1,84.4c0.3-0.1,0.7-0.2,1-0.3c0.9,1,1.8,2,2.7,3.1c0,0.3-0.1,0.7-0.1,1c-1,0-2.7,0.4-2.9,0
		C126.2,87.1,126.3,85.7,126.1,84.4z M115.7,83.3c0.1,0.4,0.2,0.8,0.3,1.3c-0.8,0.9-1.5,1.7-1.7,1.9c-3.4-0.4-6.1-0.7-8.7-1
		c0-0.3,0-0.6,0-0.9C108.9,84.1,112.3,83.7,115.7,83.3z M139.2,70.8c-0.1-3.1-0.3-6.3-0.4-9.4c0.5,0,0.9-0.1,1.4-0.1
		c0.2,3.1,0.3,6.3,0.5,9.4C140.2,70.7,139.7,70.7,139.2,70.8z M136.2,62C136.2,61.9,136.1,61.9,136.2,62
		C136.2,61.9,136.2,61.9,136.2,62z M135.1,75.7c0-3.2-0.1-6.4-0.1-9.5c-0.3,0-0.8-0.1-1.1-0.1c-0.3,1.9-0.4,3.9-0.7,5.9
		c-0.9-0.7-1.4-1.2-3-2.4c1.8-2.7,3.5-5.3,5.3-7.9c0.4,0.3,0.7,0.4,0.8,0.5c0.2,4.5,0.2,8.9,0.4,13.4
		C136.1,75.6,135.7,75.7,135.1,75.7z M128,81.5c-0.4-2.9-0.7-5-1.1-7.8c0,0,0.6-0.7,1.4-1c0.3-0.1,1.2,0.8,1.4,1.5
		c1.3,2.8,2.6,5.7,3.8,8.5C131.4,82.2,129.3,81.8,128,81.5z M121.1,72.2c4.2-5.2,8.3-10.4,12.5-15.6c0.3,0.2,0.5,0.4,0.7,0.6
		c-0.5,0.9-1.2,1.8-1.8,2.7c-4.3,6.4-8.8,12.8-13.2,19.2c-0.4,0.6-1.1,1.3-1.7,1.4c-3.5,0.4-7.6,0.3-10.4,0.8c4.7-7,9.4-14,14-21
		c1.7,1.2,0.8,0.5,1.1,0.8c-0.7,4.3-5.3,6.9-5.1,11.7c0.4,0.2,1.4,0.9,1.4,0.9c3.4-5.1,6.8-10.2,10.2-15.2c0,0,0,0,0.2,0.2
		c-2.6,4.6-5.5,9-8.1,13.5C121,72.2,121,72.2,121.1,72.2z M110.9,63.2c-1.8,3-3.2,5.5-5.3,9.1c-0.3-0.2-0.5-0.3-0.8-0.5
		C106.7,67.9,107.5,65,110.9,63.2z M117,51c0.3,0.3,0.5,0.5,0.8,0.8c-2.1,3.6-4.3,7.1-6.5,10.7c0.7-1.5,1.3-3,2-4.4
		c1-1.7,3.1-3,1.8-5.5C115.2,52.4,116.4,51.5,117,51z M124.1,48c0.2,0.5,0.6,0.9,0.6,1.4c-0.1,1.4-0.5,2.7-0.7,4
		c-2.9-0.7-2.1-2.7-1.4-4.5C122.8,48.4,123.6,48.3,124.1,48z M135.5,46.9c0,0.9,0.4,2,0,2.6c-1.4,2-3.1,3.9-4.4,5.5
		c0.3-1.5,0.5-3.2,1-4.9c0.2-0.8,0.7-1.6,1.3-2.1C133.9,47.5,134.8,47.3,135.5,46.9z M144.1,51.2c2.1,0.7,3.6,1.3,5.6,2
		c-1.4,1-2.7,2-4.1,3C145.1,54.4,144.7,53.1,144.1,51.2z M162.8,44.7c0.1-0.2,0.6-0.1,1.4-0.1c0.1,3.5,0.1,6.9,0.2,10.3
		c-0.8-0.3-1.5-0.5-2.1-0.7c0.1-1.1,0.1-2.2,0.2-3.7c-6.7,3.5-9.9,10.4-15.9,14.5c-1.3-3.5-0.2-6.8,2.6-8.5
		C154.3,53.3,159.6,50.3,162.8,44.7z M163.7,29.8c1,5.6,0.9,6.7-2.9,9.7c-3.5,2.7-6.3,7-12.3,5.8C153.6,40.1,158.5,35.1,163.7,29.8z
		 M174.3,18.8c0.2,0.6,0.4,1.2,0.6,1.7c-1.7,2-3.4,4-5.1,6C168.2,25.3,169.7,22,174.3,18.8z M155.1,18.2c3.2,1.4,6.4,2.7,9.9,4.3
		c-0.8,0.5-1.3,1.2-1.5,1.1c-3-1.5-5.9-3.1-8.9-4.7C154.7,18.7,154.9,18.5,155.1,18.2z"/>
</g>
</svg>
