<svg viewBox="0 0 128 99" xmlns="http://www.w3.org/2000/svg"><g fill="#000" fill-rule="evenodd"><path d="m124.5.7h-121.5c-1.6 0-2.8 1.3-2.8 2.8v92.5c0 1.6 1.3 2.8 2.8 2.8h121.6c1.6 0 2.8-1.3 2.8-2.8v-92.5c0-1.6-1.3-2.8-2.9-2.8m1.1 95.3c0 .6-.5 1.1-1.1 1.1h-121.5c-.6 0-1.1-.5-1.1-1.1v-92.5c0-.6.5-1.1 1.1-1.1h121.6c.6 0 1.1.5 1.1 1.1v92.5h-.1"/><path d="m14 13h98v71h-98v-71m2 68.912h26.499v.088c0 0 .09 0 .179-.088h67.32v-66.912h-94v66.912"/><path d="m76.61 44.851v-2.393l9.391-7.458v26.727l-9.391-7.391v-2.338l7.482 5.61v-18.371l-7.482 5.613m-32.609-6.03v19.09c0 3.818 3.818 3.818 3.818 3.818h22.749c0 0 3.818 0 3.818-3.818v-19.09c0-3.818-3.818-3.818-3.818-3.818h-22.749c0 0-3.818 0-3.818 3.818m1.909.035v19.02c0 1.944 1.93 1.944 1.93 1.944h22.926c0 0 1.93 0 1.93-1.944v-19.02c0-1.944-1.93-1.944-1.93-1.944h-22.926c0 0-1.93 0-1.93 1.944"/></g></svg>