 <svg width="18px" aria-hidden="true" height="18px" viewBox="0 0 18 18" version="1.1" xmlns="http://www.w3.org/2000/svg" xmlns:xlink="http://www.w3.org/1999/xlink" xmlns:sketch="http://www.bohemiancoding.com/sketch/ns">
        <g id="Index-—-Navigation-/-Cart-/-Search-[Done]" stroke="none" stroke-width="1" fill="none" fill-rule="evenodd" sketch:type="MSPage">
            <g id="Desktop-/-Tablet-Landscape-Copy-10" sketch:type="MSArtboardGroup" transform="translate(-723.000000, -31.000000)">
                <g id="Group" sketch:type="MSLayerGroup" transform="translate(682.000000, 0.000000)">
                    <g id="x-copy" transform="translate(40.300000, 28.000000)">
                        <g id="icomoon-ignore" transform="translate(0.000000, 0.800000)"></g>
                        <path d="M18.532125,4.78043578 L18.2476875,3.91504648 C18.2476875,3.62654112 17.96325,3.33809915 17.678875,3.33809915 C17.3945,3.33809915 17.3944375,3.33809915 17.1100625,3.62660451 L9.9999375,10.2614671 L2.8898125,3.33816254 L2.321,3.33816254 C2.036625,3.33816254 1.7521875,3.6266679 1.7521875,3.91510987 L1.46775,4.78049917 L8.577875,11.7038038 L1.46775,18.6271718 L1.7521875,19.7810664 C1.7521875,20.0695718 2.036625,20.3580138 2.321,20.3580138 C2.605375,20.3580138 2.605375,20.3580138 2.8898125,20.0695084 L9.9999375,13.1462038 L17.1100625,20.0695084 C17.3945,20.3580138 17.3945,20.3580138 17.678875,20.3580138 C17.96325,20.3580138 18.2476875,20.0695084 18.2476875,19.7810664 L18.532125,18.6271718 L11.422,11.7038038 L18.532125,4.78049917 L18.532125,4.78043578 Z" id="Shape" fill-opacity="1" fill="#FFFFFF" sketch:type="MSShapeGroup"></path>
                    </g>
                </g>
            </g>
        </g>
    </svg>