<?xml version="1.0" encoding="UTF-8"?>
<svg width="30px" height="31px" viewBox="0 0 30 31" version="1.1" xmlns="http://www.w3.org/2000/svg" xmlns:xlink="http://www.w3.org/1999/xlink">
    <title>Group 10</title>
    <g id="Update" stroke="none" stroke-width="1" fill="#FC95CF" fill-rule="evenodd">
        <g id="v1" transform="translate(-925.000000, -472.000000)">
            <g id="Group-10" transform="translate(925.000000, 472.000000)">
                <g id="Group-33-Copy-3" fill="#FC95CF">
                    <polygon id="Rectangle-3-Copy-5" transform="translate(15.000000, 15.500000) scale(-1, 1) translate(-15.000000, -15.500000) " points="-2.66453526e-14 0 30 0 30 31"/>
                </g>
                <g id="010-secure" transform="translate(5.000000, 6.000000)" fill="#FFFFFF" fill-rule="nonzero">
                    <path d="M9.81195067,1.67786834 L4.42603971,6.82042689 C4.30071629,6.94008781 4.1363577,7 3.97208472,7 C3.80781174,7 3.64345316,6.94016954 3.51812974,6.82042689 L0.188070734,3.64083043 C0.0676267091,3.52591018 0,3.36995867 0,3.20738656 C0,3.04481446 0.0677123126,2.88886294 0.188070734,2.77394269 L0.849271622,2.14261694 C1.10000407,1.90329511 1.50653475,1.90321338 1.75718159,2.14261694 L3.97208472,4.25744378 L8.24283981,0.179573107 C8.36319823,0.0645711216 8.52652957,0 8.69679479,0 C8.86706001,0 9.03039136,0.0645711216 9.15074978,0.179573107 L9.81195067,0.810898858 C10.0626831,1.05030242 10.0626831,1.43846477 9.81195067,1.67786834 Z" id="Path"/>
                </g>
            </g>
        </g>
    </g>
</svg>